%TF.GenerationSoftware,KiCad,Pcbnew,9.0.6*%
%TF.CreationDate,2026-01-22T02:23:31+05:30*%
%TF.ProjectId,USB-PD-Trigger-Board,5553422d-5044-42d5-9472-69676765722d,rev?*%
%TF.SameCoordinates,Original*%
%TF.FileFunction,Drillmap*%
%TF.FilePolarity,Positive*%
%FSLAX45Y45*%
G04 Gerber Fmt 4.5, Leading zero omitted, Abs format (unit mm)*
G04 Created by KiCad (PCBNEW 9.0.6) date 2026-01-22 02:23:31*
%MOMM*%
%LPD*%
G01*
G04 APERTURE LIST*
%ADD10C,0.050000*%
%ADD11C,0.010000*%
%ADD12C,0.200000*%
%ADD13C,0.100000*%
G04 APERTURE END LIST*
D10*
X10860000Y-9560000D02*
X14660000Y-9560000D01*
X14660000Y-12550000D01*
X10860000Y-12550000D01*
X10860000Y-9560000D01*
D11*
X11541750Y-11856000D02*
X11541750Y-11826000D01*
X11606750Y-11826000D02*
X11606750Y-11856000D01*
X11541750Y-11826000D02*
G75*
G02*
X11574250Y-11793500I32500J0D01*
G01*
X11574250Y-11793500D02*
G75*
G02*
X11606750Y-11826000I0J-32500D01*
G01*
X11574250Y-11888500D02*
G75*
G02*
X11541750Y-11856000I0J32500D01*
G01*
X11606750Y-11856000D02*
G75*
G02*
X11574250Y-11888500I-32500J0D01*
G01*
D12*
D13*
X11541750Y-11088500D02*
X11606750Y-11153500D01*
X11606750Y-11088500D02*
X11541750Y-11153500D01*
X11541750Y-11808500D02*
X11606750Y-11873500D01*
X11606750Y-11808500D02*
X11541750Y-11873500D01*
X11541750Y-11826000D02*
X11541750Y-11856000D01*
X11606750Y-11856000D02*
G75*
G02*
X11541750Y-11856000I-32500J0D01*
G01*
X11606750Y-11856000D02*
X11606750Y-11826000D01*
X11606750Y-11826000D02*
G75*
G03*
X11541750Y-11826000I-32500J0D01*
G01*
D12*
X11118277Y-12863984D02*
X11118277Y-12663984D01*
X11118277Y-12663984D02*
X11165896Y-12663984D01*
X11165896Y-12663984D02*
X11194467Y-12673508D01*
X11194467Y-12673508D02*
X11213515Y-12692555D01*
X11213515Y-12692555D02*
X11223039Y-12711603D01*
X11223039Y-12711603D02*
X11232562Y-12749698D01*
X11232562Y-12749698D02*
X11232562Y-12778269D01*
X11232562Y-12778269D02*
X11223039Y-12816365D01*
X11223039Y-12816365D02*
X11213515Y-12835412D01*
X11213515Y-12835412D02*
X11194467Y-12854460D01*
X11194467Y-12854460D02*
X11165896Y-12863984D01*
X11165896Y-12863984D02*
X11118277Y-12863984D01*
X11318277Y-12863984D02*
X11318277Y-12730650D01*
X11318277Y-12768746D02*
X11327801Y-12749698D01*
X11327801Y-12749698D02*
X11337324Y-12740174D01*
X11337324Y-12740174D02*
X11356372Y-12730650D01*
X11356372Y-12730650D02*
X11375420Y-12730650D01*
X11442086Y-12863984D02*
X11442086Y-12730650D01*
X11442086Y-12663984D02*
X11432562Y-12673508D01*
X11432562Y-12673508D02*
X11442086Y-12683031D01*
X11442086Y-12683031D02*
X11451610Y-12673508D01*
X11451610Y-12673508D02*
X11442086Y-12663984D01*
X11442086Y-12663984D02*
X11442086Y-12683031D01*
X11565896Y-12863984D02*
X11546848Y-12854460D01*
X11546848Y-12854460D02*
X11537324Y-12835412D01*
X11537324Y-12835412D02*
X11537324Y-12663984D01*
X11670658Y-12863984D02*
X11651610Y-12854460D01*
X11651610Y-12854460D02*
X11642086Y-12835412D01*
X11642086Y-12835412D02*
X11642086Y-12663984D01*
X11899229Y-12863984D02*
X11899229Y-12663984D01*
X11899229Y-12663984D02*
X11965896Y-12806841D01*
X11965896Y-12806841D02*
X12032562Y-12663984D01*
X12032562Y-12663984D02*
X12032562Y-12863984D01*
X12213515Y-12863984D02*
X12213515Y-12759222D01*
X12213515Y-12759222D02*
X12203991Y-12740174D01*
X12203991Y-12740174D02*
X12184943Y-12730650D01*
X12184943Y-12730650D02*
X12146848Y-12730650D01*
X12146848Y-12730650D02*
X12127801Y-12740174D01*
X12213515Y-12854460D02*
X12194467Y-12863984D01*
X12194467Y-12863984D02*
X12146848Y-12863984D01*
X12146848Y-12863984D02*
X12127801Y-12854460D01*
X12127801Y-12854460D02*
X12118277Y-12835412D01*
X12118277Y-12835412D02*
X12118277Y-12816365D01*
X12118277Y-12816365D02*
X12127801Y-12797317D01*
X12127801Y-12797317D02*
X12146848Y-12787793D01*
X12146848Y-12787793D02*
X12194467Y-12787793D01*
X12194467Y-12787793D02*
X12213515Y-12778269D01*
X12308753Y-12730650D02*
X12308753Y-12930650D01*
X12308753Y-12740174D02*
X12327801Y-12730650D01*
X12327801Y-12730650D02*
X12365896Y-12730650D01*
X12365896Y-12730650D02*
X12384943Y-12740174D01*
X12384943Y-12740174D02*
X12394467Y-12749698D01*
X12394467Y-12749698D02*
X12403991Y-12768746D01*
X12403991Y-12768746D02*
X12403991Y-12825888D01*
X12403991Y-12825888D02*
X12394467Y-12844936D01*
X12394467Y-12844936D02*
X12384943Y-12854460D01*
X12384943Y-12854460D02*
X12365896Y-12863984D01*
X12365896Y-12863984D02*
X12327801Y-12863984D01*
X12327801Y-12863984D02*
X12308753Y-12854460D01*
X12489705Y-12844936D02*
X12499229Y-12854460D01*
X12499229Y-12854460D02*
X12489705Y-12863984D01*
X12489705Y-12863984D02*
X12480182Y-12854460D01*
X12480182Y-12854460D02*
X12489705Y-12844936D01*
X12489705Y-12844936D02*
X12489705Y-12863984D01*
X12489705Y-12740174D02*
X12499229Y-12749698D01*
X12499229Y-12749698D02*
X12489705Y-12759222D01*
X12489705Y-12759222D02*
X12480182Y-12749698D01*
X12480182Y-12749698D02*
X12489705Y-12740174D01*
X12489705Y-12740174D02*
X12489705Y-12759222D01*
D13*
X10792500Y-13160000D02*
X10857500Y-13225000D01*
X10857500Y-13160000D02*
X10792500Y-13225000D01*
D12*
X11156372Y-13083984D02*
X11175420Y-13083984D01*
X11175420Y-13083984D02*
X11194467Y-13093508D01*
X11194467Y-13093508D02*
X11203991Y-13103031D01*
X11203991Y-13103031D02*
X11213515Y-13122079D01*
X11213515Y-13122079D02*
X11223039Y-13160174D01*
X11223039Y-13160174D02*
X11223039Y-13207793D01*
X11223039Y-13207793D02*
X11213515Y-13245888D01*
X11213515Y-13245888D02*
X11203991Y-13264936D01*
X11203991Y-13264936D02*
X11194467Y-13274460D01*
X11194467Y-13274460D02*
X11175420Y-13283984D01*
X11175420Y-13283984D02*
X11156372Y-13283984D01*
X11156372Y-13283984D02*
X11137324Y-13274460D01*
X11137324Y-13274460D02*
X11127801Y-13264936D01*
X11127801Y-13264936D02*
X11118277Y-13245888D01*
X11118277Y-13245888D02*
X11108753Y-13207793D01*
X11108753Y-13207793D02*
X11108753Y-13160174D01*
X11108753Y-13160174D02*
X11118277Y-13122079D01*
X11118277Y-13122079D02*
X11127801Y-13103031D01*
X11127801Y-13103031D02*
X11137324Y-13093508D01*
X11137324Y-13093508D02*
X11156372Y-13083984D01*
X11308753Y-13264936D02*
X11318277Y-13274460D01*
X11318277Y-13274460D02*
X11308753Y-13283984D01*
X11308753Y-13283984D02*
X11299229Y-13274460D01*
X11299229Y-13274460D02*
X11308753Y-13264936D01*
X11308753Y-13264936D02*
X11308753Y-13283984D01*
X11489705Y-13083984D02*
X11451610Y-13083984D01*
X11451610Y-13083984D02*
X11432562Y-13093508D01*
X11432562Y-13093508D02*
X11423039Y-13103031D01*
X11423039Y-13103031D02*
X11403991Y-13131603D01*
X11403991Y-13131603D02*
X11394467Y-13169698D01*
X11394467Y-13169698D02*
X11394467Y-13245888D01*
X11394467Y-13245888D02*
X11403991Y-13264936D01*
X11403991Y-13264936D02*
X11413515Y-13274460D01*
X11413515Y-13274460D02*
X11432562Y-13283984D01*
X11432562Y-13283984D02*
X11470658Y-13283984D01*
X11470658Y-13283984D02*
X11489705Y-13274460D01*
X11489705Y-13274460D02*
X11499229Y-13264936D01*
X11499229Y-13264936D02*
X11508753Y-13245888D01*
X11508753Y-13245888D02*
X11508753Y-13198269D01*
X11508753Y-13198269D02*
X11499229Y-13179222D01*
X11499229Y-13179222D02*
X11489705Y-13169698D01*
X11489705Y-13169698D02*
X11470658Y-13160174D01*
X11470658Y-13160174D02*
X11432562Y-13160174D01*
X11432562Y-13160174D02*
X11413515Y-13169698D01*
X11413515Y-13169698D02*
X11403991Y-13179222D01*
X11403991Y-13179222D02*
X11394467Y-13198269D01*
X11689705Y-13083984D02*
X11594467Y-13083984D01*
X11594467Y-13083984D02*
X11584943Y-13179222D01*
X11584943Y-13179222D02*
X11594467Y-13169698D01*
X11594467Y-13169698D02*
X11613515Y-13160174D01*
X11613515Y-13160174D02*
X11661134Y-13160174D01*
X11661134Y-13160174D02*
X11680182Y-13169698D01*
X11680182Y-13169698D02*
X11689705Y-13179222D01*
X11689705Y-13179222D02*
X11699229Y-13198269D01*
X11699229Y-13198269D02*
X11699229Y-13245888D01*
X11699229Y-13245888D02*
X11689705Y-13264936D01*
X11689705Y-13264936D02*
X11680182Y-13274460D01*
X11680182Y-13274460D02*
X11661134Y-13283984D01*
X11661134Y-13283984D02*
X11613515Y-13283984D01*
X11613515Y-13283984D02*
X11594467Y-13274460D01*
X11594467Y-13274460D02*
X11584943Y-13264936D01*
X11823039Y-13083984D02*
X11842086Y-13083984D01*
X11842086Y-13083984D02*
X11861134Y-13093508D01*
X11861134Y-13093508D02*
X11870658Y-13103031D01*
X11870658Y-13103031D02*
X11880182Y-13122079D01*
X11880182Y-13122079D02*
X11889705Y-13160174D01*
X11889705Y-13160174D02*
X11889705Y-13207793D01*
X11889705Y-13207793D02*
X11880182Y-13245888D01*
X11880182Y-13245888D02*
X11870658Y-13264936D01*
X11870658Y-13264936D02*
X11861134Y-13274460D01*
X11861134Y-13274460D02*
X11842086Y-13283984D01*
X11842086Y-13283984D02*
X11823039Y-13283984D01*
X11823039Y-13283984D02*
X11803991Y-13274460D01*
X11803991Y-13274460D02*
X11794467Y-13264936D01*
X11794467Y-13264936D02*
X11784943Y-13245888D01*
X11784943Y-13245888D02*
X11775420Y-13207793D01*
X11775420Y-13207793D02*
X11775420Y-13160174D01*
X11775420Y-13160174D02*
X11784943Y-13122079D01*
X11784943Y-13122079D02*
X11794467Y-13103031D01*
X11794467Y-13103031D02*
X11803991Y-13093508D01*
X11803991Y-13093508D02*
X11823039Y-13083984D01*
X11975420Y-13283984D02*
X11975420Y-13150650D01*
X11975420Y-13169698D02*
X11984943Y-13160174D01*
X11984943Y-13160174D02*
X12003991Y-13150650D01*
X12003991Y-13150650D02*
X12032563Y-13150650D01*
X12032563Y-13150650D02*
X12051610Y-13160174D01*
X12051610Y-13160174D02*
X12061134Y-13179222D01*
X12061134Y-13179222D02*
X12061134Y-13283984D01*
X12061134Y-13179222D02*
X12070658Y-13160174D01*
X12070658Y-13160174D02*
X12089705Y-13150650D01*
X12089705Y-13150650D02*
X12118277Y-13150650D01*
X12118277Y-13150650D02*
X12137324Y-13160174D01*
X12137324Y-13160174D02*
X12146848Y-13179222D01*
X12146848Y-13179222D02*
X12146848Y-13283984D01*
X12242086Y-13283984D02*
X12242086Y-13150650D01*
X12242086Y-13169698D02*
X12251610Y-13160174D01*
X12251610Y-13160174D02*
X12270658Y-13150650D01*
X12270658Y-13150650D02*
X12299229Y-13150650D01*
X12299229Y-13150650D02*
X12318277Y-13160174D01*
X12318277Y-13160174D02*
X12327801Y-13179222D01*
X12327801Y-13179222D02*
X12327801Y-13283984D01*
X12327801Y-13179222D02*
X12337324Y-13160174D01*
X12337324Y-13160174D02*
X12356372Y-13150650D01*
X12356372Y-13150650D02*
X12384943Y-13150650D01*
X12384943Y-13150650D02*
X12403991Y-13160174D01*
X12403991Y-13160174D02*
X12413515Y-13179222D01*
X12413515Y-13179222D02*
X12413515Y-13283984D01*
X12803991Y-13074460D02*
X12632563Y-13331603D01*
X13061134Y-13083984D02*
X13080182Y-13083984D01*
X13080182Y-13083984D02*
X13099229Y-13093508D01*
X13099229Y-13093508D02*
X13108753Y-13103031D01*
X13108753Y-13103031D02*
X13118277Y-13122079D01*
X13118277Y-13122079D02*
X13127801Y-13160174D01*
X13127801Y-13160174D02*
X13127801Y-13207793D01*
X13127801Y-13207793D02*
X13118277Y-13245888D01*
X13118277Y-13245888D02*
X13108753Y-13264936D01*
X13108753Y-13264936D02*
X13099229Y-13274460D01*
X13099229Y-13274460D02*
X13080182Y-13283984D01*
X13080182Y-13283984D02*
X13061134Y-13283984D01*
X13061134Y-13283984D02*
X13042086Y-13274460D01*
X13042086Y-13274460D02*
X13032563Y-13264936D01*
X13032563Y-13264936D02*
X13023039Y-13245888D01*
X13023039Y-13245888D02*
X13013515Y-13207793D01*
X13013515Y-13207793D02*
X13013515Y-13160174D01*
X13013515Y-13160174D02*
X13023039Y-13122079D01*
X13023039Y-13122079D02*
X13032563Y-13103031D01*
X13032563Y-13103031D02*
X13042086Y-13093508D01*
X13042086Y-13093508D02*
X13061134Y-13083984D01*
X13213515Y-13264936D02*
X13223039Y-13274460D01*
X13223039Y-13274460D02*
X13213515Y-13283984D01*
X13213515Y-13283984D02*
X13203991Y-13274460D01*
X13203991Y-13274460D02*
X13213515Y-13264936D01*
X13213515Y-13264936D02*
X13213515Y-13283984D01*
X13346848Y-13083984D02*
X13365896Y-13083984D01*
X13365896Y-13083984D02*
X13384944Y-13093508D01*
X13384944Y-13093508D02*
X13394467Y-13103031D01*
X13394467Y-13103031D02*
X13403991Y-13122079D01*
X13403991Y-13122079D02*
X13413515Y-13160174D01*
X13413515Y-13160174D02*
X13413515Y-13207793D01*
X13413515Y-13207793D02*
X13403991Y-13245888D01*
X13403991Y-13245888D02*
X13394467Y-13264936D01*
X13394467Y-13264936D02*
X13384944Y-13274460D01*
X13384944Y-13274460D02*
X13365896Y-13283984D01*
X13365896Y-13283984D02*
X13346848Y-13283984D01*
X13346848Y-13283984D02*
X13327801Y-13274460D01*
X13327801Y-13274460D02*
X13318277Y-13264936D01*
X13318277Y-13264936D02*
X13308753Y-13245888D01*
X13308753Y-13245888D02*
X13299229Y-13207793D01*
X13299229Y-13207793D02*
X13299229Y-13160174D01*
X13299229Y-13160174D02*
X13308753Y-13122079D01*
X13308753Y-13122079D02*
X13318277Y-13103031D01*
X13318277Y-13103031D02*
X13327801Y-13093508D01*
X13327801Y-13093508D02*
X13346848Y-13083984D01*
X13489706Y-13103031D02*
X13499229Y-13093508D01*
X13499229Y-13093508D02*
X13518277Y-13083984D01*
X13518277Y-13083984D02*
X13565896Y-13083984D01*
X13565896Y-13083984D02*
X13584944Y-13093508D01*
X13584944Y-13093508D02*
X13594467Y-13103031D01*
X13594467Y-13103031D02*
X13603991Y-13122079D01*
X13603991Y-13122079D02*
X13603991Y-13141127D01*
X13603991Y-13141127D02*
X13594467Y-13169698D01*
X13594467Y-13169698D02*
X13480182Y-13283984D01*
X13480182Y-13283984D02*
X13603991Y-13283984D01*
X13784944Y-13083984D02*
X13689706Y-13083984D01*
X13689706Y-13083984D02*
X13680182Y-13179222D01*
X13680182Y-13179222D02*
X13689706Y-13169698D01*
X13689706Y-13169698D02*
X13708753Y-13160174D01*
X13708753Y-13160174D02*
X13756372Y-13160174D01*
X13756372Y-13160174D02*
X13775420Y-13169698D01*
X13775420Y-13169698D02*
X13784944Y-13179222D01*
X13784944Y-13179222D02*
X13794467Y-13198269D01*
X13794467Y-13198269D02*
X13794467Y-13245888D01*
X13794467Y-13245888D02*
X13784944Y-13264936D01*
X13784944Y-13264936D02*
X13775420Y-13274460D01*
X13775420Y-13274460D02*
X13756372Y-13283984D01*
X13756372Y-13283984D02*
X13708753Y-13283984D01*
X13708753Y-13283984D02*
X13689706Y-13274460D01*
X13689706Y-13274460D02*
X13680182Y-13264936D01*
X13965896Y-13083984D02*
X13927801Y-13083984D01*
X13927801Y-13083984D02*
X13908753Y-13093508D01*
X13908753Y-13093508D02*
X13899229Y-13103031D01*
X13899229Y-13103031D02*
X13880182Y-13131603D01*
X13880182Y-13131603D02*
X13870658Y-13169698D01*
X13870658Y-13169698D02*
X13870658Y-13245888D01*
X13870658Y-13245888D02*
X13880182Y-13264936D01*
X13880182Y-13264936D02*
X13889706Y-13274460D01*
X13889706Y-13274460D02*
X13908753Y-13283984D01*
X13908753Y-13283984D02*
X13946848Y-13283984D01*
X13946848Y-13283984D02*
X13965896Y-13274460D01*
X13965896Y-13274460D02*
X13975420Y-13264936D01*
X13975420Y-13264936D02*
X13984944Y-13245888D01*
X13984944Y-13245888D02*
X13984944Y-13198269D01*
X13984944Y-13198269D02*
X13975420Y-13179222D01*
X13975420Y-13179222D02*
X13965896Y-13169698D01*
X13965896Y-13169698D02*
X13946848Y-13160174D01*
X13946848Y-13160174D02*
X13908753Y-13160174D01*
X13908753Y-13160174D02*
X13889706Y-13169698D01*
X13889706Y-13169698D02*
X13880182Y-13179222D01*
X13880182Y-13179222D02*
X13870658Y-13198269D01*
X14061134Y-13083984D02*
X14061134Y-13122079D01*
X14137325Y-13083984D02*
X14137325Y-13122079D01*
X14432563Y-13360174D02*
X14423039Y-13350650D01*
X14423039Y-13350650D02*
X14403991Y-13322079D01*
X14403991Y-13322079D02*
X14394468Y-13303031D01*
X14394468Y-13303031D02*
X14384944Y-13274460D01*
X14384944Y-13274460D02*
X14375420Y-13226841D01*
X14375420Y-13226841D02*
X14375420Y-13188746D01*
X14375420Y-13188746D02*
X14384944Y-13141127D01*
X14384944Y-13141127D02*
X14394468Y-13112555D01*
X14394468Y-13112555D02*
X14403991Y-13093508D01*
X14403991Y-13093508D02*
X14423039Y-13064936D01*
X14423039Y-13064936D02*
X14432563Y-13055412D01*
X14613515Y-13283984D02*
X14499229Y-13283984D01*
X14556372Y-13283984D02*
X14556372Y-13083984D01*
X14556372Y-13083984D02*
X14537325Y-13112555D01*
X14537325Y-13112555D02*
X14518277Y-13131603D01*
X14518277Y-13131603D02*
X14499229Y-13141127D01*
X14851610Y-13283984D02*
X14851610Y-13083984D01*
X14937325Y-13283984D02*
X14937325Y-13179222D01*
X14937325Y-13179222D02*
X14927801Y-13160174D01*
X14927801Y-13160174D02*
X14908753Y-13150650D01*
X14908753Y-13150650D02*
X14880182Y-13150650D01*
X14880182Y-13150650D02*
X14861134Y-13160174D01*
X14861134Y-13160174D02*
X14851610Y-13169698D01*
X15061134Y-13283984D02*
X15042087Y-13274460D01*
X15042087Y-13274460D02*
X15032563Y-13264936D01*
X15032563Y-13264936D02*
X15023039Y-13245888D01*
X15023039Y-13245888D02*
X15023039Y-13188746D01*
X15023039Y-13188746D02*
X15032563Y-13169698D01*
X15032563Y-13169698D02*
X15042087Y-13160174D01*
X15042087Y-13160174D02*
X15061134Y-13150650D01*
X15061134Y-13150650D02*
X15089706Y-13150650D01*
X15089706Y-13150650D02*
X15108753Y-13160174D01*
X15108753Y-13160174D02*
X15118277Y-13169698D01*
X15118277Y-13169698D02*
X15127801Y-13188746D01*
X15127801Y-13188746D02*
X15127801Y-13245888D01*
X15127801Y-13245888D02*
X15118277Y-13264936D01*
X15118277Y-13264936D02*
X15108753Y-13274460D01*
X15108753Y-13274460D02*
X15089706Y-13283984D01*
X15089706Y-13283984D02*
X15061134Y-13283984D01*
X15242087Y-13283984D02*
X15223039Y-13274460D01*
X15223039Y-13274460D02*
X15213515Y-13255412D01*
X15213515Y-13255412D02*
X15213515Y-13083984D01*
X15394468Y-13274460D02*
X15375420Y-13283984D01*
X15375420Y-13283984D02*
X15337325Y-13283984D01*
X15337325Y-13283984D02*
X15318277Y-13274460D01*
X15318277Y-13274460D02*
X15308753Y-13255412D01*
X15308753Y-13255412D02*
X15308753Y-13179222D01*
X15308753Y-13179222D02*
X15318277Y-13160174D01*
X15318277Y-13160174D02*
X15337325Y-13150650D01*
X15337325Y-13150650D02*
X15375420Y-13150650D01*
X15375420Y-13150650D02*
X15394468Y-13160174D01*
X15394468Y-13160174D02*
X15403991Y-13179222D01*
X15403991Y-13179222D02*
X15403991Y-13198269D01*
X15403991Y-13198269D02*
X15308753Y-13217317D01*
X15480182Y-13274460D02*
X15499230Y-13283984D01*
X15499230Y-13283984D02*
X15537325Y-13283984D01*
X15537325Y-13283984D02*
X15556372Y-13274460D01*
X15556372Y-13274460D02*
X15565896Y-13255412D01*
X15565896Y-13255412D02*
X15565896Y-13245888D01*
X15565896Y-13245888D02*
X15556372Y-13226841D01*
X15556372Y-13226841D02*
X15537325Y-13217317D01*
X15537325Y-13217317D02*
X15508753Y-13217317D01*
X15508753Y-13217317D02*
X15489706Y-13207793D01*
X15489706Y-13207793D02*
X15480182Y-13188746D01*
X15480182Y-13188746D02*
X15480182Y-13179222D01*
X15480182Y-13179222D02*
X15489706Y-13160174D01*
X15489706Y-13160174D02*
X15508753Y-13150650D01*
X15508753Y-13150650D02*
X15537325Y-13150650D01*
X15537325Y-13150650D02*
X15556372Y-13160174D01*
X15803992Y-13207793D02*
X15956373Y-13207793D01*
X15880182Y-13283984D02*
X15880182Y-13131603D01*
X16308753Y-13283984D02*
X16194468Y-13283984D01*
X16251611Y-13283984D02*
X16251611Y-13083984D01*
X16251611Y-13083984D02*
X16232563Y-13112555D01*
X16232563Y-13112555D02*
X16213515Y-13131603D01*
X16213515Y-13131603D02*
X16194468Y-13141127D01*
X16537325Y-13274460D02*
X16556373Y-13283984D01*
X16556373Y-13283984D02*
X16594468Y-13283984D01*
X16594468Y-13283984D02*
X16613515Y-13274460D01*
X16613515Y-13274460D02*
X16623039Y-13255412D01*
X16623039Y-13255412D02*
X16623039Y-13245888D01*
X16623039Y-13245888D02*
X16613515Y-13226841D01*
X16613515Y-13226841D02*
X16594468Y-13217317D01*
X16594468Y-13217317D02*
X16565896Y-13217317D01*
X16565896Y-13217317D02*
X16546849Y-13207793D01*
X16546849Y-13207793D02*
X16537325Y-13188746D01*
X16537325Y-13188746D02*
X16537325Y-13179222D01*
X16537325Y-13179222D02*
X16546849Y-13160174D01*
X16546849Y-13160174D02*
X16565896Y-13150650D01*
X16565896Y-13150650D02*
X16594468Y-13150650D01*
X16594468Y-13150650D02*
X16613515Y-13160174D01*
X16737325Y-13283984D02*
X16718277Y-13274460D01*
X16718277Y-13274460D02*
X16708754Y-13255412D01*
X16708754Y-13255412D02*
X16708754Y-13083984D01*
X16842087Y-13283984D02*
X16823039Y-13274460D01*
X16823039Y-13274460D02*
X16813516Y-13264936D01*
X16813516Y-13264936D02*
X16803992Y-13245888D01*
X16803992Y-13245888D02*
X16803992Y-13188746D01*
X16803992Y-13188746D02*
X16813516Y-13169698D01*
X16813516Y-13169698D02*
X16823039Y-13160174D01*
X16823039Y-13160174D02*
X16842087Y-13150650D01*
X16842087Y-13150650D02*
X16870658Y-13150650D01*
X16870658Y-13150650D02*
X16889706Y-13160174D01*
X16889706Y-13160174D02*
X16899230Y-13169698D01*
X16899230Y-13169698D02*
X16908754Y-13188746D01*
X16908754Y-13188746D02*
X16908754Y-13245888D01*
X16908754Y-13245888D02*
X16899230Y-13264936D01*
X16899230Y-13264936D02*
X16889706Y-13274460D01*
X16889706Y-13274460D02*
X16870658Y-13283984D01*
X16870658Y-13283984D02*
X16842087Y-13283984D01*
X16965897Y-13150650D02*
X17042087Y-13150650D01*
X16994468Y-13083984D02*
X16994468Y-13255412D01*
X16994468Y-13255412D02*
X17003992Y-13274460D01*
X17003992Y-13274460D02*
X17023039Y-13283984D01*
X17023039Y-13283984D02*
X17042087Y-13283984D01*
X17089706Y-13360174D02*
X17099230Y-13350650D01*
X17099230Y-13350650D02*
X17118277Y-13322079D01*
X17118277Y-13322079D02*
X17127801Y-13303031D01*
X17127801Y-13303031D02*
X17137325Y-13274460D01*
X17137325Y-13274460D02*
X17146849Y-13226841D01*
X17146849Y-13226841D02*
X17146849Y-13188746D01*
X17146849Y-13188746D02*
X17137325Y-13141127D01*
X17137325Y-13141127D02*
X17127801Y-13112555D01*
X17127801Y-13112555D02*
X17118277Y-13093508D01*
X17118277Y-13093508D02*
X17099230Y-13064936D01*
X17099230Y-13064936D02*
X17089706Y-13055412D01*
X17451611Y-13360174D02*
X17442087Y-13350650D01*
X17442087Y-13350650D02*
X17423039Y-13322079D01*
X17423039Y-13322079D02*
X17413516Y-13303031D01*
X17413516Y-13303031D02*
X17403992Y-13274460D01*
X17403992Y-13274460D02*
X17394468Y-13226841D01*
X17394468Y-13226841D02*
X17394468Y-13188746D01*
X17394468Y-13188746D02*
X17403992Y-13141127D01*
X17403992Y-13141127D02*
X17413516Y-13112555D01*
X17413516Y-13112555D02*
X17423039Y-13093508D01*
X17423039Y-13093508D02*
X17442087Y-13064936D01*
X17442087Y-13064936D02*
X17451611Y-13055412D01*
X17527801Y-13150650D02*
X17527801Y-13283984D01*
X17527801Y-13169698D02*
X17537325Y-13160174D01*
X17537325Y-13160174D02*
X17556373Y-13150650D01*
X17556373Y-13150650D02*
X17584944Y-13150650D01*
X17584944Y-13150650D02*
X17603992Y-13160174D01*
X17603992Y-13160174D02*
X17613516Y-13179222D01*
X17613516Y-13179222D02*
X17613516Y-13283984D01*
X17737325Y-13283984D02*
X17718277Y-13274460D01*
X17718277Y-13274460D02*
X17708754Y-13264936D01*
X17708754Y-13264936D02*
X17699230Y-13245888D01*
X17699230Y-13245888D02*
X17699230Y-13188746D01*
X17699230Y-13188746D02*
X17708754Y-13169698D01*
X17708754Y-13169698D02*
X17718277Y-13160174D01*
X17718277Y-13160174D02*
X17737325Y-13150650D01*
X17737325Y-13150650D02*
X17765897Y-13150650D01*
X17765897Y-13150650D02*
X17784944Y-13160174D01*
X17784944Y-13160174D02*
X17794468Y-13169698D01*
X17794468Y-13169698D02*
X17803992Y-13188746D01*
X17803992Y-13188746D02*
X17803992Y-13245888D01*
X17803992Y-13245888D02*
X17794468Y-13264936D01*
X17794468Y-13264936D02*
X17784944Y-13274460D01*
X17784944Y-13274460D02*
X17765897Y-13283984D01*
X17765897Y-13283984D02*
X17737325Y-13283984D01*
X17861135Y-13150650D02*
X17937325Y-13150650D01*
X17889706Y-13083984D02*
X17889706Y-13255412D01*
X17889706Y-13255412D02*
X17899230Y-13274460D01*
X17899230Y-13274460D02*
X17918277Y-13283984D01*
X17918277Y-13283984D02*
X17937325Y-13283984D01*
X18156373Y-13150650D02*
X18156373Y-13350650D01*
X18156373Y-13160174D02*
X18175420Y-13150650D01*
X18175420Y-13150650D02*
X18213516Y-13150650D01*
X18213516Y-13150650D02*
X18232563Y-13160174D01*
X18232563Y-13160174D02*
X18242087Y-13169698D01*
X18242087Y-13169698D02*
X18251611Y-13188746D01*
X18251611Y-13188746D02*
X18251611Y-13245888D01*
X18251611Y-13245888D02*
X18242087Y-13264936D01*
X18242087Y-13264936D02*
X18232563Y-13274460D01*
X18232563Y-13274460D02*
X18213516Y-13283984D01*
X18213516Y-13283984D02*
X18175420Y-13283984D01*
X18175420Y-13283984D02*
X18156373Y-13274460D01*
X18365897Y-13283984D02*
X18346849Y-13274460D01*
X18346849Y-13274460D02*
X18337325Y-13255412D01*
X18337325Y-13255412D02*
X18337325Y-13083984D01*
X18527801Y-13283984D02*
X18527801Y-13179222D01*
X18527801Y-13179222D02*
X18518278Y-13160174D01*
X18518278Y-13160174D02*
X18499230Y-13150650D01*
X18499230Y-13150650D02*
X18461135Y-13150650D01*
X18461135Y-13150650D02*
X18442087Y-13160174D01*
X18527801Y-13274460D02*
X18508754Y-13283984D01*
X18508754Y-13283984D02*
X18461135Y-13283984D01*
X18461135Y-13283984D02*
X18442087Y-13274460D01*
X18442087Y-13274460D02*
X18432563Y-13255412D01*
X18432563Y-13255412D02*
X18432563Y-13236365D01*
X18432563Y-13236365D02*
X18442087Y-13217317D01*
X18442087Y-13217317D02*
X18461135Y-13207793D01*
X18461135Y-13207793D02*
X18508754Y-13207793D01*
X18508754Y-13207793D02*
X18527801Y-13198269D01*
X18594468Y-13150650D02*
X18670658Y-13150650D01*
X18623039Y-13083984D02*
X18623039Y-13255412D01*
X18623039Y-13255412D02*
X18632563Y-13274460D01*
X18632563Y-13274460D02*
X18651611Y-13283984D01*
X18651611Y-13283984D02*
X18670658Y-13283984D01*
X18813516Y-13274460D02*
X18794468Y-13283984D01*
X18794468Y-13283984D02*
X18756373Y-13283984D01*
X18756373Y-13283984D02*
X18737325Y-13274460D01*
X18737325Y-13274460D02*
X18727801Y-13255412D01*
X18727801Y-13255412D02*
X18727801Y-13179222D01*
X18727801Y-13179222D02*
X18737325Y-13160174D01*
X18737325Y-13160174D02*
X18756373Y-13150650D01*
X18756373Y-13150650D02*
X18794468Y-13150650D01*
X18794468Y-13150650D02*
X18813516Y-13160174D01*
X18813516Y-13160174D02*
X18823039Y-13179222D01*
X18823039Y-13179222D02*
X18823039Y-13198269D01*
X18823039Y-13198269D02*
X18727801Y-13217317D01*
X18994468Y-13283984D02*
X18994468Y-13083984D01*
X18994468Y-13274460D02*
X18975420Y-13283984D01*
X18975420Y-13283984D02*
X18937325Y-13283984D01*
X18937325Y-13283984D02*
X18918278Y-13274460D01*
X18918278Y-13274460D02*
X18908754Y-13264936D01*
X18908754Y-13264936D02*
X18899230Y-13245888D01*
X18899230Y-13245888D02*
X18899230Y-13188746D01*
X18899230Y-13188746D02*
X18908754Y-13169698D01*
X18908754Y-13169698D02*
X18918278Y-13160174D01*
X18918278Y-13160174D02*
X18937325Y-13150650D01*
X18937325Y-13150650D02*
X18975420Y-13150650D01*
X18975420Y-13150650D02*
X18994468Y-13160174D01*
X19070659Y-13360174D02*
X19080182Y-13350650D01*
X19080182Y-13350650D02*
X19099230Y-13322079D01*
X19099230Y-13322079D02*
X19108754Y-13303031D01*
X19108754Y-13303031D02*
X19118278Y-13274460D01*
X19118278Y-13274460D02*
X19127801Y-13226841D01*
X19127801Y-13226841D02*
X19127801Y-13188746D01*
X19127801Y-13188746D02*
X19118278Y-13141127D01*
X19118278Y-13141127D02*
X19108754Y-13112555D01*
X19108754Y-13112555D02*
X19099230Y-13093508D01*
X19099230Y-13093508D02*
X19080182Y-13064936D01*
X19080182Y-13064936D02*
X19070659Y-13055412D01*
M02*
