M48
; DRILL file {KiCad 9.0.6} date 2026-01-22T02:23:31+0530
; FORMAT={-:-/ absolute / metric / decimal}
; #@! TF.CreationDate,2026-01-22T02:23:31+05:30
; #@! TF.GenerationSoftware,Kicad,Pcbnew,9.0.6
; #@! TF.FileFunction,Plated,1,2,PTH
FMAT,2
METRIC
; #@! TA.AperFunction,Plated,PTH,ViaDrill
T1C0.300
; #@! TA.AperFunction,Plated,PTH,ComponentDrill
T2C0.400
; #@! TA.AperFunction,Plated,PTH,ComponentDrill
T3C0.500
; #@! TA.AperFunction,Plated,PTH,ComponentDrill
T4C1.400
%
G90
G05
T1
X111.7Y-98.527
X115.0Y-98.6
X115.9Y-107.212
X116.1Y-106.012
X117.0Y-110.7
X117.3Y-115.0
X118.204Y-102.655
X118.3Y-105.6
X118.786Y-110.4
X119.025Y-106.362
X119.8Y-98.527
X119.9Y-102.696
X121.0Y-119.6
X123.0Y-98.527
X123.6Y-108.9
X125.3Y-102.0
X126.9Y-109.3
X127.2Y-122.0
X127.7Y-101.9
X133.4Y-114.0
X138.5Y-116.5
T2
X114.392Y-112.41
X114.392Y-113.21
X114.392Y-114.01
X114.392Y-115.61
X114.392Y-116.41
X114.392Y-117.21
X115.093Y-112.01
X115.093Y-113.61
X115.093Y-114.41
X115.093Y-115.21
X115.093Y-116.01
X115.093Y-117.61
T4
X142.369Y-112.27
X142.369Y-117.35
T3
X110.402Y-110.32G85X109.802Y-110.32
G05
X110.402Y-119.3G85X109.802Y-119.3
G05
X114.802Y-110.68G85X114.203Y-110.68
G05
X114.802Y-118.94G85X114.203Y-118.94
G05
M30
