%TF.GenerationSoftware,KiCad,Pcbnew,9.0.6*%
%TF.CreationDate,2026-01-22T02:23:31+05:30*%
%TF.ProjectId,USB-PD-Trigger-Board,5553422d-5044-42d5-9472-69676765722d,rev?*%
%TF.SameCoordinates,Original*%
%TF.FileFunction,Soldermask,Bot*%
%TF.FilePolarity,Negative*%
%FSLAX45Y45*%
G04 Gerber Fmt 4.5, Leading zero omitted, Abs format (unit mm)*
G04 Created by KiCad (PCBNEW 9.0.6) date 2026-01-22 02:23:31*
%MOMM*%
%LPD*%
G01*
G04 APERTURE LIST*
G04 Aperture macros list*
%AMRoundRect*
0 Rectangle with rounded corners*
0 $1 Rounding radius*
0 $2 $3 $4 $5 $6 $7 $8 $9 X,Y pos of 4 corners*
0 Add a 4 corners polygon primitive as box body*
4,1,4,$2,$3,$4,$5,$6,$7,$8,$9,$2,$3,0*
0 Add four circle primitives for the rounded corners*
1,1,$1+$1,$2,$3*
1,1,$1+$1,$4,$5*
1,1,$1+$1,$6,$7*
1,1,$1+$1,$8,$9*
0 Add four rect primitives between the rounded corners*
20,1,$1+$1,$2,$3,$4,$5,0*
20,1,$1+$1,$4,$5,$6,$7,0*
20,1,$1+$1,$6,$7,$8,$9,0*
20,1,$1+$1,$8,$9,$2,$3,0*%
G04 Aperture macros list end*
%ADD10C,0.010000*%
%ADD11RoundRect,0.102000X1.050000X-1.050000X1.050000X1.050000X-1.050000X1.050000X-1.050000X-1.050000X0*%
%ADD12C,2.304000*%
%ADD13C,0.650000*%
%ADD14O,0.650000X0.950000*%
%ADD15C,0.804000*%
%ADD16O,1.604000X1.004000*%
G04 APERTURE END LIST*
D10*
%TO.C,J1*%
X11576450Y-11783600D02*
X11578650Y-11783700D01*
X11580850Y-11784000D01*
X11583050Y-11784400D01*
X11585250Y-11784900D01*
X11587350Y-11785600D01*
X11589450Y-11786300D01*
X11591550Y-11787200D01*
X11593550Y-11788100D01*
X11595550Y-11789200D01*
X11597350Y-11790400D01*
X11599250Y-11791600D01*
X11600950Y-11793000D01*
X11602650Y-11794400D01*
X11604350Y-11795900D01*
X11605850Y-11797600D01*
X11607250Y-11799300D01*
X11608650Y-11801000D01*
X11609850Y-11802900D01*
X11611050Y-11804700D01*
X11612150Y-11806700D01*
X11613050Y-11808700D01*
X11613950Y-11810800D01*
X11614650Y-11812900D01*
X11615350Y-11815000D01*
X11615850Y-11817200D01*
X11616250Y-11819400D01*
X11616550Y-11821600D01*
X11616650Y-11823800D01*
X11616750Y-11826000D01*
X11616750Y-11856000D01*
X11616650Y-11858200D01*
X11616550Y-11860400D01*
X11616250Y-11862600D01*
X11615850Y-11864800D01*
X11615350Y-11867000D01*
X11614650Y-11869100D01*
X11613950Y-11871200D01*
X11613050Y-11873300D01*
X11612150Y-11875300D01*
X11611050Y-11877200D01*
X11609850Y-11879100D01*
X11608650Y-11881000D01*
X11607250Y-11882700D01*
X11605850Y-11884400D01*
X11604350Y-11886100D01*
X11602650Y-11887600D01*
X11600950Y-11889000D01*
X11599250Y-11890400D01*
X11597350Y-11891600D01*
X11595550Y-11892800D01*
X11593550Y-11893900D01*
X11591550Y-11894800D01*
X11589450Y-11895700D01*
X11587350Y-11896400D01*
X11585250Y-11897100D01*
X11583050Y-11897600D01*
X11580850Y-11898000D01*
X11578650Y-11898300D01*
X11576450Y-11898400D01*
X11574250Y-11898500D01*
X11572050Y-11898400D01*
X11569850Y-11898300D01*
X11567650Y-11898000D01*
X11565450Y-11897600D01*
X11563250Y-11897100D01*
X11561150Y-11896400D01*
X11559050Y-11895700D01*
X11556950Y-11894800D01*
X11554950Y-11893900D01*
X11553050Y-11892800D01*
X11551150Y-11891600D01*
X11549250Y-11890400D01*
X11547550Y-11889000D01*
X11545850Y-11887600D01*
X11544150Y-11886100D01*
X11542650Y-11884400D01*
X11541250Y-11882700D01*
X11539850Y-11881000D01*
X11538650Y-11879100D01*
X11537450Y-11877200D01*
X11536350Y-11875300D01*
X11535450Y-11873300D01*
X11534550Y-11871200D01*
X11533850Y-11869100D01*
X11533150Y-11867000D01*
X11532650Y-11864800D01*
X11532250Y-11862600D01*
X11531950Y-11860400D01*
X11531850Y-11858200D01*
X11531750Y-11856000D01*
X11531750Y-11826000D01*
X11531850Y-11823800D01*
X11531950Y-11821600D01*
X11532250Y-11819400D01*
X11532650Y-11817200D01*
X11533150Y-11815000D01*
X11533850Y-11812900D01*
X11534550Y-11810800D01*
X11535450Y-11808700D01*
X11536350Y-11806700D01*
X11537450Y-11804700D01*
X11538650Y-11802900D01*
X11539850Y-11801000D01*
X11541250Y-11799300D01*
X11542650Y-11797600D01*
X11544150Y-11795900D01*
X11545850Y-11794400D01*
X11547550Y-11793000D01*
X11549250Y-11791600D01*
X11551150Y-11790400D01*
X11553050Y-11789200D01*
X11554950Y-11788100D01*
X11556950Y-11787200D01*
X11559050Y-11786300D01*
X11561150Y-11785600D01*
X11563250Y-11784900D01*
X11565450Y-11784400D01*
X11567650Y-11784000D01*
X11569850Y-11783700D01*
X11572050Y-11783600D01*
X11574250Y-11783500D01*
X11576450Y-11783600D01*
G36*
X11576450Y-11783600D02*
G01*
X11578650Y-11783700D01*
X11580850Y-11784000D01*
X11583050Y-11784400D01*
X11585250Y-11784900D01*
X11587350Y-11785600D01*
X11589450Y-11786300D01*
X11591550Y-11787200D01*
X11593550Y-11788100D01*
X11595550Y-11789200D01*
X11597350Y-11790400D01*
X11599250Y-11791600D01*
X11600950Y-11793000D01*
X11602650Y-11794400D01*
X11604350Y-11795900D01*
X11605850Y-11797600D01*
X11607250Y-11799300D01*
X11608650Y-11801000D01*
X11609850Y-11802900D01*
X11611050Y-11804700D01*
X11612150Y-11806700D01*
X11613050Y-11808700D01*
X11613950Y-11810800D01*
X11614650Y-11812900D01*
X11615350Y-11815000D01*
X11615850Y-11817200D01*
X11616250Y-11819400D01*
X11616550Y-11821600D01*
X11616650Y-11823800D01*
X11616750Y-11826000D01*
X11616750Y-11856000D01*
X11616650Y-11858200D01*
X11616550Y-11860400D01*
X11616250Y-11862600D01*
X11615850Y-11864800D01*
X11615350Y-11867000D01*
X11614650Y-11869100D01*
X11613950Y-11871200D01*
X11613050Y-11873300D01*
X11612150Y-11875300D01*
X11611050Y-11877200D01*
X11609850Y-11879100D01*
X11608650Y-11881000D01*
X11607250Y-11882700D01*
X11605850Y-11884400D01*
X11604350Y-11886100D01*
X11602650Y-11887600D01*
X11600950Y-11889000D01*
X11599250Y-11890400D01*
X11597350Y-11891600D01*
X11595550Y-11892800D01*
X11593550Y-11893900D01*
X11591550Y-11894800D01*
X11589450Y-11895700D01*
X11587350Y-11896400D01*
X11585250Y-11897100D01*
X11583050Y-11897600D01*
X11580850Y-11898000D01*
X11578650Y-11898300D01*
X11576450Y-11898400D01*
X11574250Y-11898500D01*
X11572050Y-11898400D01*
X11569850Y-11898300D01*
X11567650Y-11898000D01*
X11565450Y-11897600D01*
X11563250Y-11897100D01*
X11561150Y-11896400D01*
X11559050Y-11895700D01*
X11556950Y-11894800D01*
X11554950Y-11893900D01*
X11553050Y-11892800D01*
X11551150Y-11891600D01*
X11549250Y-11890400D01*
X11547550Y-11889000D01*
X11545850Y-11887600D01*
X11544150Y-11886100D01*
X11542650Y-11884400D01*
X11541250Y-11882700D01*
X11539850Y-11881000D01*
X11538650Y-11879100D01*
X11537450Y-11877200D01*
X11536350Y-11875300D01*
X11535450Y-11873300D01*
X11534550Y-11871200D01*
X11533850Y-11869100D01*
X11533150Y-11867000D01*
X11532650Y-11864800D01*
X11532250Y-11862600D01*
X11531950Y-11860400D01*
X11531850Y-11858200D01*
X11531750Y-11856000D01*
X11531750Y-11826000D01*
X11531850Y-11823800D01*
X11531950Y-11821600D01*
X11532250Y-11819400D01*
X11532650Y-11817200D01*
X11533150Y-11815000D01*
X11533850Y-11812900D01*
X11534550Y-11810800D01*
X11535450Y-11808700D01*
X11536350Y-11806700D01*
X11537450Y-11804700D01*
X11538650Y-11802900D01*
X11539850Y-11801000D01*
X11541250Y-11799300D01*
X11542650Y-11797600D01*
X11544150Y-11795900D01*
X11545850Y-11794400D01*
X11547550Y-11793000D01*
X11549250Y-11791600D01*
X11551150Y-11790400D01*
X11553050Y-11789200D01*
X11554950Y-11788100D01*
X11556950Y-11787200D01*
X11559050Y-11786300D01*
X11561150Y-11785600D01*
X11563250Y-11784900D01*
X11565450Y-11784400D01*
X11567650Y-11784000D01*
X11569850Y-11783700D01*
X11572050Y-11783600D01*
X11574250Y-11783500D01*
X11576450Y-11783600D01*
G37*
%TD*%
D11*
%TO.C,J2*%
X14236900Y-11735000D03*
D12*
X14236900Y-11227000D03*
%TD*%
D13*
%TO.C,J1*%
X11574250Y-11121000D03*
D14*
X11574250Y-11841000D03*
D15*
X11509250Y-11761000D03*
X11439250Y-11721000D03*
X11439250Y-11641000D03*
X11509250Y-11601000D03*
X11439250Y-11561000D03*
X11509250Y-11521000D03*
X11509250Y-11441000D03*
X11439250Y-11401000D03*
X11509250Y-11361000D03*
X11439250Y-11321000D03*
X11439250Y-11241000D03*
X11509250Y-11201000D03*
D16*
X11450250Y-11068000D03*
X11450250Y-11894000D03*
X11010250Y-11032000D03*
X11010250Y-11930000D03*
%TD*%
M02*
