%TF.GenerationSoftware,KiCad,Pcbnew,9.0.6*%
%TF.CreationDate,2026-01-22T02:23:31+05:30*%
%TF.ProjectId,USB-PD-Trigger-Board,5553422d-5044-42d5-9472-69676765722d,rev?*%
%TF.SameCoordinates,Original*%
%TF.FileFunction,Copper,L1,Top*%
%TF.FilePolarity,Positive*%
%FSLAX45Y45*%
G04 Gerber Fmt 4.5, Leading zero omitted, Abs format (unit mm)*
G04 Created by KiCad (PCBNEW 9.0.6) date 2026-01-22 02:23:31*
%MOMM*%
%LPD*%
G01*
G04 APERTURE LIST*
G04 Aperture macros list*
%AMRoundRect*
0 Rectangle with rounded corners*
0 $1 Rounding radius*
0 $2 $3 $4 $5 $6 $7 $8 $9 X,Y pos of 4 corners*
0 Add a 4 corners polygon primitive as box body*
4,1,4,$2,$3,$4,$5,$6,$7,$8,$9,$2,$3,0*
0 Add four circle primitives for the rounded corners*
1,1,$1+$1,$2,$3*
1,1,$1+$1,$4,$5*
1,1,$1+$1,$6,$7*
1,1,$1+$1,$8,$9*
0 Add four rect primitives between the rounded corners*
20,1,$1+$1,$2,$3,$4,$5,0*
20,1,$1+$1,$4,$5,$6,$7,0*
20,1,$1+$1,$6,$7,$8,$9,0*
20,1,$1+$1,$8,$9,$2,$3,0*%
G04 Aperture macros list end*
%TA.AperFunction,SMDPad,CuDef*%
%ADD10RoundRect,0.237500X0.250000X0.237500X-0.250000X0.237500X-0.250000X-0.237500X0.250000X-0.237500X0*%
%TD*%
%TA.AperFunction,SMDPad,CuDef*%
%ADD11R,0.700000X1.525000*%
%TD*%
%TA.AperFunction,SMDPad,CuDef*%
%ADD12RoundRect,0.237500X-0.237500X0.250000X-0.237500X-0.250000X0.237500X-0.250000X0.237500X0.250000X0*%
%TD*%
%TA.AperFunction,SMDPad,CuDef*%
%ADD13RoundRect,0.237500X0.237500X-0.287500X0.237500X0.287500X-0.237500X0.287500X-0.237500X-0.287500X0*%
%TD*%
%TA.AperFunction,SMDPad,CuDef*%
%ADD14RoundRect,0.237500X0.237500X-0.250000X0.237500X0.250000X-0.237500X0.250000X-0.237500X-0.250000X0*%
%TD*%
%TA.AperFunction,SMDPad,CuDef*%
%ADD15RoundRect,0.250000X1.100000X-0.412500X1.100000X0.412500X-1.100000X0.412500X-1.100000X-0.412500X0*%
%TD*%
%TA.AperFunction,ComponentPad*%
%ADD16R,2.100000X2.100000*%
%TD*%
%TA.AperFunction,ComponentPad*%
%ADD17C,2.100000*%
%TD*%
%TA.AperFunction,SMDPad,CuDef*%
%ADD18RoundRect,0.237500X-0.237500X0.300000X-0.237500X-0.300000X0.237500X-0.300000X0.237500X0.300000X0*%
%TD*%
%TA.AperFunction,SMDPad,CuDef*%
%ADD19RoundRect,0.225000X0.225000X0.375000X-0.225000X0.375000X-0.225000X-0.375000X0.225000X-0.375000X0*%
%TD*%
%TA.AperFunction,SMDPad,CuDef*%
%ADD20R,0.900000X0.300000*%
%TD*%
%TA.AperFunction,ComponentPad*%
%ADD21C,0.600000*%
%TD*%
%TA.AperFunction,ComponentPad*%
%ADD22O,1.400000X0.800000*%
%TD*%
%TA.AperFunction,SMDPad,CuDef*%
%ADD23RoundRect,0.250000X0.475000X-0.337500X0.475000X0.337500X-0.475000X0.337500X-0.475000X-0.337500X0*%
%TD*%
%TA.AperFunction,SMDPad,CuDef*%
%ADD24R,0.550000X0.900000*%
%TD*%
%TA.AperFunction,SMDPad,CuDef*%
%ADD25RoundRect,0.150000X0.150000X-0.587500X0.150000X0.587500X-0.150000X0.587500X-0.150000X-0.587500X0*%
%TD*%
%TA.AperFunction,SMDPad,CuDef*%
%ADD26RoundRect,0.237500X-0.250000X-0.237500X0.250000X-0.237500X0.250000X0.237500X-0.250000X0.237500X0*%
%TD*%
%TA.AperFunction,SMDPad,CuDef*%
%ADD27RoundRect,0.250000X-0.337500X-0.475000X0.337500X-0.475000X0.337500X0.475000X-0.337500X0.475000X0*%
%TD*%
%TA.AperFunction,SMDPad,CuDef*%
%ADD28C,1.000000*%
%TD*%
%TA.AperFunction,SMDPad,CuDef*%
%ADD29RoundRect,0.250000X-0.475000X0.337500X-0.475000X-0.337500X0.475000X-0.337500X0.475000X0.337500X0*%
%TD*%
%TA.AperFunction,SMDPad,CuDef*%
%ADD30RoundRect,0.250000X-1.100000X0.412500X-1.100000X-0.412500X1.100000X-0.412500X1.100000X0.412500X0*%
%TD*%
%TA.AperFunction,SMDPad,CuDef*%
%ADD31RoundRect,0.062500X-0.062500X0.337500X-0.062500X-0.337500X0.062500X-0.337500X0.062500X0.337500X0*%
%TD*%
%TA.AperFunction,SMDPad,CuDef*%
%ADD32RoundRect,0.062500X-0.337500X0.062500X-0.337500X-0.062500X0.337500X-0.062500X0.337500X0.062500X0*%
%TD*%
%TA.AperFunction,HeatsinkPad*%
%ADD33R,2.750000X2.750000*%
%TD*%
%TA.AperFunction,ViaPad*%
%ADD34C,0.600000*%
%TD*%
%TA.AperFunction,Conductor*%
%ADD35C,0.200000*%
%TD*%
%TA.AperFunction,Conductor*%
%ADD36C,0.254000*%
%TD*%
G04 APERTURE END LIST*
D10*
%TO.P,R15,1*%
%TO.N,Net-(Q3A-G1)*%
X13041250Y-12200000D03*
%TO.P,R15,2*%
%TO.N,Net-(U1-SAFE_PWR_EN)*%
X12858750Y-12200000D03*
%TD*%
D11*
%TO.P,Q1,1,S2*%
%TO.N,Net-(D1-K)*%
X13260500Y-10858800D03*
%TO.P,Q1,2,G2*%
%TO.N,Net-(D1-A)*%
X13133500Y-10858800D03*
%TO.P,Q1,3,S1*%
%TO.N,Net-(D1-K)*%
X13006500Y-10858800D03*
%TO.P,Q1,4,G1*%
%TO.N,Net-(D1-A)*%
X12879500Y-10858800D03*
%TO.P,Q1,5,D1_1*%
%TO.N,VCC_USB_PD_IN*%
X12879500Y-11401200D03*
%TO.P,Q1,6,D1_2*%
X13006500Y-11401200D03*
%TO.P,Q1,7,D2_1*%
%TO.N,VCC_USB_PD_OUT*%
X13133500Y-11401200D03*
%TO.P,Q1,8,D2_2*%
X13260500Y-11401200D03*
%TD*%
D10*
%TO.P,R3,1*%
%TO.N,Net-(U1-FLIP)*%
X11461250Y-10660000D03*
%TO.P,R3,2*%
%TO.N,V3P3*%
X11278750Y-10660000D03*
%TD*%
D12*
%TO.P,R6,1*%
%TO.N,GND*%
X11500000Y-9980000D03*
%TO.P,R6,2*%
%TO.N,Net-(U1-ISNK_COARSE)*%
X11500000Y-10162500D03*
%TD*%
D13*
%TO.P,D3,1,K*%
%TO.N,Net-(D3-K)*%
X13520000Y-11807500D03*
%TO.P,D3,2,A*%
%TO.N,VCC_USB_SAFE_5V*%
X13520000Y-11632500D03*
%TD*%
D14*
%TO.P,R19,1*%
%TO.N,Net-(D3-K)*%
X13740000Y-11811250D03*
%TO.P,R19,2*%
%TO.N,GND*%
X13740000Y-11628750D03*
%TD*%
D15*
%TO.P,C8,1*%
%TO.N,VCC_USB_PD_OUT*%
X13790000Y-11406250D03*
%TO.P,C8,2*%
%TO.N,GND*%
X13790000Y-11093750D03*
%TD*%
D12*
%TO.P,R2,1*%
%TO.N,Net-(J1-CC1)*%
X11880000Y-11438750D03*
%TO.P,R2,2*%
%TO.N,GND*%
X11880000Y-11621250D03*
%TD*%
D14*
%TO.P,R14,1*%
%TO.N,Net-(U1-VBUS_MIN)*%
X12300000Y-10162500D03*
%TO.P,R14,2*%
%TO.N,GND*%
X12300000Y-9980000D03*
%TD*%
D16*
%TO.P,J2,1,1*%
%TO.N,VCC_USB_PD_OUT*%
X14236900Y-11735000D03*
D17*
%TO.P,J2,2,2*%
%TO.N,GND*%
X14236900Y-11227000D03*
%TD*%
D14*
%TO.P,R12,1*%
%TO.N,Net-(U1-VBUS_MAX)*%
X11980000Y-10162500D03*
%TO.P,R12,2*%
%TO.N,GND*%
X11980000Y-9980000D03*
%TD*%
D18*
%TO.P,C4,1*%
%TO.N,V3P3*%
X12310000Y-10565000D03*
%TO.P,C4,2*%
%TO.N,GND*%
X12310000Y-10737500D03*
%TD*%
D19*
%TO.P,D1,1,K*%
%TO.N,Net-(D1-K)*%
X13225000Y-10400000D03*
%TO.P,D1,2,A*%
%TO.N,Net-(D1-A)*%
X12895000Y-10400000D03*
%TD*%
D20*
%TO.P,J1,A1,GND_A*%
%TO.N,GND*%
X11630250Y-11206000D03*
%TO.P,J1,A2,SSTXP1*%
%TO.N,unconnected-(J1-SSTXP1-PadA2)*%
X11630250Y-11256000D03*
%TO.P,J1,A3,SSTXN1*%
%TO.N,unconnected-(J1-SSTXN1-PadA3)*%
X11630250Y-11306000D03*
%TO.P,J1,A4,VBUS_A*%
%TO.N,VCC_USB_PD_IN*%
X11630250Y-11356000D03*
%TO.P,J1,A5,CC1*%
%TO.N,Net-(J1-CC1)*%
X11630250Y-11406000D03*
%TO.P,J1,A6,DP1*%
%TO.N,unconnected-(J1-DP1-PadA6)*%
X11630250Y-11456000D03*
%TO.P,J1,A7,DN1*%
%TO.N,unconnected-(J1-DN1-PadA7)*%
X11630250Y-11506000D03*
%TO.P,J1,A8,SBU1*%
%TO.N,unconnected-(J1-SBU1-PadA8)*%
X11630250Y-11556000D03*
%TO.P,J1,A9,VBUS_A*%
%TO.N,VCC_USB_PD_IN*%
X11630250Y-11606000D03*
%TO.P,J1,A10,SSRXN2*%
%TO.N,unconnected-(J1-SSRXN2-PadA10)*%
X11630250Y-11656000D03*
%TO.P,J1,A11,SSRXP2*%
%TO.N,unconnected-(J1-SSRXP2-PadA11)*%
X11630250Y-11706000D03*
%TO.P,J1,A12,GND_A*%
%TO.N,GND*%
X11630250Y-11756000D03*
D21*
%TO.P,J1,B1,GND_B*%
X11509250Y-11761000D03*
%TO.P,J1,B2,SSTXP2*%
%TO.N,unconnected-(J1-SSTXP2-PadB2)*%
X11439250Y-11721000D03*
%TO.P,J1,B3,SSTXN2*%
%TO.N,unconnected-(J1-SSTXN2-PadB3)*%
X11439250Y-11641000D03*
%TO.P,J1,B4,VBUS_B*%
%TO.N,VCC_USB_PD_IN*%
X11509250Y-11601000D03*
%TO.P,J1,B5,CC2*%
%TO.N,Net-(J1-CC2)*%
X11439250Y-11561000D03*
%TO.P,J1,B6,DP2*%
%TO.N,unconnected-(J1-DP2-PadB6)*%
X11509250Y-11521000D03*
%TO.P,J1,B7,DN2*%
%TO.N,unconnected-(J1-DN2-PadB7)*%
X11509250Y-11441000D03*
%TO.P,J1,B8,SBU2*%
%TO.N,unconnected-(J1-SBU2-PadB8)*%
X11439250Y-11401000D03*
%TO.P,J1,B9,VBUS_B*%
%TO.N,VCC_USB_PD_IN*%
X11509250Y-11361000D03*
%TO.P,J1,B10,SSRXN1*%
%TO.N,unconnected-(J1-SSRXN1-PadB10)*%
X11439250Y-11321000D03*
%TO.P,J1,B11,SSRXP1*%
%TO.N,unconnected-(J1-SSRXP1-PadB11)*%
X11439250Y-11241000D03*
%TO.P,J1,B12,GND_B*%
%TO.N,GND*%
X11509250Y-11201000D03*
D22*
%TO.P,J1,S1,SHELL_GND*%
X11450250Y-11068000D03*
%TO.P,J1,S2,SHELL_GND*%
X11450250Y-11894000D03*
%TO.P,J1,S3,SHELL_GND*%
X11010250Y-11032000D03*
%TO.P,J1,S4,SHELL_GND*%
X11010250Y-11930000D03*
%TD*%
D23*
%TO.P,C6,1*%
%TO.N,VCC_USB_PD_OUT*%
X13490000Y-11407500D03*
%TO.P,C6,2*%
%TO.N,Net-(D1-A)*%
X13490000Y-11200000D03*
%TD*%
D24*
%TO.P,Q3,1,G1*%
%TO.N,Net-(Q3A-G1)*%
X12930000Y-11860000D03*
%TO.P,Q3,2,S2*%
%TO.N,Net-(Q3A-D1)*%
X13025000Y-11860000D03*
%TO.P,Q3,3,G2*%
%TO.N,Net-(Q3A-G1)*%
X13120000Y-11860000D03*
%TO.P,Q3,4,D2*%
%TO.N,VCC_USB_SAFE_5V*%
X13120000Y-11620000D03*
%TO.P,Q3,5,S1*%
%TO.N,VCC_USB_PD_IN*%
X13025000Y-11620000D03*
%TO.P,Q3,6,D1*%
%TO.N,Net-(Q3A-D1)*%
X12930000Y-11620000D03*
%TD*%
D14*
%TO.P,R4,1*%
%TO.N,VCC_USB_PD_IN*%
X12660000Y-11331250D03*
%TO.P,R4,2*%
%TO.N,Net-(D1-A)*%
X12660000Y-11148750D03*
%TD*%
D25*
%TO.P,Q2,1,G*%
%TO.N,Net-(Q2-G)*%
X12115000Y-12113750D03*
%TO.P,Q2,2,S*%
%TO.N,GND*%
X12305000Y-12113750D03*
%TO.P,Q2,3,D*%
%TO.N,Net-(Q2-D)*%
X12210000Y-11926250D03*
%TD*%
D18*
%TO.P,C5,1*%
%TO.N,V3P3*%
X12480000Y-10565000D03*
%TO.P,C5,2*%
%TO.N,GND*%
X12480000Y-10737500D03*
%TD*%
D12*
%TO.P,R5,1*%
%TO.N,V3P3*%
X11660000Y-9980000D03*
%TO.P,R5,2*%
%TO.N,Net-(U1-ISNK_COARSE)*%
X11660000Y-10162500D03*
%TD*%
D26*
%TO.P,R18,1*%
%TO.N,VCC_USB_PD_IN*%
X12858750Y-12030000D03*
%TO.P,R18,2*%
%TO.N,Net-(Q3A-G1)*%
X13041250Y-12030000D03*
%TD*%
D10*
%TO.P,R10,1*%
%TO.N,Net-(D1-K)*%
X13081250Y-10600000D03*
%TO.P,R10,2*%
%TO.N,Net-(D1-A)*%
X12898750Y-10600000D03*
%TD*%
D27*
%TO.P,C3,1*%
%TO.N,Net-(U1-VCCD)*%
X12316250Y-10361250D03*
%TO.P,C3,2*%
%TO.N,GND*%
X12523750Y-10361250D03*
%TD*%
D12*
%TO.P,R8,1*%
%TO.N,GND*%
X11170000Y-9980000D03*
%TO.P,R8,2*%
%TO.N,Net-(U1-ISNK_FINE)*%
X11170000Y-10162500D03*
%TD*%
D26*
%TO.P,R16,1*%
%TO.N,Net-(Q2-G)*%
X12118750Y-12300000D03*
%TO.P,R16,2*%
%TO.N,GND*%
X12301250Y-12300000D03*
%TD*%
D10*
%TO.P,R9,1*%
%TO.N,Net-(D1-A)*%
X13081250Y-10180000D03*
%TO.P,R9,2*%
%TO.N,Net-(U1-VBUS_FET_EN)*%
X12898750Y-10180000D03*
%TD*%
D28*
%TO.P,TP1,1,1*%
%TO.N,VCC_USB_PD_IN*%
X12220000Y-11070000D03*
%TD*%
D23*
%TO.P,C2,1*%
%TO.N,VCC_USB_PD_IN*%
X12440000Y-11327500D03*
%TO.P,C2,2*%
%TO.N,Net-(D1-A)*%
X12440000Y-11120000D03*
%TD*%
D14*
%TO.P,R13,1*%
%TO.N,Net-(U1-VBUS_MIN)*%
X12140000Y-10162500D03*
%TO.P,R13,2*%
%TO.N,V3P3*%
X12140000Y-9980000D03*
%TD*%
D29*
%TO.P,C7,1*%
%TO.N,V3P3*%
X12670000Y-10567500D03*
%TO.P,C7,2*%
%TO.N,GND*%
X12670000Y-10775000D03*
%TD*%
D30*
%TO.P,C1,1*%
%TO.N,VCC_USB_PD_IN*%
X12150000Y-11383750D03*
%TO.P,C1,2*%
%TO.N,GND*%
X12150000Y-11696250D03*
%TD*%
D10*
%TO.P,R17,1*%
%TO.N,Net-(D2-K)*%
X12661250Y-12030000D03*
%TO.P,R17,2*%
%TO.N,Net-(Q2-D)*%
X12478750Y-12030000D03*
%TD*%
D12*
%TO.P,R7,1*%
%TO.N,V3P3*%
X11330000Y-9980000D03*
%TO.P,R7,2*%
%TO.N,Net-(U1-ISNK_FINE)*%
X11330000Y-10162500D03*
%TD*%
D26*
%TO.P,R1,1*%
%TO.N,Net-(J1-CC2)*%
X11278750Y-10840000D03*
%TO.P,R1,2*%
%TO.N,GND*%
X11461250Y-10840000D03*
%TD*%
D14*
%TO.P,R11,1*%
%TO.N,Net-(U1-VBUS_MAX)*%
X11820000Y-10162500D03*
%TO.P,R11,2*%
%TO.N,V3P3*%
X11820000Y-9980000D03*
%TD*%
D31*
%TO.P,U1,1,VBUS_MIN*%
%TO.N,Net-(U1-VBUS_MIN)*%
X12027500Y-10438750D03*
%TO.P,U1,2,VBUS_MAX*%
%TO.N,Net-(U1-VBUS_MAX)*%
X11977500Y-10438750D03*
%TO.P,U1,3,VBUS_FET_EN*%
%TO.N,Net-(U1-VBUS_FET_EN)*%
X11927500Y-10438750D03*
%TO.P,U1,4,SAFE_PWR_EN*%
%TO.N,Net-(U1-SAFE_PWR_EN)*%
X11877500Y-10438750D03*
%TO.P,U1,5,ISNK_COARSE*%
%TO.N,Net-(U1-ISNK_COARSE)*%
X11827500Y-10438750D03*
%TO.P,U1,6,ISNK_FINE*%
%TO.N,Net-(U1-ISNK_FINE)*%
X11777500Y-10438750D03*
D32*
%TO.P,U1,7,~{HPI_INT}*%
%TO.N,unconnected-(U1-~{HPI_INT}-Pad7)*%
X11705000Y-10511250D03*
%TO.P,U1,8,GPIO_1*%
%TO.N,unconnected-(U1-GPIO_1-Pad8)*%
X11705000Y-10561250D03*
%TO.P,U1,9,FAULT*%
%TO.N,Net-(Q2-G)*%
X11705000Y-10611250D03*
%TO.P,U1,10,FLIP*%
%TO.N,Net-(U1-FLIP)*%
X11705000Y-10661250D03*
%TO.P,U1,11,VDC_OUT*%
%TO.N,VCC_USB_PD_OUT*%
X11705000Y-10711250D03*
%TO.P,U1,12,HPI_SDA*%
%TO.N,unconnected-(U1-HPI_SDA-Pad12)*%
X11705000Y-10761250D03*
D31*
%TO.P,U1,13,HPI_SCL*%
%TO.N,unconnected-(U1-HPI_SCL-Pad13)*%
X11777500Y-10833750D03*
%TO.P,U1,14,CC2*%
%TO.N,Net-(J1-CC2)*%
X11827500Y-10833750D03*
%TO.P,U1,15,CC1*%
%TO.N,Net-(J1-CC1)*%
X11877500Y-10833750D03*
%TO.P,U1,16,D-*%
%TO.N,unconnected-(U1-D--Pad16)*%
X11927500Y-10833750D03*
%TO.P,U1,17,D+*%
%TO.N,unconnected-(U1-D+-Pad17)*%
X11977500Y-10833750D03*
%TO.P,U1,18,VBUS_IN*%
%TO.N,VCC_USB_PD_IN*%
X12027500Y-10833750D03*
D32*
%TO.P,U1,19,GND*%
%TO.N,GND*%
X12100000Y-10761250D03*
%TO.P,U1,20,NC*%
%TO.N,unconnected-(U1-NC-Pad20)*%
X12100000Y-10711250D03*
%TO.P,U1,21,NC*%
%TO.N,unconnected-(U1-NC-Pad21)*%
X12100000Y-10661250D03*
%TO.P,U1,22,GND*%
%TO.N,GND*%
X12100000Y-10611250D03*
%TO.P,U1,23,VDDD*%
%TO.N,V3P3*%
X12100000Y-10561250D03*
%TO.P,U1,24,VCCD*%
%TO.N,Net-(U1-VCCD)*%
X12100000Y-10511250D03*
D33*
%TO.P,U1,25,GND*%
%TO.N,GND*%
X11902500Y-10636250D03*
%TD*%
D13*
%TO.P,D2,1,K*%
%TO.N,Net-(D2-K)*%
X12480000Y-11847500D03*
%TO.P,D2,2,A*%
%TO.N,VCC_USB_PD_IN*%
X12480000Y-11672500D03*
%TD*%
D34*
%TO.N,GND*%
X11170000Y-9852700D03*
X12530000Y-10200000D03*
X11700000Y-11070000D03*
X12360000Y-10890000D03*
X11902500Y-10636250D03*
X13850000Y-11650000D03*
X11500000Y-9860000D03*
X12690000Y-10930000D03*
X11830000Y-10560000D03*
X11980000Y-9852700D03*
X12300000Y-9852700D03*
%TO.N,VCC_USB_PD_OUT*%
X11590000Y-10721250D03*
X13340000Y-11400000D03*
%TO.N,Net-(J1-CC1)*%
X11878600Y-11040000D03*
X11730000Y-11500000D03*
%TO.N,Net-(Q2-G)*%
X11610000Y-10601250D03*
X12100000Y-11960000D03*
%TO.N,Net-(U1-VBUS_FET_EN)*%
X12770000Y-10190000D03*
X11990000Y-10269558D03*
%TO.N,Net-(U1-SAFE_PWR_EN)*%
X11820374Y-10265521D03*
X12720000Y-12200000D03*
%TD*%
D35*
%TO.N,GND*%
X13828750Y-11628750D02*
X13850000Y-11650000D01*
X12100000Y-10761250D02*
X12188750Y-10761250D01*
X12310000Y-10737500D02*
X12310000Y-10840000D01*
X12547500Y-10737500D02*
X12480000Y-10737500D01*
X11509250Y-11201000D02*
X11625250Y-11201000D01*
X11902500Y-10636250D02*
X11946250Y-10636250D01*
X11625250Y-11201000D02*
X11630250Y-11206000D01*
X11500000Y-9980000D02*
X11500000Y-9860000D01*
X12310000Y-10840000D02*
X12360000Y-10890000D01*
X12523750Y-10361250D02*
X12523750Y-10206250D01*
X13740000Y-11628750D02*
X13828750Y-11628750D01*
X12585000Y-10775000D02*
X12547500Y-10737500D01*
X12670000Y-10775000D02*
X12585000Y-10775000D01*
X12027500Y-10761250D02*
X11902500Y-10636250D01*
X11896250Y-11696250D02*
X12150000Y-11696250D01*
X12100000Y-10761250D02*
X12027500Y-10761250D01*
X12310000Y-10737500D02*
X12480000Y-10737500D01*
X11971250Y-10611250D02*
X12100000Y-10611250D01*
X11170000Y-9980000D02*
X11170000Y-9852700D01*
X11880000Y-11621250D02*
X11880000Y-11680000D01*
X12212500Y-10737500D02*
X12310000Y-10737500D01*
X12670000Y-10775000D02*
X12670000Y-10910000D01*
X12188750Y-10761250D02*
X12212500Y-10737500D01*
X11880000Y-11680000D02*
X11896250Y-11696250D01*
X12670000Y-10910000D02*
X12690000Y-10930000D01*
X11946250Y-10636250D02*
X11971250Y-10611250D01*
X11980000Y-9980000D02*
X11980000Y-9852700D01*
X12523750Y-10206250D02*
X12530000Y-10200000D01*
X12300000Y-9980000D02*
X12300000Y-9852700D01*
%TO.N,VCC_USB_PD_IN*%
X12858750Y-12030000D02*
X12858750Y-11958750D01*
X12080000Y-11000000D02*
X12150000Y-11000000D01*
X12220000Y-11070000D02*
X12220000Y-11313750D01*
X12027500Y-10833750D02*
X12027500Y-10947500D01*
X12858750Y-11958750D02*
X12820000Y-11920000D01*
X12150000Y-11000000D02*
X12220000Y-11070000D01*
X11625250Y-11601000D02*
X11630250Y-11606000D01*
X12790000Y-11890000D02*
X12790000Y-11720000D01*
X11625250Y-11361000D02*
X11630250Y-11356000D01*
X12027500Y-10947500D02*
X12080000Y-11000000D01*
X11509250Y-11601000D02*
X11625250Y-11601000D01*
X12820000Y-11920000D02*
X12790000Y-11890000D01*
X12220000Y-11313750D02*
X12150000Y-11383750D01*
X11509250Y-11361000D02*
X11625250Y-11361000D01*
%TO.N,Net-(D1-A)*%
X13001250Y-11200000D02*
X12950000Y-11148750D01*
X12660000Y-11148750D02*
X12811250Y-11148750D01*
X12898750Y-10600000D02*
X12898750Y-10701250D01*
X13133500Y-10858800D02*
X13133500Y-11096500D01*
X12895000Y-10596250D02*
X12898750Y-10600000D01*
X13133500Y-11096500D02*
X13081250Y-11148750D01*
X12440000Y-11120000D02*
X12560000Y-11120000D01*
X12588750Y-11148750D02*
X12660000Y-11148750D01*
X12898750Y-10701250D02*
X12879500Y-10720500D01*
X12879500Y-10720500D02*
X12879500Y-10858800D01*
X12895000Y-10400000D02*
X12990000Y-10400000D01*
X13081250Y-11148750D02*
X12950000Y-11148750D01*
X13081250Y-10308750D02*
X13081250Y-10180000D01*
X13490000Y-11200000D02*
X13001250Y-11200000D01*
X12560000Y-11120000D02*
X12588750Y-11148750D01*
X12895000Y-10400000D02*
X12895000Y-10596250D01*
X12950000Y-11148750D02*
X12660000Y-11148750D01*
X12879500Y-11080500D02*
X12879500Y-10858800D01*
X12811250Y-11148750D02*
X12879500Y-11080500D01*
X12990000Y-10400000D02*
X13081250Y-10308750D01*
D36*
%TO.N,Net-(U1-VCCD)*%
X12158750Y-10511250D02*
X12190000Y-10480000D01*
X12190000Y-10480000D02*
X12190000Y-10390000D01*
X12190000Y-10390000D02*
X12218750Y-10361250D01*
X12218750Y-10361250D02*
X12316250Y-10361250D01*
X12100000Y-10511250D02*
X12158750Y-10511250D01*
%TO.N,V3P3*%
X11820000Y-9980000D02*
X11660000Y-9980000D01*
X11090000Y-9790000D02*
X10980000Y-9900000D01*
D35*
X12482500Y-10567500D02*
X12480000Y-10565000D01*
D36*
X12190000Y-9790000D02*
X11730000Y-9790000D01*
D35*
X12208750Y-10561250D02*
X12215000Y-10567500D01*
D36*
X11420000Y-9790000D02*
X11090000Y-9790000D01*
X12140000Y-9840000D02*
X12190000Y-9790000D01*
X11660000Y-9860000D02*
X11730000Y-9790000D01*
D35*
X12670000Y-10567500D02*
X12482500Y-10567500D01*
D36*
X12140000Y-9980000D02*
X12140000Y-9840000D01*
X11730000Y-9790000D02*
X11420000Y-9790000D01*
D35*
X12215000Y-10567500D02*
X12670000Y-10567500D01*
D36*
X12670000Y-10567500D02*
X12670000Y-9890000D01*
X10980000Y-10500000D02*
X11151250Y-10671250D01*
X11330000Y-9860000D02*
X11330000Y-9980000D01*
X11420000Y-9790000D02*
X11400000Y-9790000D01*
X12570000Y-9790000D02*
X12190000Y-9790000D01*
D35*
X12310000Y-10565000D02*
X12480000Y-10565000D01*
X12100000Y-10561250D02*
X12188750Y-10561250D01*
D36*
X11267500Y-10671250D02*
X11278750Y-10660000D01*
D35*
X12188750Y-10561250D02*
X12208750Y-10561250D01*
D36*
X11660000Y-9980000D02*
X11660000Y-9860000D01*
X11400000Y-9790000D02*
X11330000Y-9860000D01*
X10980000Y-9900000D02*
X10980000Y-10500000D01*
X11151250Y-10671250D02*
X11267500Y-10671250D01*
X12670000Y-9890000D02*
X12570000Y-9790000D01*
D35*
%TO.N,VCC_USB_PD_OUT*%
X11600000Y-10711250D02*
X11590000Y-10721250D01*
X11705000Y-10711250D02*
X11600000Y-10711250D01*
%TO.N,Net-(D1-K)*%
X13006500Y-10743500D02*
X13081250Y-10668750D01*
X13006500Y-10858800D02*
X13006500Y-10743500D01*
X13081250Y-10668750D02*
X13081250Y-10600000D01*
X13150000Y-10400000D02*
X13225000Y-10400000D01*
X13081250Y-10468750D02*
X13150000Y-10400000D01*
X13200000Y-10600000D02*
X13081250Y-10600000D01*
X13081250Y-10600000D02*
X13081250Y-10468750D01*
X13260500Y-10660500D02*
X13200000Y-10600000D01*
X13260500Y-10858800D02*
X13260500Y-10660500D01*
%TO.N,Net-(D2-K)*%
X12661250Y-11901250D02*
X12661250Y-12030000D01*
X12480000Y-11847500D02*
X12607500Y-11847500D01*
X12607500Y-11847500D02*
X12661250Y-11901250D01*
%TO.N,Net-(D3-K)*%
X13736250Y-11807500D02*
X13740000Y-11811250D01*
X13520000Y-11807500D02*
X13736250Y-11807500D01*
%TO.N,VCC_USB_SAFE_5V*%
X13120000Y-11620000D02*
X13507500Y-11620000D01*
X13507500Y-11620000D02*
X13520000Y-11632500D01*
%TO.N,Net-(J1-CC1)*%
X11762750Y-11438750D02*
X11880000Y-11438750D01*
X11730000Y-11471500D02*
X11762750Y-11438750D01*
X11878600Y-11440150D02*
X11880000Y-11438750D01*
X11730000Y-11500000D02*
X11730000Y-11430000D01*
X11880000Y-11038600D02*
X11880000Y-10836250D01*
X11706000Y-11406000D02*
X11630250Y-11406000D01*
X11880000Y-10836250D02*
X11877500Y-10833750D01*
X11730000Y-11500000D02*
X11730000Y-11471500D01*
X11878600Y-11040000D02*
X11880000Y-11038600D01*
X11730000Y-11430000D02*
X11706000Y-11406000D01*
%TO.N,Net-(J1-CC2)*%
X11827500Y-10902500D02*
X11827500Y-10833750D01*
X11349000Y-11561000D02*
X11278750Y-11490750D01*
X11278750Y-11490750D02*
X11278750Y-10840000D01*
X11520000Y-10750000D02*
X11575000Y-10805000D01*
X11575000Y-10865000D02*
X11660000Y-10950000D01*
X11320000Y-10750000D02*
X11520000Y-10750000D01*
X11278750Y-10840000D02*
X11278750Y-10791250D01*
X11439250Y-11561000D02*
X11349000Y-11561000D01*
X11278750Y-10791250D02*
X11320000Y-10750000D01*
X11780000Y-10950000D02*
X11827500Y-10902500D01*
X11575000Y-10805000D02*
X11575000Y-10865000D01*
X11660000Y-10950000D02*
X11780000Y-10950000D01*
%TO.N,Net-(Q2-D)*%
X12420000Y-12030000D02*
X12478750Y-12030000D01*
X12316250Y-11926250D02*
X12420000Y-12030000D01*
X12210000Y-11926250D02*
X12316250Y-11926250D01*
%TO.N,Net-(Q2-G)*%
X11631250Y-10601250D02*
X11641250Y-10611250D01*
X12115000Y-12113750D02*
X12115000Y-12296250D01*
X12115000Y-12113750D02*
X12115000Y-11975000D01*
X11610000Y-10601250D02*
X11631250Y-10601250D01*
X12115000Y-12296250D02*
X12118750Y-12300000D01*
X12115000Y-11975000D02*
X12100000Y-11960000D01*
X11641250Y-10611250D02*
X11705000Y-10611250D01*
%TO.N,Net-(Q3A-G1)*%
X12930000Y-11970000D02*
X12990000Y-12030000D01*
X13120000Y-11910000D02*
X13120000Y-11860000D01*
X13041250Y-12030000D02*
X13041250Y-11968750D01*
X12990000Y-12030000D02*
X13041250Y-12030000D01*
X13060000Y-11950000D02*
X13080000Y-11950000D01*
X13080000Y-11950000D02*
X13120000Y-11910000D01*
X13041250Y-11968750D02*
X13060000Y-11950000D01*
X12930000Y-11860000D02*
X12930000Y-11970000D01*
X13041250Y-12200000D02*
X13041250Y-12030000D01*
%TO.N,Net-(Q3A-D1)*%
X12930000Y-11680000D02*
X12930000Y-11620000D01*
X13025000Y-11860000D02*
X13025000Y-11775000D01*
X13025000Y-11775000D02*
X12930000Y-11680000D01*
%TO.N,Net-(U1-FLIP)*%
X11705000Y-10661250D02*
X11462500Y-10661250D01*
X11462500Y-10661250D02*
X11461250Y-10660000D01*
%TO.N,Net-(U1-ISNK_COARSE)*%
X11700000Y-10270000D02*
X11660000Y-10230000D01*
X11500000Y-10162500D02*
X11660000Y-10162500D01*
X11827500Y-10357500D02*
X11740000Y-10270000D01*
X11740000Y-10270000D02*
X11700000Y-10270000D01*
X11660000Y-10230000D02*
X11660000Y-10162500D01*
X11827500Y-10438750D02*
X11827500Y-10357500D01*
%TO.N,Net-(U1-ISNK_FINE)*%
X11777500Y-10438750D02*
X11777500Y-10367500D01*
X11170000Y-10162500D02*
X11330000Y-10162500D01*
X11777500Y-10367500D02*
X11750000Y-10340000D01*
X11400000Y-10340000D02*
X11330000Y-10270000D01*
X11330000Y-10270000D02*
X11330000Y-10162500D01*
X11750000Y-10340000D02*
X11400000Y-10340000D01*
%TO.N,Net-(U1-VBUS_FET_EN)*%
X11927500Y-10322500D02*
X11927500Y-10438750D01*
X11980442Y-10269558D02*
X11927500Y-10322500D01*
X11990000Y-10269558D02*
X11980442Y-10269558D01*
X12770000Y-10190000D02*
X12780000Y-10180000D01*
X12780000Y-10180000D02*
X12898750Y-10180000D01*
%TO.N,Net-(U1-VBUS_MAX)*%
X11980000Y-10162500D02*
X12032500Y-10162500D01*
X11977500Y-10375790D02*
X11977500Y-10438750D01*
X12050000Y-10303290D02*
X11977500Y-10375790D01*
X12050000Y-10180000D02*
X12050000Y-10303290D01*
X12032500Y-10162500D02*
X12050000Y-10180000D01*
X11820000Y-10162500D02*
X11980000Y-10162500D01*
%TO.N,Net-(U1-VBUS_MIN)*%
X12027500Y-10438750D02*
X12027500Y-10382500D01*
X12027500Y-10382500D02*
X12140000Y-10270000D01*
X12140000Y-10162500D02*
X12300000Y-10162500D01*
X12140000Y-10270000D02*
X12140000Y-10162500D01*
%TO.N,Net-(U1-SAFE_PWR_EN)*%
X11856103Y-10261250D02*
X11877500Y-10282647D01*
X11820374Y-10265521D02*
X11824645Y-10261250D01*
X11824645Y-10261250D02*
X11856103Y-10261250D01*
X11877500Y-10282647D02*
X11877500Y-10438750D01*
X12720000Y-12200000D02*
X12858750Y-12200000D01*
%TD*%
%TA.AperFunction,Conductor*%
%TO.N,VCC_USB_PD_IN*%
G36*
X13001568Y-11231968D02*
G01*
X13003632Y-11233632D01*
X13056368Y-11286368D01*
X13059717Y-11292500D01*
X13060000Y-11295136D01*
X13060000Y-11654864D01*
X13058031Y-11661568D01*
X13056368Y-11663632D01*
X13015017Y-11704983D01*
X13008884Y-11708332D01*
X13001915Y-11707833D01*
X12997480Y-11704983D01*
X12979004Y-11686507D01*
X12975655Y-11680375D01*
X12976154Y-11673405D01*
X12976316Y-11672992D01*
X12976386Y-11672824D01*
X12976387Y-11672823D01*
X12977550Y-11666975D01*
X12977550Y-11573025D01*
X12977550Y-11573025D01*
X12977550Y-11573025D01*
X12976387Y-11567177D01*
X12976387Y-11567177D01*
X12971955Y-11560545D01*
X12965323Y-11556113D01*
X12965323Y-11556113D01*
X12959475Y-11554950D01*
X12959475Y-11554950D01*
X12900525Y-11554950D01*
X12900525Y-11554950D01*
X12894677Y-11556113D01*
X12894677Y-11556113D01*
X12888045Y-11560545D01*
X12883613Y-11567177D01*
X12883613Y-11567177D01*
X12882450Y-11573025D01*
X12882450Y-11666975D01*
X12883613Y-11672823D01*
X12883613Y-11672823D01*
X12888045Y-11679455D01*
X12894677Y-11683887D01*
X12894938Y-11683995D01*
X12895419Y-11684383D01*
X12895692Y-11684565D01*
X12895676Y-11684590D01*
X12900378Y-11688379D01*
X12901254Y-11689847D01*
X12901836Y-11690996D01*
X12901998Y-11691599D01*
X12903002Y-11693339D01*
X12903172Y-11693632D01*
X12903173Y-11693634D01*
X12905953Y-11698450D01*
X12905954Y-11698451D01*
X12936335Y-11728832D01*
X12939683Y-11734964D01*
X12939185Y-11741933D01*
X12934998Y-11747527D01*
X12928451Y-11749968D01*
X12927567Y-11750000D01*
X12475136Y-11750000D01*
X12468432Y-11748031D01*
X12466368Y-11746368D01*
X12270000Y-11550000D01*
X11850000Y-11550000D01*
X11850000Y-11550000D01*
X11848874Y-11551126D01*
X11844201Y-11554062D01*
X11835552Y-11557088D01*
X11824929Y-11564929D01*
X11824929Y-11564929D01*
X11817088Y-11575552D01*
X11814062Y-11584201D01*
X11811126Y-11588874D01*
X11743632Y-11656368D01*
X11737500Y-11659717D01*
X11734864Y-11660000D01*
X11707700Y-11660000D01*
X11700996Y-11658031D01*
X11696421Y-11652751D01*
X11695300Y-11647600D01*
X11695300Y-11639025D01*
X11695300Y-11639025D01*
X11694137Y-11633177D01*
X11694137Y-11633177D01*
X11689705Y-11626545D01*
X11683073Y-11622113D01*
X11683073Y-11622113D01*
X11677225Y-11620950D01*
X11677225Y-11620950D01*
X11583275Y-11620950D01*
X11583275Y-11620950D01*
X11577427Y-11622113D01*
X11577427Y-11622113D01*
X11570795Y-11626545D01*
X11566363Y-11633177D01*
X11566363Y-11633177D01*
X11565200Y-11639025D01*
X11565200Y-11647600D01*
X11563231Y-11654304D01*
X11557951Y-11658879D01*
X11552800Y-11660000D01*
X11501700Y-11660000D01*
X11494996Y-11658031D01*
X11490421Y-11652751D01*
X11489300Y-11647600D01*
X11489300Y-11634411D01*
X11489300Y-11634411D01*
X11485889Y-11621681D01*
X11479300Y-11610269D01*
X11478799Y-11609768D01*
X11475451Y-11603636D01*
X11475949Y-11596667D01*
X11476815Y-11594824D01*
X11477635Y-11593396D01*
X11479300Y-11591731D01*
X11485889Y-11580319D01*
X11486539Y-11577892D01*
X11487345Y-11576489D01*
X11488746Y-11575147D01*
X11489757Y-11573490D01*
X11491218Y-11572780D01*
X11492391Y-11571656D01*
X11494296Y-11571284D01*
X11496041Y-11570436D01*
X11498132Y-11570536D01*
X11499248Y-11570318D01*
X11500023Y-11570626D01*
X11501307Y-11570687D01*
X11502661Y-11571050D01*
X11502661Y-11571050D01*
X11515839Y-11571050D01*
X11515839Y-11571050D01*
X11528569Y-11567639D01*
X11539981Y-11561050D01*
X11544032Y-11556999D01*
X11550164Y-11553651D01*
X11557133Y-11554149D01*
X11562727Y-11558337D01*
X11565168Y-11564883D01*
X11565200Y-11565768D01*
X11565200Y-11572975D01*
X11566363Y-11578823D01*
X11566363Y-11578823D01*
X11570795Y-11585455D01*
X11577427Y-11589887D01*
X11577427Y-11589887D01*
X11583275Y-11591050D01*
X11583275Y-11591050D01*
X11583275Y-11591050D01*
X11677225Y-11591050D01*
X11677225Y-11591050D01*
X11679738Y-11590550D01*
X11683073Y-11589887D01*
X11683073Y-11589887D01*
X11683073Y-11589887D01*
X11689705Y-11585455D01*
X11694137Y-11578823D01*
X11694137Y-11578823D01*
X11694137Y-11578823D01*
X11695300Y-11572975D01*
X11695300Y-11572975D01*
X11695300Y-11558678D01*
X11697268Y-11551974D01*
X11702549Y-11547398D01*
X11709465Y-11546404D01*
X11710908Y-11546700D01*
X11723411Y-11550050D01*
X11723411Y-11550050D01*
X11736589Y-11550050D01*
X11736589Y-11550050D01*
X11749319Y-11546639D01*
X11760731Y-11540050D01*
X11770050Y-11530731D01*
X11776639Y-11519319D01*
X11780050Y-11506589D01*
X11780050Y-11493411D01*
X11777638Y-11484409D01*
X11777697Y-11481910D01*
X11777342Y-11479435D01*
X11777779Y-11478477D01*
X11777804Y-11477424D01*
X11779205Y-11475354D01*
X11780244Y-11473080D01*
X11781130Y-11472510D01*
X11781720Y-11471638D01*
X11784019Y-11470654D01*
X11786122Y-11469302D01*
X11787707Y-11469074D01*
X11788143Y-11468888D01*
X11789615Y-11468800D01*
X11802815Y-11468800D01*
X11809519Y-11470768D01*
X11814094Y-11476049D01*
X11814519Y-11477104D01*
X11817088Y-11484447D01*
X11817088Y-11484448D01*
X11824929Y-11495071D01*
X11824929Y-11495071D01*
X11835552Y-11502911D01*
X11835552Y-11502911D01*
X11835552Y-11502912D01*
X11848015Y-11507272D01*
X11848015Y-11507272D01*
X11850974Y-11507550D01*
X11850974Y-11507550D01*
X11909026Y-11507550D01*
X11911985Y-11507272D01*
X11913938Y-11506589D01*
X11924447Y-11502912D01*
X11935071Y-11495071D01*
X11942912Y-11484447D01*
X11947272Y-11471985D01*
X11947524Y-11469302D01*
X11947550Y-11469026D01*
X11947550Y-11408474D01*
X11947272Y-11405515D01*
X11942911Y-11393052D01*
X11935071Y-11382429D01*
X11935071Y-11382429D01*
X11924448Y-11374588D01*
X11911985Y-11370227D01*
X11911985Y-11370227D01*
X11909026Y-11369950D01*
X11909026Y-11369950D01*
X11850974Y-11369950D01*
X11850974Y-11369950D01*
X11848015Y-11370227D01*
X11835552Y-11374588D01*
X11824929Y-11382429D01*
X11824929Y-11382429D01*
X11817088Y-11393052D01*
X11817088Y-11393052D01*
X11814519Y-11400395D01*
X11810447Y-11406073D01*
X11803951Y-11408648D01*
X11802815Y-11408700D01*
X11758793Y-11408700D01*
X11758142Y-11408786D01*
X11751239Y-11407708D01*
X11747757Y-11405260D01*
X11724451Y-11381954D01*
X11723979Y-11381681D01*
X11723979Y-11381681D01*
X11723978Y-11381681D01*
X11717599Y-11377998D01*
X11709956Y-11375950D01*
X11709956Y-11375950D01*
X11692577Y-11375950D01*
X11685873Y-11373981D01*
X11685690Y-11373862D01*
X11683073Y-11372113D01*
X11683073Y-11372113D01*
X11683073Y-11372113D01*
X11683073Y-11372113D01*
X11677225Y-11370950D01*
X11677225Y-11370950D01*
X11583275Y-11370950D01*
X11583275Y-11370950D01*
X11577427Y-11372113D01*
X11577427Y-11372113D01*
X11570795Y-11376545D01*
X11566363Y-11383177D01*
X11566363Y-11383177D01*
X11565200Y-11389025D01*
X11565200Y-11396232D01*
X11563231Y-11402936D01*
X11557951Y-11407512D01*
X11551035Y-11408506D01*
X11544680Y-11405604D01*
X11544032Y-11405000D01*
X11539982Y-11400950D01*
X11539981Y-11400950D01*
X11531810Y-11396232D01*
X11528569Y-11394361D01*
X11522204Y-11392655D01*
X11515839Y-11390950D01*
X11502661Y-11390950D01*
X11502661Y-11390950D01*
X11501307Y-11391313D01*
X11494322Y-11391146D01*
X11488536Y-11387230D01*
X11487345Y-11385511D01*
X11486539Y-11384108D01*
X11485889Y-11381681D01*
X11479300Y-11370269D01*
X11477635Y-11368603D01*
X11476815Y-11367176D01*
X11476368Y-11365315D01*
X11475451Y-11363636D01*
X11475569Y-11361988D01*
X11475183Y-11360382D01*
X11475813Y-11358575D01*
X11475949Y-11356667D01*
X11477105Y-11354868D01*
X11477483Y-11353784D01*
X11478124Y-11353282D01*
X11478799Y-11352232D01*
X11479300Y-11351731D01*
X11485889Y-11340319D01*
X11489300Y-11327589D01*
X11489300Y-11315836D01*
X11490164Y-11312892D01*
X11490817Y-11309893D01*
X11491192Y-11309392D01*
X11491268Y-11309132D01*
X11492931Y-11307069D01*
X11506368Y-11293632D01*
X11512500Y-11290283D01*
X11515136Y-11290000D01*
X11552800Y-11290000D01*
X11559504Y-11291968D01*
X11564079Y-11297249D01*
X11565200Y-11302400D01*
X11565200Y-11322975D01*
X11566363Y-11328823D01*
X11566363Y-11328823D01*
X11570795Y-11335455D01*
X11577427Y-11339887D01*
X11577427Y-11339887D01*
X11583275Y-11341050D01*
X11583275Y-11341050D01*
X11583275Y-11341050D01*
X11677225Y-11341050D01*
X11677225Y-11341050D01*
X11678707Y-11340755D01*
X11683073Y-11339887D01*
X11683073Y-11339887D01*
X11683073Y-11339887D01*
X11689705Y-11335455D01*
X11694137Y-11328823D01*
X11694137Y-11328823D01*
X11694137Y-11328823D01*
X11695300Y-11322975D01*
X11695300Y-11322975D01*
X11695300Y-11302400D01*
X11697268Y-11295696D01*
X11702549Y-11291121D01*
X11707700Y-11290000D01*
X11740000Y-11290000D01*
X11796368Y-11233632D01*
X11802500Y-11230283D01*
X11805136Y-11230000D01*
X12994864Y-11230000D01*
X13001568Y-11231968D01*
G37*
%TD.AperFunction*%
%TD*%
%TA.AperFunction,Conductor*%
%TO.N,VCC_USB_PD_OUT*%
G36*
X13861568Y-11261968D02*
G01*
X13863632Y-11263632D01*
X13868832Y-11268832D01*
X13872180Y-11274964D01*
X13871682Y-11281933D01*
X13867495Y-11287527D01*
X13860948Y-11289968D01*
X13860064Y-11290000D01*
X13815000Y-11290000D01*
X13815000Y-11381250D01*
X13976919Y-11381250D01*
X13983050Y-11383050D01*
X13986245Y-11386245D01*
X13986255Y-11386257D01*
X13986256Y-11386256D01*
X14120000Y-11520000D01*
X14434864Y-11520000D01*
X14441568Y-11521968D01*
X14443632Y-11523632D01*
X14476368Y-11556368D01*
X14479717Y-11562500D01*
X14480000Y-11565136D01*
X14480000Y-11944864D01*
X14479135Y-11947808D01*
X14478483Y-11950806D01*
X14478108Y-11951308D01*
X14478031Y-11951568D01*
X14476368Y-11953632D01*
X14463632Y-11966368D01*
X14457500Y-11969717D01*
X14454864Y-11970000D01*
X13955136Y-11970000D01*
X13948432Y-11968031D01*
X13946368Y-11966368D01*
X13863632Y-11883632D01*
X13860283Y-11877500D01*
X13860000Y-11874864D01*
X13860000Y-11739805D01*
X13861968Y-11733102D01*
X13867249Y-11728526D01*
X13869980Y-11727644D01*
X13873350Y-11726974D01*
X13887918Y-11720939D01*
X13901029Y-11712179D01*
X13912179Y-11701029D01*
X13920939Y-11687918D01*
X13926974Y-11673350D01*
X13930050Y-11657884D01*
X13930050Y-11642116D01*
X13930050Y-11642115D01*
X13927104Y-11627304D01*
X13927104Y-11627304D01*
X13926974Y-11626650D01*
X13926379Y-11625215D01*
X14081900Y-11625215D01*
X14081900Y-11710000D01*
X14171488Y-11710000D01*
X14169590Y-11714582D01*
X14166900Y-11728106D01*
X14166900Y-11741894D01*
X14169590Y-11755418D01*
X14171488Y-11760000D01*
X14081900Y-11760000D01*
X14081900Y-11844784D01*
X14082540Y-11850737D01*
X14082540Y-11850738D01*
X14087564Y-11864209D01*
X14087565Y-11864209D01*
X14096181Y-11875719D01*
X14096181Y-11875719D01*
X14107691Y-11884335D01*
X14107691Y-11884335D01*
X14121162Y-11889360D01*
X14121163Y-11889360D01*
X14127115Y-11890000D01*
X14127117Y-11890000D01*
X14211900Y-11890000D01*
X14211900Y-11800412D01*
X14216482Y-11802310D01*
X14230006Y-11805000D01*
X14243794Y-11805000D01*
X14257318Y-11802310D01*
X14261900Y-11800412D01*
X14261900Y-11890000D01*
X14346683Y-11890000D01*
X14346684Y-11890000D01*
X14352637Y-11889360D01*
X14352638Y-11889360D01*
X14366109Y-11884335D01*
X14366109Y-11884335D01*
X14377619Y-11875719D01*
X14377619Y-11875719D01*
X14386235Y-11864209D01*
X14386235Y-11864209D01*
X14391260Y-11850738D01*
X14391260Y-11850737D01*
X14391900Y-11844784D01*
X14391900Y-11844783D01*
X14391900Y-11760000D01*
X14302312Y-11760000D01*
X14304210Y-11755418D01*
X14306900Y-11741894D01*
X14306900Y-11728106D01*
X14304210Y-11714582D01*
X14302312Y-11710000D01*
X14391900Y-11710000D01*
X14391900Y-11625217D01*
X14391900Y-11625215D01*
X14391260Y-11619263D01*
X14391260Y-11619262D01*
X14386235Y-11605791D01*
X14386235Y-11605791D01*
X14377619Y-11594281D01*
X14377619Y-11594281D01*
X14366109Y-11585665D01*
X14366109Y-11585664D01*
X14352638Y-11580640D01*
X14352637Y-11580640D01*
X14346684Y-11580000D01*
X14261900Y-11580000D01*
X14261900Y-11669588D01*
X14257318Y-11667690D01*
X14243794Y-11665000D01*
X14230006Y-11665000D01*
X14216482Y-11667690D01*
X14211900Y-11669588D01*
X14211900Y-11580000D01*
X14127115Y-11580000D01*
X14121163Y-11580640D01*
X14121162Y-11580640D01*
X14107691Y-11585664D01*
X14107691Y-11585665D01*
X14096181Y-11594281D01*
X14096181Y-11594281D01*
X14087565Y-11605791D01*
X14087564Y-11605791D01*
X14082540Y-11619262D01*
X14082540Y-11619263D01*
X14081900Y-11625215D01*
X13926379Y-11625215D01*
X13920940Y-11612083D01*
X13920939Y-11612081D01*
X13912179Y-11598971D01*
X13912179Y-11598971D01*
X13901029Y-11587821D01*
X13901029Y-11587821D01*
X13887918Y-11579061D01*
X13887917Y-11579060D01*
X13873350Y-11573026D01*
X13873349Y-11573026D01*
X13857884Y-11569950D01*
X13857884Y-11569950D01*
X13845086Y-11569950D01*
X13838382Y-11567981D01*
X13836318Y-11566318D01*
X13813668Y-11543668D01*
X13810319Y-11537536D01*
X13810818Y-11530566D01*
X13815005Y-11524973D01*
X13821551Y-11522531D01*
X13822436Y-11522500D01*
X13904997Y-11522500D01*
X13904999Y-11522500D01*
X13915270Y-11521450D01*
X13931912Y-11515936D01*
X13931912Y-11515936D01*
X13946834Y-11506731D01*
X13959231Y-11494334D01*
X13968436Y-11479412D01*
X13968436Y-11479412D01*
X13973950Y-11462770D01*
X13973951Y-11462769D01*
X13975000Y-11452499D01*
X13975000Y-11452497D01*
X13975000Y-11431250D01*
X13623520Y-11431250D01*
X13621750Y-11432217D01*
X13619114Y-11432500D01*
X13367500Y-11432500D01*
X13366668Y-11433332D01*
X13360536Y-11436680D01*
X13353567Y-11436182D01*
X13347973Y-11431995D01*
X13345997Y-11426697D01*
X13345500Y-11426200D01*
X13145900Y-11426200D01*
X13139196Y-11424231D01*
X13134621Y-11418951D01*
X13133500Y-11413800D01*
X13133500Y-11388600D01*
X13135468Y-11381896D01*
X13140749Y-11377321D01*
X13145900Y-11376200D01*
X13345500Y-11376200D01*
X13346332Y-11375368D01*
X13352464Y-11372020D01*
X13359433Y-11372518D01*
X13365027Y-11376705D01*
X13367002Y-11382002D01*
X13367500Y-11382500D01*
X13593980Y-11382500D01*
X13595750Y-11381533D01*
X13598386Y-11381250D01*
X13765000Y-11381250D01*
X13765000Y-11290000D01*
X13675003Y-11290000D01*
X13675001Y-11290000D01*
X13664730Y-11291049D01*
X13648088Y-11296564D01*
X13648087Y-11296564D01*
X13633165Y-11305768D01*
X13620768Y-11318165D01*
X13616493Y-11325097D01*
X13614851Y-11326574D01*
X13613562Y-11328367D01*
X13612304Y-11328864D01*
X13611298Y-11329769D01*
X13609118Y-11330124D01*
X13607064Y-11330936D01*
X13605737Y-11330674D01*
X13604402Y-11330891D01*
X13602376Y-11330011D01*
X13600209Y-11329584D01*
X13598490Y-11328323D01*
X13597994Y-11328107D01*
X13597343Y-11327524D01*
X13581948Y-11312716D01*
X13580846Y-11310789D01*
X13579362Y-11309138D01*
X13579146Y-11307814D01*
X13578481Y-11306650D01*
X13578596Y-11304433D01*
X13578240Y-11302242D01*
X13578774Y-11301012D01*
X13578844Y-11299673D01*
X13580139Y-11297870D01*
X13581024Y-11295834D01*
X13582557Y-11294505D01*
X13582921Y-11293999D01*
X13583326Y-11293839D01*
X13584034Y-11293225D01*
X13584366Y-11293021D01*
X13596771Y-11280616D01*
X13605854Y-11265890D01*
X13611048Y-11261218D01*
X13616408Y-11260000D01*
X13854864Y-11260000D01*
X13861568Y-11261968D01*
G37*
%TD.AperFunction*%
%TD*%
%TA.AperFunction,Conductor*%
%TO.N,GND*%
G36*
X13753445Y-11498574D02*
G01*
X13755653Y-11498732D01*
X13756732Y-11499539D01*
X13758024Y-11499918D01*
X13759474Y-11501592D01*
X13761247Y-11502919D01*
X13761717Y-11504181D01*
X13762599Y-11505199D01*
X13762915Y-11507390D01*
X13763688Y-11509465D01*
X13763530Y-11511674D01*
X13763594Y-11512115D01*
X13763437Y-11512985D01*
X13763099Y-11514537D01*
X13760397Y-11526960D01*
X13760397Y-11526961D01*
X13759898Y-11533930D01*
X13759898Y-11533930D01*
X13760925Y-11548281D01*
X13760925Y-11548281D01*
X13764218Y-11557111D01*
X13765000Y-11561444D01*
X13765000Y-11603750D01*
X13797832Y-11603750D01*
X13804536Y-11605718D01*
X13805612Y-11606495D01*
X13806665Y-11607343D01*
X13809235Y-11609196D01*
X13811053Y-11610507D01*
X13824140Y-11616484D01*
X13830844Y-11618452D01*
X13830845Y-11618452D01*
X13845086Y-11620500D01*
X13851684Y-11620500D01*
X13854103Y-11620738D01*
X13857408Y-11621396D01*
X13859732Y-11622101D01*
X13862846Y-11623390D01*
X13864989Y-11624536D01*
X13867790Y-11626407D01*
X13869668Y-11627949D01*
X13872050Y-11630331D01*
X13873592Y-11632210D01*
X13875464Y-11635011D01*
X13876610Y-11637155D01*
X13877899Y-11640267D01*
X13878604Y-11642593D01*
X13879262Y-11645896D01*
X13879500Y-11648316D01*
X13879500Y-11651684D01*
X13879262Y-11654103D01*
X13878604Y-11657407D01*
X13877899Y-11659733D01*
X13876670Y-11662699D01*
X13876610Y-11662845D01*
X13875464Y-11664989D01*
X13873592Y-11667790D01*
X13872050Y-11669669D01*
X13869669Y-11672050D01*
X13867790Y-11673592D01*
X13864989Y-11675464D01*
X13862845Y-11676610D01*
X13858798Y-11678286D01*
X13857174Y-11678831D01*
X13854443Y-11679541D01*
X13854441Y-11679541D01*
X13852794Y-11680073D01*
X13845809Y-11680261D01*
X13839832Y-11676642D01*
X13836761Y-11670367D01*
X13836647Y-11667013D01*
X13837500Y-11658665D01*
X13837500Y-11658664D01*
X13837500Y-11653750D01*
X13642500Y-11653750D01*
X13642500Y-11658665D01*
X13643532Y-11668765D01*
X13648955Y-11685130D01*
X13648955Y-11685131D01*
X13658005Y-11699803D01*
X13658005Y-11699804D01*
X13670196Y-11711994D01*
X13670196Y-11711995D01*
X13684869Y-11721045D01*
X13684870Y-11721045D01*
X13687552Y-11721934D01*
X13693297Y-11725911D01*
X13695979Y-11732363D01*
X13694748Y-11739240D01*
X13691083Y-11743631D01*
X13681102Y-11751103D01*
X13672624Y-11762428D01*
X13672624Y-11762428D01*
X13672044Y-11763983D01*
X13667857Y-11769577D01*
X13661310Y-11772018D01*
X13660426Y-11772050D01*
X13602371Y-11772050D01*
X13595667Y-11770081D01*
X13591092Y-11764801D01*
X13590753Y-11763983D01*
X13587376Y-11754929D01*
X13587376Y-11754929D01*
X13587376Y-11754928D01*
X13578897Y-11743603D01*
X13567571Y-11735124D01*
X13567571Y-11735124D01*
X13567571Y-11735124D01*
X13558171Y-11731618D01*
X13552578Y-11727431D01*
X13550136Y-11720884D01*
X13551622Y-11714057D01*
X13556562Y-11709117D01*
X13558170Y-11708382D01*
X13567571Y-11704876D01*
X13578897Y-11696397D01*
X13587376Y-11685071D01*
X13592113Y-11672371D01*
X13592320Y-11671816D01*
X13592320Y-11671816D01*
X13592320Y-11671816D01*
X13592668Y-11668573D01*
X13592950Y-11665957D01*
X13592950Y-11665957D01*
X13592950Y-11665956D01*
X13592950Y-11602950D01*
X13593205Y-11602081D01*
X13593076Y-11601185D01*
X13594174Y-11598782D01*
X13594918Y-11596246D01*
X13595602Y-11595653D01*
X13595979Y-11594830D01*
X13598202Y-11593401D01*
X13600199Y-11591671D01*
X13601250Y-11591442D01*
X13601856Y-11591052D01*
X13605350Y-11590550D01*
X13630100Y-11590550D01*
X13636804Y-11592518D01*
X13641379Y-11597799D01*
X13642500Y-11602950D01*
X13642500Y-11603750D01*
X13715000Y-11603750D01*
X13715000Y-11530000D01*
X13713574Y-11528574D01*
X13711727Y-11528031D01*
X13707151Y-11522751D01*
X13706420Y-11520683D01*
X13706405Y-11520624D01*
X13705379Y-11516629D01*
X13704559Y-11513433D01*
X13704799Y-11506450D01*
X13708776Y-11500705D01*
X13715228Y-11498023D01*
X13716570Y-11497950D01*
X13751320Y-11497950D01*
X13753445Y-11498574D01*
G37*
%TD.AperFunction*%
%TA.AperFunction,Conductor*%
G36*
X11475250Y-11131645D02*
G01*
X11518160Y-11174554D01*
X11518593Y-11175349D01*
X11519318Y-11175891D01*
X11520242Y-11178367D01*
X11521508Y-11180687D01*
X11521443Y-11181589D01*
X11521760Y-11182438D01*
X11521262Y-11184727D01*
X11520579Y-11184045D01*
X11513228Y-11181000D01*
X11505272Y-11181000D01*
X11497921Y-11184045D01*
X11492295Y-11189671D01*
X11489250Y-11197022D01*
X11489250Y-11204978D01*
X11491800Y-11211134D01*
X11489060Y-11210938D01*
X11484303Y-11207421D01*
X11484196Y-11207528D01*
X11473297Y-11196629D01*
X11473297Y-11196629D01*
X11465782Y-11192290D01*
X11463214Y-11190320D01*
X11443895Y-11171000D01*
X11437650Y-11171000D01*
X11434054Y-11169944D01*
X11434300Y-11170940D01*
X11434124Y-11171735D01*
X11434186Y-11172165D01*
X11433646Y-11174408D01*
X11431765Y-11179914D01*
X11430206Y-11182122D01*
X11428954Y-11184517D01*
X11428204Y-11184959D01*
X11427736Y-11185622D01*
X11425633Y-11186474D01*
X11423241Y-11187883D01*
X11417847Y-11189329D01*
X11417847Y-11189329D01*
X11405203Y-11196629D01*
X11405203Y-11196629D01*
X11394879Y-11206953D01*
X11394879Y-11206953D01*
X11387579Y-11219597D01*
X11387579Y-11219597D01*
X11383800Y-11233700D01*
X11383800Y-11248300D01*
X11387566Y-11262355D01*
X11387579Y-11262403D01*
X11387579Y-11262403D01*
X11394736Y-11274800D01*
X11396383Y-11281590D01*
X11394736Y-11287200D01*
X11387579Y-11299597D01*
X11387579Y-11299597D01*
X11383800Y-11313700D01*
X11383800Y-11328300D01*
X11384443Y-11330700D01*
X11387579Y-11342403D01*
X11387579Y-11342403D01*
X11394736Y-11354800D01*
X11396383Y-11361590D01*
X11394736Y-11367200D01*
X11387579Y-11379597D01*
X11387579Y-11379597D01*
X11383800Y-11393700D01*
X11383800Y-11408300D01*
X11387579Y-11422403D01*
X11387579Y-11422403D01*
X11394879Y-11435047D01*
X11394879Y-11435047D01*
X11394879Y-11435047D01*
X11405203Y-11445371D01*
X11417847Y-11452671D01*
X11431950Y-11456450D01*
X11431950Y-11456450D01*
X11446983Y-11456450D01*
X11448134Y-11456788D01*
X11449330Y-11456674D01*
X11451425Y-11457754D01*
X11453687Y-11458418D01*
X11454628Y-11459406D01*
X11455540Y-11459876D01*
X11457721Y-11462650D01*
X11462830Y-11471498D01*
X11464736Y-11474800D01*
X11466383Y-11481590D01*
X11464736Y-11487200D01*
X11457721Y-11499350D01*
X11452665Y-11504171D01*
X11446983Y-11505550D01*
X11431950Y-11505550D01*
X11417847Y-11509329D01*
X11417847Y-11509329D01*
X11405203Y-11516629D01*
X11405203Y-11516629D01*
X11399914Y-11521918D01*
X11397221Y-11523388D01*
X11394639Y-11525048D01*
X11394019Y-11525137D01*
X11393781Y-11525267D01*
X11391146Y-11525550D01*
X11368820Y-11525550D01*
X11362116Y-11523581D01*
X11360052Y-11521918D01*
X11317832Y-11479698D01*
X11314483Y-11473566D01*
X11314200Y-11470930D01*
X11314200Y-11109493D01*
X11316168Y-11102789D01*
X11321449Y-11098214D01*
X11328365Y-11097219D01*
X11334720Y-11100122D01*
X11338056Y-11104748D01*
X11340493Y-11110630D01*
X11340493Y-11110632D01*
X11350342Y-11125372D01*
X11350343Y-11125372D01*
X11362878Y-11137907D01*
X11362878Y-11137908D01*
X11377618Y-11147757D01*
X11377619Y-11147757D01*
X11393998Y-11154541D01*
X11393999Y-11154542D01*
X11411385Y-11158000D01*
X11411386Y-11158000D01*
X11421912Y-11158000D01*
X11424697Y-11158818D01*
X11425323Y-11158936D01*
X11425250Y-11158600D01*
X11425250Y-11093000D01*
X11475250Y-11093000D01*
X11475250Y-11131645D01*
G37*
%TD.AperFunction*%
%TA.AperFunction,Conductor*%
G36*
X11480554Y-10841969D02*
G01*
X11485129Y-10847249D01*
X11486250Y-10852400D01*
X11486250Y-10937500D01*
X11491164Y-10937500D01*
X11491165Y-10937500D01*
X11501265Y-10936468D01*
X11517630Y-10931045D01*
X11517631Y-10931045D01*
X11532303Y-10921995D01*
X11532304Y-10921994D01*
X11544494Y-10909804D01*
X11545866Y-10907580D01*
X11551060Y-10902908D01*
X11557957Y-10901786D01*
X11564365Y-10904570D01*
X11565188Y-10905322D01*
X11638233Y-10978367D01*
X11638233Y-10978367D01*
X11638234Y-10978368D01*
X11646316Y-10983034D01*
X11646317Y-10983034D01*
X11655333Y-10985450D01*
X11655333Y-10985450D01*
X11665427Y-10985450D01*
X11665428Y-10985450D01*
X11784667Y-10985450D01*
X11784667Y-10985450D01*
X11793683Y-10983034D01*
X11801767Y-10978367D01*
X11823382Y-10956752D01*
X11825325Y-10955691D01*
X11826999Y-10954241D01*
X11828332Y-10954049D01*
X11829514Y-10953403D01*
X11831723Y-10953561D01*
X11833915Y-10953246D01*
X11835140Y-10953806D01*
X11836483Y-10953902D01*
X11838256Y-10955229D01*
X11840270Y-10956149D01*
X11840998Y-10957282D01*
X11842077Y-10958089D01*
X11842850Y-10960164D01*
X11844048Y-10962027D01*
X11844363Y-10964218D01*
X11844518Y-10964635D01*
X11844550Y-10965520D01*
X11844550Y-10990496D01*
X11842581Y-10997200D01*
X11840918Y-10999264D01*
X11834229Y-11005953D01*
X11834229Y-11005953D01*
X11826929Y-11018597D01*
X11826929Y-11018597D01*
X11823150Y-11032700D01*
X11823150Y-11047300D01*
X11826929Y-11061403D01*
X11826929Y-11061403D01*
X11834229Y-11074047D01*
X11834229Y-11074047D01*
X11834229Y-11074047D01*
X11844553Y-11084371D01*
X11844553Y-11084371D01*
X11844553Y-11084371D01*
X11846791Y-11085663D01*
X11857197Y-11091671D01*
X11871300Y-11095450D01*
X11871300Y-11095450D01*
X11885900Y-11095450D01*
X11885900Y-11095450D01*
X11900003Y-11091671D01*
X11912647Y-11084371D01*
X11922971Y-11074047D01*
X11930271Y-11061403D01*
X11934050Y-11047300D01*
X11934050Y-11032700D01*
X11930271Y-11018597D01*
X11926113Y-11011394D01*
X11922972Y-11005953D01*
X11922971Y-11005953D01*
X11919082Y-11002063D01*
X11915733Y-10995931D01*
X11915450Y-10993295D01*
X11915450Y-10911600D01*
X11917418Y-10904896D01*
X11922699Y-10900321D01*
X11927850Y-10899200D01*
X11937464Y-10899200D01*
X11937464Y-10899200D01*
X11942081Y-10898592D01*
X11942081Y-10898592D01*
X11942082Y-10898592D01*
X11944514Y-10897458D01*
X11947259Y-10896177D01*
X11954167Y-10895128D01*
X11957740Y-10896177D01*
X11959394Y-10896948D01*
X11962918Y-10898592D01*
X11962918Y-10898592D01*
X11962919Y-10898592D01*
X11967536Y-10899200D01*
X11967536Y-10899200D01*
X11979650Y-10899200D01*
X11986354Y-10901169D01*
X11990929Y-10906449D01*
X11992050Y-10911600D01*
X11992050Y-10942833D01*
X11992050Y-10952167D01*
X11994466Y-10961183D01*
X11999133Y-10969267D01*
X12051633Y-11021767D01*
X12058233Y-11028367D01*
X12066317Y-11033034D01*
X12075333Y-11035450D01*
X12130180Y-11035450D01*
X12133124Y-11036314D01*
X12136123Y-11036967D01*
X12136624Y-11037342D01*
X12136884Y-11037419D01*
X12138948Y-11039082D01*
X12142831Y-11042965D01*
X12146179Y-11049097D01*
X12146224Y-11054152D01*
X12144550Y-11062568D01*
X12144550Y-11077432D01*
X12147449Y-11092007D01*
X12147449Y-11092008D01*
X12153137Y-11105739D01*
X12161394Y-11118096D01*
X12161394Y-11118097D01*
X12171903Y-11128605D01*
X12171903Y-11128606D01*
X12171903Y-11128606D01*
X12179039Y-11133374D01*
X12183519Y-11138735D01*
X12184550Y-11143684D01*
X12184550Y-11191650D01*
X12182581Y-11198354D01*
X12177301Y-11202929D01*
X12172150Y-11204050D01*
X11805136Y-11204050D01*
X11802364Y-11204199D01*
X11802363Y-11204199D01*
X11802362Y-11204199D01*
X11802361Y-11204199D01*
X11802358Y-11204199D01*
X11799726Y-11204482D01*
X11799726Y-11204482D01*
X11790342Y-11207421D01*
X11790064Y-11207508D01*
X11790064Y-11207508D01*
X11790063Y-11207508D01*
X11783931Y-11210856D01*
X11778020Y-11215282D01*
X11778018Y-11215283D01*
X11742934Y-11250367D01*
X11736802Y-11253715D01*
X11729833Y-11253217D01*
X11724239Y-11249030D01*
X11721798Y-11242483D01*
X11722548Y-11237265D01*
X11724610Y-11231738D01*
X11724610Y-11231737D01*
X11725250Y-11225784D01*
X11725250Y-11225783D01*
X11725250Y-11221000D01*
X11694888Y-11221000D01*
X11690741Y-11220286D01*
X11689284Y-11219769D01*
X11685180Y-11217027D01*
X11677757Y-11215550D01*
X11677395Y-11215550D01*
X11676088Y-11215086D01*
X11673956Y-11213543D01*
X11671625Y-11212323D01*
X11671171Y-11211526D01*
X11670428Y-11210989D01*
X11669469Y-11208538D01*
X11668167Y-11206252D01*
X11668216Y-11205336D01*
X11667882Y-11204482D01*
X11668400Y-11201902D01*
X11668541Y-11199275D01*
X11669077Y-11198531D01*
X11669258Y-11197632D01*
X11671089Y-11195742D01*
X11672628Y-11193607D01*
X11673481Y-11193272D01*
X11674119Y-11192613D01*
X11676681Y-11192013D01*
X11679130Y-11191049D01*
X11680235Y-11191000D01*
X11725250Y-11191000D01*
X11725250Y-11186217D01*
X11725250Y-11186215D01*
X11724610Y-11180263D01*
X11724610Y-11180262D01*
X11719585Y-11166791D01*
X11719585Y-11166791D01*
X11710969Y-11155281D01*
X11710969Y-11155281D01*
X11699459Y-11146665D01*
X11699459Y-11146665D01*
X11685988Y-11141640D01*
X11685987Y-11141640D01*
X11680034Y-11141000D01*
X11644200Y-11141000D01*
X11637496Y-11139032D01*
X11632921Y-11133751D01*
X11631800Y-11128600D01*
X11631800Y-11113424D01*
X11631800Y-11113423D01*
X11627878Y-11098787D01*
X11620301Y-11085664D01*
X11609586Y-11074949D01*
X11600059Y-11069448D01*
X11596464Y-11067372D01*
X11589145Y-11065411D01*
X11581827Y-11063450D01*
X11581285Y-11063450D01*
X11574581Y-11061482D01*
X11570005Y-11056201D01*
X11569123Y-11053469D01*
X11566791Y-11041749D01*
X11566791Y-11041748D01*
X11560007Y-11025369D01*
X11560007Y-11025368D01*
X11550158Y-11010628D01*
X11550157Y-11010628D01*
X11537622Y-10998093D01*
X11537622Y-10998092D01*
X11522882Y-10988243D01*
X11522881Y-10988243D01*
X11506502Y-10981459D01*
X11506501Y-10981458D01*
X11489115Y-10978000D01*
X11475250Y-10978000D01*
X11475250Y-11043000D01*
X11425250Y-11043000D01*
X11425250Y-10978000D01*
X11411385Y-10978000D01*
X11393999Y-10981458D01*
X11393998Y-10981459D01*
X11377619Y-10988243D01*
X11377618Y-10988243D01*
X11362878Y-10998092D01*
X11362878Y-10998093D01*
X11350343Y-11010628D01*
X11350342Y-11010628D01*
X11340493Y-11025368D01*
X11340493Y-11025369D01*
X11338056Y-11031252D01*
X11333672Y-11036692D01*
X11327043Y-11038899D01*
X11320273Y-11037171D01*
X11315512Y-11032057D01*
X11314200Y-11026507D01*
X11314200Y-10920973D01*
X11316168Y-10914269D01*
X11321449Y-10909693D01*
X11322264Y-10909355D01*
X11327571Y-10907376D01*
X11338897Y-10898897D01*
X11346369Y-10888917D01*
X11351962Y-10884730D01*
X11358931Y-10884231D01*
X11365063Y-10887580D01*
X11368066Y-10892448D01*
X11368955Y-10895130D01*
X11368955Y-10895131D01*
X11378005Y-10909803D01*
X11378005Y-10909804D01*
X11390196Y-10921994D01*
X11390196Y-10921995D01*
X11404869Y-10931045D01*
X11404870Y-10931045D01*
X11421235Y-10936468D01*
X11431335Y-10937500D01*
X11436250Y-10937500D01*
X11436250Y-10937500D01*
X11436250Y-10852400D01*
X11438218Y-10845696D01*
X11443499Y-10841121D01*
X11448650Y-10840000D01*
X11473850Y-10840000D01*
X11480554Y-10841969D01*
G37*
%TD.AperFunction*%
%TA.AperFunction,Conductor*%
G36*
X12007740Y-10501177D02*
G01*
X12009394Y-10501948D01*
X12012918Y-10503592D01*
X12012918Y-10503592D01*
X12012919Y-10503592D01*
X12017536Y-10504200D01*
X12022150Y-10504200D01*
X12028854Y-10506169D01*
X12033429Y-10511449D01*
X12034278Y-10514017D01*
X12034550Y-10515294D01*
X12034550Y-10521214D01*
X12035158Y-10525831D01*
X12038169Y-10532288D01*
X12038462Y-10533667D01*
X12038300Y-10535801D01*
X12038622Y-10537917D01*
X12037971Y-10540132D01*
X12037933Y-10540634D01*
X12037754Y-10540871D01*
X12037572Y-10541491D01*
X12035158Y-10546669D01*
X12035158Y-10546669D01*
X12034550Y-10551285D01*
X12034550Y-10551286D01*
X12034550Y-10552308D01*
X12032581Y-10559011D01*
X12029699Y-10562145D01*
X12026132Y-10564882D01*
X12017116Y-10576632D01*
X12011448Y-10590316D01*
X12011448Y-10590316D01*
X12010337Y-10598750D01*
X12058305Y-10598750D01*
X12059091Y-10598981D01*
X12059923Y-10598856D01*
X12060683Y-10598956D01*
X12063992Y-10600420D01*
X12065009Y-10600719D01*
X12065221Y-10600964D01*
X12067073Y-10601783D01*
X12070920Y-10607615D01*
X12071003Y-10614602D01*
X12067295Y-10620524D01*
X12064206Y-10621980D01*
X12063456Y-10622629D01*
X12062550Y-10622760D01*
X12060975Y-10623502D01*
X12060684Y-10623544D01*
X12059923Y-10623644D01*
X12058305Y-10623750D01*
X12010337Y-10623750D01*
X12011448Y-10632184D01*
X12011448Y-10632184D01*
X12017116Y-10645868D01*
X12026132Y-10657618D01*
X12029699Y-10660355D01*
X12033819Y-10665998D01*
X12034149Y-10667066D01*
X12034550Y-10668603D01*
X12034550Y-10671214D01*
X12035158Y-10675831D01*
X12038049Y-10682032D01*
X12038334Y-10683123D01*
X12038260Y-10685533D01*
X12038622Y-10687917D01*
X12038135Y-10689573D01*
X12038119Y-10690107D01*
X12037874Y-10690464D01*
X12037572Y-10691491D01*
X12035158Y-10696669D01*
X12035158Y-10696669D01*
X12034550Y-10701285D01*
X12034550Y-10701286D01*
X12034550Y-10702308D01*
X12032581Y-10709011D01*
X12029699Y-10712145D01*
X12026132Y-10714882D01*
X12017116Y-10726632D01*
X12011448Y-10740316D01*
X12011448Y-10740316D01*
X12010337Y-10748750D01*
X12012734Y-10751483D01*
X12013841Y-10753870D01*
X12015281Y-10756071D01*
X12015288Y-10756989D01*
X12015675Y-10757822D01*
X12015316Y-10760428D01*
X12015337Y-10763058D01*
X12014847Y-10763834D01*
X12014721Y-10764743D01*
X12013011Y-10766741D01*
X12011606Y-10768966D01*
X12010471Y-10769708D01*
X12010177Y-10770051D01*
X12008652Y-10770897D01*
X12007740Y-10771323D01*
X12000833Y-10772372D01*
X11997259Y-10771323D01*
X11992081Y-10768908D01*
X11992081Y-10768908D01*
X11992081Y-10768908D01*
X11992081Y-10768908D01*
X11992081Y-10768908D01*
X11987465Y-10768300D01*
X11987465Y-10768300D01*
X11987464Y-10768300D01*
X11967536Y-10768300D01*
X11967535Y-10768300D01*
X11967534Y-10768300D01*
X11962919Y-10768908D01*
X11962918Y-10768908D01*
X11957740Y-10771323D01*
X11950833Y-10772372D01*
X11947259Y-10771323D01*
X11942081Y-10768908D01*
X11942081Y-10768908D01*
X11942081Y-10768908D01*
X11942081Y-10768908D01*
X11942081Y-10768908D01*
X11937465Y-10768300D01*
X11937465Y-10768300D01*
X11937464Y-10768300D01*
X11917536Y-10768300D01*
X11917535Y-10768300D01*
X11917534Y-10768300D01*
X11912919Y-10768908D01*
X11912918Y-10768908D01*
X11907740Y-10771323D01*
X11900833Y-10772372D01*
X11897259Y-10771323D01*
X11892081Y-10768908D01*
X11892081Y-10768908D01*
X11892081Y-10768908D01*
X11892081Y-10768908D01*
X11892081Y-10768908D01*
X11887465Y-10768300D01*
X11887465Y-10768300D01*
X11887464Y-10768300D01*
X11867536Y-10768300D01*
X11867535Y-10768300D01*
X11867534Y-10768300D01*
X11862919Y-10768908D01*
X11862918Y-10768908D01*
X11857740Y-10771323D01*
X11850833Y-10772372D01*
X11847259Y-10771323D01*
X11842081Y-10768908D01*
X11842081Y-10768908D01*
X11842081Y-10768908D01*
X11842081Y-10768908D01*
X11842081Y-10768908D01*
X11837465Y-10768300D01*
X11837465Y-10768300D01*
X11837464Y-10768300D01*
X11817536Y-10768300D01*
X11817535Y-10768300D01*
X11817534Y-10768300D01*
X11812919Y-10768908D01*
X11812918Y-10768908D01*
X11807740Y-10771323D01*
X11800833Y-10772372D01*
X11799917Y-10772212D01*
X11798538Y-10771919D01*
X11792081Y-10768908D01*
X11787464Y-10768300D01*
X11781544Y-10768300D01*
X11780267Y-10768028D01*
X11778296Y-10766963D01*
X11776146Y-10766332D01*
X11775282Y-10765334D01*
X11774120Y-10764707D01*
X11773038Y-10762745D01*
X11771571Y-10761051D01*
X11771224Y-10759456D01*
X11770745Y-10758589D01*
X11770813Y-10757571D01*
X11770450Y-10755900D01*
X11770450Y-10751286D01*
X11770450Y-10751286D01*
X11769842Y-10746669D01*
X11769842Y-10746669D01*
X11769842Y-10746668D01*
X11768198Y-10743144D01*
X11767427Y-10741490D01*
X11766378Y-10734583D01*
X11767427Y-10731009D01*
X11767984Y-10729817D01*
X11769122Y-10727376D01*
X11769842Y-10725832D01*
X11769842Y-10725831D01*
X11769842Y-10725831D01*
X11770450Y-10721214D01*
X11770450Y-10701286D01*
X11769842Y-10696669D01*
X11769842Y-10696669D01*
X11769842Y-10696668D01*
X11767427Y-10691491D01*
X11766378Y-10684583D01*
X11767427Y-10681009D01*
X11767749Y-10680320D01*
X11768928Y-10677791D01*
X11769842Y-10675832D01*
X11769842Y-10675831D01*
X11769842Y-10675831D01*
X11770450Y-10671214D01*
X11770450Y-10651286D01*
X11769842Y-10646669D01*
X11769842Y-10646669D01*
X11769842Y-10646668D01*
X11767948Y-10642608D01*
X11767427Y-10641490D01*
X11766378Y-10634583D01*
X11767427Y-10631009D01*
X11768146Y-10629468D01*
X11768708Y-10628264D01*
X11769842Y-10625832D01*
X11769842Y-10625831D01*
X11769842Y-10625831D01*
X11770450Y-10621214D01*
X11770450Y-10601286D01*
X11769842Y-10596669D01*
X11769842Y-10596669D01*
X11769842Y-10596668D01*
X11767427Y-10591491D01*
X11766378Y-10584583D01*
X11767427Y-10581009D01*
X11767970Y-10579847D01*
X11769842Y-10575831D01*
X11770450Y-10571214D01*
X11770450Y-10551286D01*
X11769842Y-10546669D01*
X11769842Y-10546669D01*
X11769842Y-10546668D01*
X11768198Y-10543144D01*
X11767427Y-10541490D01*
X11766378Y-10534583D01*
X11766537Y-10533667D01*
X11766831Y-10532288D01*
X11769842Y-10525831D01*
X11770450Y-10521214D01*
X11770450Y-10515294D01*
X11770722Y-10514017D01*
X11771787Y-10512046D01*
X11772418Y-10509896D01*
X11773416Y-10509032D01*
X11774043Y-10507870D01*
X11776006Y-10506788D01*
X11777699Y-10505321D01*
X11779294Y-10504974D01*
X11780161Y-10504495D01*
X11781179Y-10504563D01*
X11782850Y-10504200D01*
X11787464Y-10504200D01*
X11787464Y-10504200D01*
X11792081Y-10503592D01*
X11792081Y-10503592D01*
X11792082Y-10503592D01*
X11794675Y-10502383D01*
X11797259Y-10501177D01*
X11804167Y-10500128D01*
X11807740Y-10501177D01*
X11809394Y-10501948D01*
X11812918Y-10503592D01*
X11812918Y-10503592D01*
X11812919Y-10503592D01*
X11817536Y-10504200D01*
X11817536Y-10504200D01*
X11837464Y-10504200D01*
X11837464Y-10504200D01*
X11842081Y-10503592D01*
X11842081Y-10503592D01*
X11842082Y-10503592D01*
X11844675Y-10502383D01*
X11847259Y-10501177D01*
X11854167Y-10500128D01*
X11857740Y-10501177D01*
X11859394Y-10501948D01*
X11862918Y-10503592D01*
X11862918Y-10503592D01*
X11862919Y-10503592D01*
X11867536Y-10504200D01*
X11867536Y-10504200D01*
X11887464Y-10504200D01*
X11887464Y-10504200D01*
X11892081Y-10503592D01*
X11892081Y-10503592D01*
X11892082Y-10503592D01*
X11894675Y-10502383D01*
X11897259Y-10501177D01*
X11904167Y-10500128D01*
X11907740Y-10501177D01*
X11909394Y-10501948D01*
X11912918Y-10503592D01*
X11912918Y-10503592D01*
X11912919Y-10503592D01*
X11917536Y-10504200D01*
X11917536Y-10504200D01*
X11937464Y-10504200D01*
X11937464Y-10504200D01*
X11942081Y-10503592D01*
X11942081Y-10503592D01*
X11942082Y-10503592D01*
X11944675Y-10502383D01*
X11947259Y-10501177D01*
X11954167Y-10500128D01*
X11957740Y-10501177D01*
X11959394Y-10501948D01*
X11962918Y-10503592D01*
X11962918Y-10503592D01*
X11962919Y-10503592D01*
X11967536Y-10504200D01*
X11967536Y-10504200D01*
X11987464Y-10504200D01*
X11987464Y-10504200D01*
X11992081Y-10503592D01*
X11992081Y-10503592D01*
X11992082Y-10503592D01*
X11994675Y-10502383D01*
X11997259Y-10501177D01*
X12004167Y-10500128D01*
X12007740Y-10501177D01*
G37*
%TD.AperFunction*%
%TA.AperFunction,Conductor*%
G36*
X11289689Y-9830119D02*
G01*
X11294265Y-9835399D01*
X11295259Y-9842315D01*
X11294572Y-9844819D01*
X11294450Y-9845275D01*
X11291850Y-9854978D01*
X11291850Y-9854978D01*
X11291850Y-9899251D01*
X11289881Y-9905955D01*
X11286307Y-9909582D01*
X11285119Y-9910371D01*
X11282428Y-9911374D01*
X11273214Y-9918272D01*
X11272920Y-9918467D01*
X11269905Y-9919401D01*
X11266948Y-9920504D01*
X11266593Y-9920427D01*
X11266246Y-9920534D01*
X11263205Y-9919689D01*
X11260121Y-9919019D01*
X11259844Y-9918756D01*
X11259514Y-9918665D01*
X11258225Y-9917221D01*
X11255509Y-9914645D01*
X11251994Y-9908946D01*
X11239804Y-9896756D01*
X11239803Y-9896755D01*
X11225131Y-9887705D01*
X11225130Y-9887705D01*
X11208765Y-9882282D01*
X11198665Y-9881250D01*
X11195000Y-9881250D01*
X11195000Y-9967600D01*
X11193031Y-9974304D01*
X11187751Y-9978879D01*
X11182600Y-9980000D01*
X11170000Y-9980000D01*
X11170000Y-9992600D01*
X11168032Y-9999304D01*
X11162751Y-10003879D01*
X11157600Y-10005000D01*
X11072500Y-10005000D01*
X11072500Y-10009915D01*
X11073532Y-10020015D01*
X11078955Y-10036380D01*
X11078955Y-10036381D01*
X11088005Y-10051053D01*
X11088006Y-10051054D01*
X11100196Y-10063244D01*
X11100197Y-10063245D01*
X11114869Y-10072295D01*
X11114870Y-10072295D01*
X11117552Y-10073184D01*
X11123297Y-10077161D01*
X11125979Y-10083613D01*
X11124748Y-10090490D01*
X11121083Y-10094881D01*
X11111102Y-10102353D01*
X11102624Y-10113678D01*
X11102624Y-10113679D01*
X11097680Y-10126934D01*
X11097680Y-10126934D01*
X11097050Y-10132793D01*
X11097050Y-10192205D01*
X11097050Y-10192206D01*
X11097680Y-10198066D01*
X11102624Y-10211321D01*
X11102624Y-10211321D01*
X11102624Y-10211322D01*
X11111103Y-10222647D01*
X11122429Y-10231126D01*
X11135684Y-10236070D01*
X11141544Y-10236700D01*
X11198456Y-10236700D01*
X11204316Y-10236070D01*
X11217571Y-10231126D01*
X11228897Y-10222647D01*
X11237376Y-10211322D01*
X11238382Y-10208624D01*
X11242569Y-10203031D01*
X11249115Y-10200589D01*
X11255943Y-10202074D01*
X11260883Y-10207015D01*
X11261618Y-10208623D01*
X11262624Y-10211322D01*
X11271103Y-10222647D01*
X11282428Y-10231126D01*
X11286483Y-10232638D01*
X11292077Y-10236825D01*
X11294518Y-10243372D01*
X11294550Y-10244256D01*
X11294550Y-10265333D01*
X11294550Y-10274667D01*
X11296966Y-10283683D01*
X11301633Y-10291767D01*
X11371633Y-10361767D01*
X11371633Y-10361767D01*
X11378233Y-10368367D01*
X11384815Y-10372167D01*
X11386317Y-10373034D01*
X11395333Y-10375450D01*
X11395333Y-10375450D01*
X11729650Y-10375450D01*
X11730518Y-10375705D01*
X11731415Y-10375576D01*
X11733819Y-10376674D01*
X11736354Y-10377419D01*
X11736947Y-10378103D01*
X11737770Y-10378479D01*
X11739199Y-10380702D01*
X11740929Y-10382699D01*
X11741158Y-10383750D01*
X11741548Y-10384357D01*
X11742050Y-10387850D01*
X11742050Y-10389862D01*
X11740888Y-10395103D01*
X11740158Y-10396669D01*
X11740158Y-10396669D01*
X11739550Y-10401285D01*
X11739550Y-10401286D01*
X11739550Y-10460900D01*
X11737581Y-10467604D01*
X11732301Y-10472179D01*
X11727150Y-10473300D01*
X11667536Y-10473300D01*
X11667535Y-10473300D01*
X11667534Y-10473300D01*
X11662919Y-10473908D01*
X11662918Y-10473908D01*
X11652787Y-10478632D01*
X11644882Y-10486537D01*
X11640158Y-10496669D01*
X11640158Y-10496669D01*
X11639550Y-10501285D01*
X11639550Y-10501286D01*
X11639550Y-10521214D01*
X11639550Y-10521215D01*
X11640158Y-10525831D01*
X11640158Y-10525831D01*
X11642572Y-10531010D01*
X11642588Y-10531111D01*
X11642655Y-10531190D01*
X11643112Y-10534559D01*
X11643622Y-10537917D01*
X11643584Y-10538045D01*
X11643593Y-10538114D01*
X11642572Y-10541491D01*
X11642572Y-10541492D01*
X11642376Y-10541912D01*
X11637758Y-10547156D01*
X11631038Y-10549070D01*
X11627929Y-10548648D01*
X11617300Y-10545800D01*
X11617300Y-10545800D01*
X11602700Y-10545800D01*
X11588597Y-10549579D01*
X11588597Y-10549579D01*
X11575953Y-10556879D01*
X11575953Y-10556879D01*
X11565629Y-10567203D01*
X11565629Y-10567203D01*
X11558329Y-10579847D01*
X11558329Y-10579847D01*
X11554550Y-10593950D01*
X11554550Y-10609363D01*
X11554410Y-10609363D01*
X11553467Y-10615408D01*
X11548828Y-10620633D01*
X11542101Y-10622521D01*
X11535421Y-10620473D01*
X11530910Y-10615138D01*
X11530632Y-10614457D01*
X11529876Y-10612429D01*
X11521397Y-10601103D01*
X11512871Y-10594720D01*
X11510072Y-10592624D01*
X11510072Y-10592624D01*
X11510071Y-10592624D01*
X11503882Y-10590316D01*
X11496816Y-10587680D01*
X11490956Y-10587050D01*
X11431545Y-10587050D01*
X11431544Y-10587050D01*
X11425684Y-10587680D01*
X11412429Y-10592624D01*
X11412428Y-10592624D01*
X11401103Y-10601103D01*
X11392624Y-10612428D01*
X11392624Y-10612429D01*
X11387680Y-10625684D01*
X11387680Y-10625684D01*
X11387050Y-10631543D01*
X11387050Y-10688455D01*
X11387050Y-10688456D01*
X11387680Y-10694316D01*
X11387680Y-10694316D01*
X11388986Y-10697817D01*
X11388986Y-10697817D01*
X11389205Y-10700878D01*
X11389641Y-10703915D01*
X11389452Y-10704330D01*
X11389484Y-10704786D01*
X11388014Y-10707478D01*
X11386739Y-10710270D01*
X11386354Y-10710517D01*
X11386136Y-10710918D01*
X11383443Y-10712388D01*
X11380861Y-10714048D01*
X11380241Y-10714137D01*
X11380003Y-10714267D01*
X11377368Y-10714550D01*
X11362632Y-10714550D01*
X11355928Y-10712582D01*
X11351353Y-10707301D01*
X11350359Y-10700385D01*
X11351014Y-10697817D01*
X11352320Y-10694316D01*
X11352320Y-10694316D01*
X11352320Y-10694316D01*
X11352728Y-10690517D01*
X11352950Y-10688457D01*
X11352950Y-10688456D01*
X11352950Y-10688456D01*
X11352950Y-10631544D01*
X11352320Y-10625684D01*
X11352320Y-10625684D01*
X11347376Y-10612429D01*
X11347376Y-10612429D01*
X11347376Y-10612429D01*
X11338897Y-10601103D01*
X11330371Y-10594720D01*
X11327572Y-10592624D01*
X11327572Y-10592624D01*
X11327571Y-10592624D01*
X11321382Y-10590316D01*
X11314316Y-10587680D01*
X11308456Y-10587050D01*
X11249045Y-10587050D01*
X11249044Y-10587050D01*
X11243184Y-10587680D01*
X11229929Y-10592624D01*
X11229928Y-10592624D01*
X11218603Y-10601103D01*
X11210124Y-10612428D01*
X11210124Y-10612429D01*
X11205423Y-10625033D01*
X11204096Y-10626806D01*
X11203176Y-10628820D01*
X11202043Y-10629548D01*
X11201236Y-10630627D01*
X11199161Y-10631401D01*
X11197298Y-10632598D01*
X11195106Y-10632913D01*
X11194689Y-10633068D01*
X11193805Y-10633100D01*
X11172189Y-10633100D01*
X11165485Y-10631132D01*
X11163420Y-10629468D01*
X11021782Y-10487830D01*
X11018433Y-10481697D01*
X11018150Y-10479062D01*
X11018150Y-9950085D01*
X11072500Y-9950085D01*
X11072500Y-9955000D01*
X11145000Y-9955000D01*
X11145000Y-9881250D01*
X11141336Y-9881250D01*
X11141334Y-9881250D01*
X11131235Y-9882282D01*
X11114870Y-9887705D01*
X11114869Y-9887705D01*
X11100197Y-9896755D01*
X11100196Y-9896756D01*
X11088006Y-9908946D01*
X11088005Y-9908947D01*
X11078955Y-9923619D01*
X11078955Y-9923620D01*
X11073532Y-9939985D01*
X11072500Y-9950085D01*
X11018150Y-9950085D01*
X11018150Y-9920939D01*
X11020119Y-9914235D01*
X11021782Y-9912170D01*
X11102170Y-9831782D01*
X11108303Y-9828433D01*
X11110939Y-9828150D01*
X11282985Y-9828150D01*
X11289689Y-9830119D01*
G37*
%TD.AperFunction*%
%TA.AperFunction,Conductor*%
G36*
X12555765Y-9830119D02*
G01*
X12557830Y-9831782D01*
X12628218Y-9902170D01*
X12631567Y-9908303D01*
X12631850Y-9910938D01*
X12631850Y-10252098D01*
X12629881Y-10258802D01*
X12624601Y-10263377D01*
X12617685Y-10264372D01*
X12611330Y-10261469D01*
X12610682Y-10260866D01*
X12604334Y-10254518D01*
X12589412Y-10245314D01*
X12589412Y-10245314D01*
X12572770Y-10239799D01*
X12572769Y-10239799D01*
X12562499Y-10238750D01*
X12548750Y-10238750D01*
X12548750Y-10348850D01*
X12546781Y-10355554D01*
X12541501Y-10360129D01*
X12536350Y-10361250D01*
X12511150Y-10361250D01*
X12504446Y-10359282D01*
X12499871Y-10354001D01*
X12498750Y-10348850D01*
X12498750Y-10238750D01*
X12485003Y-10238750D01*
X12485001Y-10238750D01*
X12474730Y-10239799D01*
X12458088Y-10245314D01*
X12458087Y-10245314D01*
X12443165Y-10254518D01*
X12430768Y-10266915D01*
X12421564Y-10281838D01*
X12421564Y-10281838D01*
X12418708Y-10290458D01*
X12414730Y-10296203D01*
X12408279Y-10298885D01*
X12401401Y-10297654D01*
X12396281Y-10292899D01*
X12395319Y-10290892D01*
X12394734Y-10289323D01*
X12390287Y-10283382D01*
X12386040Y-10277710D01*
X12378313Y-10271925D01*
X12374427Y-10269016D01*
X12360834Y-10263946D01*
X12360834Y-10263946D01*
X12354826Y-10263300D01*
X12277675Y-10263300D01*
X12277674Y-10263300D01*
X12271665Y-10263946D01*
X12258074Y-10269016D01*
X12258073Y-10269016D01*
X12246459Y-10277710D01*
X12238060Y-10288930D01*
X12237766Y-10289323D01*
X12233009Y-10302077D01*
X12232696Y-10302916D01*
X12232050Y-10308923D01*
X12232050Y-10310700D01*
X12230081Y-10317404D01*
X12224801Y-10321979D01*
X12219650Y-10323100D01*
X12213727Y-10323100D01*
X12206450Y-10325050D01*
X12204024Y-10325700D01*
X12195325Y-10330722D01*
X12188929Y-10337118D01*
X12188929Y-10337118D01*
X12164831Y-10361216D01*
X12164831Y-10361217D01*
X12159472Y-10366575D01*
X12154450Y-10375275D01*
X12154450Y-10375275D01*
X12151850Y-10384978D01*
X12151850Y-10384978D01*
X12151850Y-10459062D01*
X12150985Y-10462006D01*
X12150333Y-10465004D01*
X12149958Y-10465506D01*
X12149881Y-10465765D01*
X12148218Y-10467830D01*
X12146580Y-10469468D01*
X12140447Y-10472817D01*
X12137811Y-10473100D01*
X12094977Y-10473100D01*
X12094977Y-10473100D01*
X12094265Y-10473194D01*
X12092646Y-10473300D01*
X12077850Y-10473300D01*
X12071146Y-10471332D01*
X12066571Y-10466051D01*
X12065450Y-10460900D01*
X12065450Y-10401286D01*
X12065423Y-10400880D01*
X12065581Y-10400870D01*
X12066555Y-10394614D01*
X12069006Y-10391128D01*
X12168367Y-10291767D01*
X12173034Y-10283683D01*
X12175450Y-10274667D01*
X12175450Y-10265333D01*
X12175450Y-10244256D01*
X12177418Y-10237552D01*
X12182699Y-10232977D01*
X12183515Y-10232639D01*
X12187571Y-10231126D01*
X12198897Y-10222647D01*
X12207376Y-10211322D01*
X12208382Y-10208624D01*
X12212569Y-10203031D01*
X12219115Y-10200589D01*
X12225943Y-10202074D01*
X12230883Y-10207015D01*
X12231618Y-10208623D01*
X12232624Y-10211322D01*
X12241103Y-10222647D01*
X12252428Y-10231126D01*
X12265684Y-10236070D01*
X12271544Y-10236700D01*
X12328456Y-10236700D01*
X12334316Y-10236070D01*
X12347571Y-10231126D01*
X12358897Y-10222647D01*
X12367376Y-10211322D01*
X12372320Y-10198066D01*
X12372671Y-10194800D01*
X12372950Y-10192207D01*
X12372950Y-10192206D01*
X12372950Y-10192206D01*
X12372950Y-10132794D01*
X12372320Y-10126934D01*
X12370825Y-10122926D01*
X12367376Y-10113679D01*
X12367376Y-10113679D01*
X12367376Y-10113679D01*
X12358897Y-10102353D01*
X12348917Y-10094881D01*
X12344730Y-10089288D01*
X12344231Y-10082319D01*
X12347580Y-10076187D01*
X12352448Y-10073184D01*
X12355130Y-10072295D01*
X12355131Y-10072295D01*
X12369803Y-10063245D01*
X12369804Y-10063244D01*
X12381994Y-10051054D01*
X12381995Y-10051053D01*
X12391045Y-10036381D01*
X12391045Y-10036380D01*
X12396468Y-10020015D01*
X12397500Y-10009915D01*
X12397500Y-10009914D01*
X12397500Y-10005000D01*
X12312400Y-10005000D01*
X12305696Y-10003032D01*
X12301121Y-9997751D01*
X12300000Y-9992600D01*
X12300000Y-9980000D01*
X12287400Y-9980000D01*
X12280696Y-9978032D01*
X12276121Y-9972751D01*
X12275000Y-9967600D01*
X12275000Y-9955000D01*
X12325000Y-9955000D01*
X12397500Y-9955000D01*
X12397500Y-9950086D01*
X12397500Y-9950085D01*
X12396468Y-9939985D01*
X12391045Y-9923620D01*
X12391045Y-9923619D01*
X12381995Y-9908947D01*
X12381994Y-9908946D01*
X12369804Y-9896756D01*
X12369803Y-9896755D01*
X12355131Y-9887705D01*
X12355130Y-9887705D01*
X12338765Y-9882282D01*
X12328665Y-9881250D01*
X12325000Y-9881250D01*
X12325000Y-9955000D01*
X12275000Y-9955000D01*
X12275000Y-9881250D01*
X12271336Y-9881250D01*
X12271334Y-9881250D01*
X12261235Y-9882282D01*
X12244870Y-9887705D01*
X12244869Y-9887705D01*
X12230196Y-9896755D01*
X12230196Y-9896756D01*
X12218005Y-9908946D01*
X12214490Y-9914645D01*
X12213664Y-9915389D01*
X12213187Y-9916393D01*
X12211112Y-9917684D01*
X12209295Y-9919318D01*
X12208198Y-9919496D01*
X12207254Y-9920083D01*
X12204811Y-9920047D01*
X12202399Y-9920440D01*
X12201197Y-9919994D01*
X12200268Y-9919980D01*
X12197887Y-9918766D01*
X12197079Y-9918467D01*
X12196787Y-9918273D01*
X12187571Y-9911374D01*
X12184881Y-9910371D01*
X12183693Y-9909582D01*
X12182325Y-9907955D01*
X12180623Y-9906682D01*
X12180121Y-9905335D01*
X12179196Y-9904235D01*
X12178924Y-9902127D01*
X12178182Y-9900135D01*
X12178150Y-9899251D01*
X12178150Y-9860939D01*
X12180118Y-9854235D01*
X12181782Y-9852170D01*
X12202170Y-9831782D01*
X12208303Y-9828433D01*
X12210938Y-9828150D01*
X12549061Y-9828150D01*
X12555765Y-9830119D01*
G37*
%TD.AperFunction*%
%TA.AperFunction,Conductor*%
G36*
X11619689Y-9830119D02*
G01*
X11624265Y-9835399D01*
X11625259Y-9842315D01*
X11624572Y-9844819D01*
X11624450Y-9845275D01*
X11621850Y-9854978D01*
X11621850Y-9854978D01*
X11621850Y-9899251D01*
X11619881Y-9905955D01*
X11616307Y-9909582D01*
X11615119Y-9910371D01*
X11612428Y-9911374D01*
X11603214Y-9918272D01*
X11602920Y-9918467D01*
X11599905Y-9919401D01*
X11596948Y-9920504D01*
X11596593Y-9920427D01*
X11596246Y-9920534D01*
X11593205Y-9919689D01*
X11590121Y-9919019D01*
X11589844Y-9918756D01*
X11589514Y-9918665D01*
X11588225Y-9917221D01*
X11585509Y-9914645D01*
X11581994Y-9908946D01*
X11569804Y-9896756D01*
X11569803Y-9896755D01*
X11555131Y-9887705D01*
X11555130Y-9887705D01*
X11538765Y-9882282D01*
X11528665Y-9881250D01*
X11525000Y-9881250D01*
X11525000Y-9967600D01*
X11523031Y-9974304D01*
X11517751Y-9978879D01*
X11512600Y-9980000D01*
X11487400Y-9980000D01*
X11480696Y-9978032D01*
X11476121Y-9972751D01*
X11475000Y-9967600D01*
X11475000Y-9881250D01*
X11471336Y-9881250D01*
X11471334Y-9881250D01*
X11461235Y-9882282D01*
X11444870Y-9887705D01*
X11444869Y-9887705D01*
X11430196Y-9896755D01*
X11430196Y-9896756D01*
X11418005Y-9908946D01*
X11410731Y-9920739D01*
X11405536Y-9925412D01*
X11398640Y-9926534D01*
X11392655Y-9924087D01*
X11391284Y-9923041D01*
X11388897Y-9919853D01*
X11377571Y-9911374D01*
X11374491Y-9910225D01*
X11373027Y-9909108D01*
X11372005Y-9907716D01*
X11370623Y-9906682D01*
X11369980Y-9904959D01*
X11368892Y-9903476D01*
X11368785Y-9901753D01*
X11368182Y-9900135D01*
X11368150Y-9899251D01*
X11368150Y-9880938D01*
X11370118Y-9874235D01*
X11371782Y-9872170D01*
X11412170Y-9831782D01*
X11418303Y-9828433D01*
X11420938Y-9828150D01*
X11612985Y-9828150D01*
X11619689Y-9830119D01*
G37*
%TD.AperFunction*%
%TA.AperFunction,Conductor*%
G36*
X12096154Y-9830119D02*
G01*
X12100729Y-9835399D01*
X12101850Y-9840550D01*
X12101850Y-9899251D01*
X12099881Y-9905955D01*
X12096307Y-9909582D01*
X12095119Y-9910371D01*
X12092428Y-9911374D01*
X12083214Y-9918272D01*
X12082920Y-9918467D01*
X12079905Y-9919401D01*
X12076948Y-9920504D01*
X12076593Y-9920427D01*
X12076246Y-9920534D01*
X12073205Y-9919689D01*
X12070121Y-9919019D01*
X12069844Y-9918756D01*
X12069514Y-9918665D01*
X12068225Y-9917221D01*
X12065509Y-9914645D01*
X12061994Y-9908946D01*
X12049804Y-9896756D01*
X12049803Y-9896755D01*
X12035131Y-9887705D01*
X12035130Y-9887705D01*
X12018765Y-9882282D01*
X12008665Y-9881250D01*
X12005000Y-9881250D01*
X12005000Y-9967600D01*
X12003031Y-9974304D01*
X11997751Y-9978879D01*
X11992600Y-9980000D01*
X11967400Y-9980000D01*
X11960696Y-9978032D01*
X11956121Y-9972751D01*
X11955000Y-9967600D01*
X11955000Y-9881250D01*
X11951336Y-9881250D01*
X11951334Y-9881250D01*
X11941235Y-9882282D01*
X11924870Y-9887705D01*
X11924869Y-9887705D01*
X11910196Y-9896755D01*
X11910196Y-9896756D01*
X11898005Y-9908946D01*
X11898005Y-9908947D01*
X11894490Y-9914645D01*
X11889295Y-9919318D01*
X11882399Y-9920440D01*
X11876505Y-9918062D01*
X11867572Y-9911374D01*
X11867572Y-9911374D01*
X11867571Y-9911374D01*
X11861496Y-9909108D01*
X11854316Y-9906430D01*
X11848456Y-9905800D01*
X11791545Y-9905800D01*
X11791544Y-9905800D01*
X11785684Y-9906430D01*
X11772429Y-9911374D01*
X11772428Y-9911374D01*
X11761103Y-9919853D01*
X11752624Y-9931178D01*
X11752624Y-9931178D01*
X11752624Y-9931179D01*
X11751652Y-9933784D01*
X11750326Y-9935556D01*
X11749406Y-9937570D01*
X11748273Y-9938299D01*
X11747465Y-9939377D01*
X11745391Y-9940150D01*
X11743528Y-9941348D01*
X11741336Y-9941663D01*
X11740919Y-9941818D01*
X11740034Y-9941850D01*
X11739965Y-9941850D01*
X11733262Y-9939882D01*
X11728686Y-9934601D01*
X11728348Y-9933785D01*
X11727376Y-9931179D01*
X11718897Y-9919853D01*
X11718679Y-9919689D01*
X11707572Y-9911374D01*
X11707572Y-9911374D01*
X11706216Y-9910869D01*
X11704444Y-9909542D01*
X11702430Y-9908622D01*
X11701701Y-9907489D01*
X11700623Y-9906682D01*
X11699849Y-9904607D01*
X11698652Y-9902744D01*
X11698337Y-9900552D01*
X11698182Y-9900135D01*
X11698150Y-9899251D01*
X11698150Y-9880938D01*
X11700118Y-9874235D01*
X11701782Y-9872170D01*
X11742170Y-9831782D01*
X11748303Y-9828433D01*
X11750938Y-9828150D01*
X12089450Y-9828150D01*
X12096154Y-9830119D01*
G37*
%TD.AperFunction*%
%TA.AperFunction,Conductor*%
G36*
X14604254Y-9612019D02*
G01*
X14608829Y-9617299D01*
X14609950Y-9622450D01*
X14609950Y-12487550D01*
X14607981Y-12494254D01*
X14602701Y-12498829D01*
X14597550Y-12499950D01*
X10922450Y-12499950D01*
X10915746Y-12497981D01*
X10911171Y-12492701D01*
X10910050Y-12487550D01*
X10910050Y-12014535D01*
X10912019Y-12007831D01*
X10917299Y-12003255D01*
X10924215Y-12002261D01*
X10929339Y-12004225D01*
X10937618Y-12009757D01*
X10937619Y-12009757D01*
X10953998Y-12016541D01*
X10953999Y-12016541D01*
X10971385Y-12020000D01*
X10971386Y-12020000D01*
X10985250Y-12020000D01*
X10985250Y-11955000D01*
X11035250Y-11955000D01*
X11035250Y-12020000D01*
X11049114Y-12020000D01*
X11049115Y-12020000D01*
X11066501Y-12016541D01*
X11066502Y-12016541D01*
X11082881Y-12009757D01*
X11082882Y-12009757D01*
X11097622Y-11999908D01*
X11097622Y-11999907D01*
X11110157Y-11987372D01*
X11110158Y-11987372D01*
X11120007Y-11972632D01*
X11120007Y-11972631D01*
X11126791Y-11956252D01*
X11126792Y-11956252D01*
X11127040Y-11955000D01*
X11045223Y-11955000D01*
X11054411Y-11951194D01*
X11061444Y-11944161D01*
X11065250Y-11934973D01*
X11065250Y-11925027D01*
X11061444Y-11915839D01*
X11054411Y-11908806D01*
X11045223Y-11905000D01*
X11127040Y-11905000D01*
X11127040Y-11905000D01*
X11126792Y-11903748D01*
X11126791Y-11903748D01*
X11120007Y-11887369D01*
X11120007Y-11887368D01*
X11110158Y-11872628D01*
X11110157Y-11872628D01*
X11097622Y-11860093D01*
X11097622Y-11860092D01*
X11082882Y-11850243D01*
X11082881Y-11850243D01*
X11066502Y-11843459D01*
X11066501Y-11843458D01*
X11049115Y-11840000D01*
X11035250Y-11840000D01*
X11035250Y-11905000D01*
X10985250Y-11905000D01*
X10985250Y-11840000D01*
X10971385Y-11840000D01*
X10953999Y-11843458D01*
X10953998Y-11843459D01*
X10937619Y-11850243D01*
X10937619Y-11850243D01*
X10929339Y-11855775D01*
X10922671Y-11857863D01*
X10915933Y-11856015D01*
X10911264Y-11850817D01*
X10910050Y-11845465D01*
X10910050Y-11116535D01*
X10912019Y-11109831D01*
X10917299Y-11105255D01*
X10924215Y-11104261D01*
X10929339Y-11106225D01*
X10937618Y-11111757D01*
X10937619Y-11111757D01*
X10953998Y-11118541D01*
X10953999Y-11118542D01*
X10971385Y-11122000D01*
X10971386Y-11122000D01*
X10985250Y-11122000D01*
X10985250Y-11057000D01*
X11035250Y-11057000D01*
X11035250Y-11122000D01*
X11049114Y-11122000D01*
X11049115Y-11122000D01*
X11066501Y-11118542D01*
X11066502Y-11118541D01*
X11082881Y-11111757D01*
X11082882Y-11111757D01*
X11097622Y-11101908D01*
X11097622Y-11101907D01*
X11110157Y-11089372D01*
X11110158Y-11089372D01*
X11120007Y-11074632D01*
X11120007Y-11074631D01*
X11126791Y-11058252D01*
X11126792Y-11058252D01*
X11127040Y-11057000D01*
X11045223Y-11057000D01*
X11054411Y-11053194D01*
X11061444Y-11046161D01*
X11065250Y-11036973D01*
X11065250Y-11027027D01*
X11061444Y-11017839D01*
X11054411Y-11010806D01*
X11045223Y-11007000D01*
X11127040Y-11007000D01*
X11126792Y-11005748D01*
X11126791Y-11005748D01*
X11120007Y-10989369D01*
X11120007Y-10989368D01*
X11110158Y-10974628D01*
X11110157Y-10974628D01*
X11097622Y-10962093D01*
X11097622Y-10962092D01*
X11082882Y-10952243D01*
X11082881Y-10952243D01*
X11066502Y-10945459D01*
X11066501Y-10945458D01*
X11049115Y-10942000D01*
X11035250Y-10942000D01*
X11035250Y-11007000D01*
X10985250Y-11007000D01*
X10985250Y-10942000D01*
X10971385Y-10942000D01*
X10953999Y-10945458D01*
X10953998Y-10945459D01*
X10937619Y-10952243D01*
X10937619Y-10952243D01*
X10929339Y-10957775D01*
X10922671Y-10959863D01*
X10915933Y-10958015D01*
X10911264Y-10952817D01*
X10910050Y-10947465D01*
X10910050Y-9894978D01*
X10941850Y-9894978D01*
X10941850Y-10505023D01*
X10944450Y-10514725D01*
X10946126Y-10517629D01*
X10946427Y-10518150D01*
X10946427Y-10518150D01*
X10946427Y-10518150D01*
X10949472Y-10523425D01*
X11127825Y-10701778D01*
X11136525Y-10706800D01*
X11146228Y-10709400D01*
X11146228Y-10709400D01*
X11157032Y-10709400D01*
X11157034Y-10709400D01*
X11205286Y-10709400D01*
X11211990Y-10711369D01*
X11215213Y-10714369D01*
X11218602Y-10718897D01*
X11218603Y-10718898D01*
X11221699Y-10721215D01*
X11229928Y-10727376D01*
X11243184Y-10732320D01*
X11249044Y-10732950D01*
X11256980Y-10732950D01*
X11259104Y-10733574D01*
X11261313Y-10733732D01*
X11262391Y-10734539D01*
X11263684Y-10734918D01*
X11265134Y-10736592D01*
X11266906Y-10737919D01*
X11267377Y-10739181D01*
X11268259Y-10740199D01*
X11268574Y-10742391D01*
X11269348Y-10744465D01*
X11269062Y-10745781D01*
X11269254Y-10747115D01*
X11268334Y-10749129D01*
X11267863Y-10751293D01*
X11266536Y-10753065D01*
X11266351Y-10753470D01*
X11265748Y-10754118D01*
X11256983Y-10762883D01*
X11256983Y-10762884D01*
X11256363Y-10763503D01*
X11250230Y-10766851D01*
X11248921Y-10767063D01*
X11243184Y-10767680D01*
X11229929Y-10772624D01*
X11229928Y-10772624D01*
X11218603Y-10781103D01*
X11210124Y-10792428D01*
X11210124Y-10792429D01*
X11205180Y-10805684D01*
X11205180Y-10805684D01*
X11204550Y-10811543D01*
X11204550Y-10868455D01*
X11204550Y-10868456D01*
X11205180Y-10874316D01*
X11210124Y-10887571D01*
X11210124Y-10887571D01*
X11210124Y-10887572D01*
X11218603Y-10898897D01*
X11229928Y-10907376D01*
X11235233Y-10909355D01*
X11240827Y-10913541D01*
X11243268Y-10920088D01*
X11243300Y-10920973D01*
X11243300Y-11486083D01*
X11243300Y-11495417D01*
X11245716Y-11504433D01*
X11250383Y-11512517D01*
X11327233Y-11589367D01*
X11335317Y-11594034D01*
X11344333Y-11596450D01*
X11353667Y-11596450D01*
X11379465Y-11596450D01*
X11386169Y-11598418D01*
X11390745Y-11603699D01*
X11391739Y-11610615D01*
X11390204Y-11615050D01*
X11387579Y-11619597D01*
X11387579Y-11619597D01*
X11383800Y-11633700D01*
X11383800Y-11648300D01*
X11387242Y-11661146D01*
X11387579Y-11662403D01*
X11387579Y-11662403D01*
X11394736Y-11674800D01*
X11396383Y-11681590D01*
X11394736Y-11687200D01*
X11387579Y-11699597D01*
X11387579Y-11699597D01*
X11383800Y-11713700D01*
X11383800Y-11728300D01*
X11387203Y-11741002D01*
X11387579Y-11742403D01*
X11387579Y-11742403D01*
X11394879Y-11755047D01*
X11394879Y-11755047D01*
X11394879Y-11755047D01*
X11405203Y-11765371D01*
X11405203Y-11765371D01*
X11405203Y-11765371D01*
X11407286Y-11766574D01*
X11417847Y-11772671D01*
X11423241Y-11774116D01*
X11423908Y-11774523D01*
X11424686Y-11774601D01*
X11426849Y-11776316D01*
X11429206Y-11777753D01*
X11429687Y-11778566D01*
X11430161Y-11778942D01*
X11430832Y-11780506D01*
X11431765Y-11782086D01*
X11433646Y-11787592D01*
X11433782Y-11790703D01*
X11433901Y-11791815D01*
X11437650Y-11791000D01*
X11443895Y-11791000D01*
X11463214Y-11771680D01*
X11465782Y-11769710D01*
X11473297Y-11765371D01*
X11483621Y-11755047D01*
X11483621Y-11755047D01*
X11484196Y-11754472D01*
X11484307Y-11754583D01*
X11484938Y-11754123D01*
X11485963Y-11752753D01*
X11487701Y-11752105D01*
X11489199Y-11751011D01*
X11490907Y-11750909D01*
X11491942Y-11750523D01*
X11489250Y-11757022D01*
X11489250Y-11764978D01*
X11492295Y-11772329D01*
X11497921Y-11777955D01*
X11505087Y-11780923D01*
X11501095Y-11786898D01*
X11494872Y-11801921D01*
X11494872Y-11801922D01*
X11493418Y-11809232D01*
X11490180Y-11815423D01*
X11490025Y-11815581D01*
X11475250Y-11830355D01*
X11475250Y-11869000D01*
X11425250Y-11869000D01*
X11425250Y-11803454D01*
X11424979Y-11803615D01*
X11424401Y-11803687D01*
X11424209Y-11803785D01*
X11423881Y-11803753D01*
X11421912Y-11804000D01*
X11411385Y-11804000D01*
X11393999Y-11807458D01*
X11393998Y-11807459D01*
X11377619Y-11814243D01*
X11377618Y-11814243D01*
X11362878Y-11824092D01*
X11362878Y-11824093D01*
X11350343Y-11836628D01*
X11350342Y-11836628D01*
X11340493Y-11851368D01*
X11340493Y-11851369D01*
X11333709Y-11867748D01*
X11333708Y-11867748D01*
X11333460Y-11869000D01*
X11415277Y-11869000D01*
X11406089Y-11872806D01*
X11399056Y-11879839D01*
X11395250Y-11889027D01*
X11395250Y-11898973D01*
X11399056Y-11908161D01*
X11406089Y-11915194D01*
X11415277Y-11919000D01*
X11333460Y-11919000D01*
X11333708Y-11920252D01*
X11333709Y-11920252D01*
X11340493Y-11936631D01*
X11340493Y-11936632D01*
X11350342Y-11951372D01*
X11350343Y-11951372D01*
X11362878Y-11963907D01*
X11362878Y-11963908D01*
X11377618Y-11973757D01*
X11377619Y-11973757D01*
X11393998Y-11980541D01*
X11393999Y-11980541D01*
X11411385Y-11984000D01*
X11411386Y-11984000D01*
X11425250Y-11984000D01*
X11425250Y-11919000D01*
X11475250Y-11919000D01*
X11475250Y-11984000D01*
X11489114Y-11984000D01*
X11489115Y-11984000D01*
X11506501Y-11980541D01*
X11506502Y-11980541D01*
X11522881Y-11973757D01*
X11522882Y-11973757D01*
X11537622Y-11963908D01*
X11537622Y-11963907D01*
X11548829Y-11952700D01*
X12044550Y-11952700D01*
X12044550Y-11967300D01*
X12048098Y-11980541D01*
X12048329Y-11981403D01*
X12048329Y-11981403D01*
X12055629Y-11994047D01*
X12055629Y-11994047D01*
X12055629Y-11994047D01*
X12065953Y-12004371D01*
X12065953Y-12004371D01*
X12065953Y-12004371D01*
X12069374Y-12006346D01*
X12074195Y-12011403D01*
X12075518Y-12018264D01*
X12072921Y-12024750D01*
X12071942Y-12025853D01*
X12066868Y-12030927D01*
X12066867Y-12030928D01*
X12061050Y-12042345D01*
X12059550Y-12051816D01*
X12059550Y-12175684D01*
X12061050Y-12185155D01*
X12061050Y-12185155D01*
X12066867Y-12196572D01*
X12075918Y-12205623D01*
X12077389Y-12208316D01*
X12079048Y-12210898D01*
X12079137Y-12211517D01*
X12079267Y-12211755D01*
X12079550Y-12214391D01*
X12079550Y-12220426D01*
X12077581Y-12227130D01*
X12072301Y-12231705D01*
X12071483Y-12232044D01*
X12069928Y-12232624D01*
X12069928Y-12232624D01*
X12058603Y-12241102D01*
X12050124Y-12252428D01*
X12050124Y-12252429D01*
X12045180Y-12265684D01*
X12045180Y-12265684D01*
X12044550Y-12271543D01*
X12044550Y-12328455D01*
X12044550Y-12328456D01*
X12045180Y-12334316D01*
X12050124Y-12347571D01*
X12050124Y-12347571D01*
X12050124Y-12347571D01*
X12058603Y-12358897D01*
X12069928Y-12367376D01*
X12083184Y-12372320D01*
X12089044Y-12372950D01*
X12148456Y-12372950D01*
X12154316Y-12372320D01*
X12167571Y-12367376D01*
X12178897Y-12358897D01*
X12186369Y-12348917D01*
X12191962Y-12344730D01*
X12198931Y-12344231D01*
X12205063Y-12347580D01*
X12208066Y-12352448D01*
X12208955Y-12355130D01*
X12208955Y-12355131D01*
X12218005Y-12369803D01*
X12218005Y-12369804D01*
X12230196Y-12381994D01*
X12230196Y-12381995D01*
X12244869Y-12391045D01*
X12244870Y-12391045D01*
X12261235Y-12396468D01*
X12271335Y-12397500D01*
X12326250Y-12397500D01*
X12331164Y-12397500D01*
X12331165Y-12397500D01*
X12341265Y-12396468D01*
X12357630Y-12391045D01*
X12357631Y-12391045D01*
X12372303Y-12381995D01*
X12372304Y-12381994D01*
X12384494Y-12369804D01*
X12384495Y-12369803D01*
X12393545Y-12355131D01*
X12393545Y-12355130D01*
X12398968Y-12338765D01*
X12400000Y-12328665D01*
X12400000Y-12328664D01*
X12400000Y-12325000D01*
X12326250Y-12325000D01*
X12326250Y-12397500D01*
X12271335Y-12397500D01*
X12276250Y-12397500D01*
X12276250Y-12397500D01*
X12276250Y-12250500D01*
X12326250Y-12250500D01*
X12326250Y-12275000D01*
X12400000Y-12275000D01*
X12400000Y-12271336D01*
X12400000Y-12271334D01*
X12398968Y-12261235D01*
X12393545Y-12244870D01*
X12393545Y-12244869D01*
X12384495Y-12230196D01*
X12384494Y-12230196D01*
X12376780Y-12222482D01*
X12373432Y-12216350D01*
X12373930Y-12209381D01*
X12374875Y-12207402D01*
X12380128Y-12198520D01*
X12380128Y-12198519D01*
X12384710Y-12182749D01*
X12384710Y-12182749D01*
X12385000Y-12179065D01*
X12385000Y-12179063D01*
X12385000Y-12138750D01*
X12330000Y-12138750D01*
X12330000Y-12241614D01*
X12329135Y-12244558D01*
X12328483Y-12247556D01*
X12328108Y-12248058D01*
X12328031Y-12248318D01*
X12326368Y-12250382D01*
X12326250Y-12250500D01*
X12276250Y-12250500D01*
X12276250Y-12198386D01*
X12278218Y-12191682D01*
X12279882Y-12189618D01*
X12280000Y-12189500D01*
X12280000Y-12138750D01*
X12225000Y-12138750D01*
X12225000Y-12179065D01*
X12225290Y-12182749D01*
X12225290Y-12182749D01*
X12229872Y-12198519D01*
X12229872Y-12198519D01*
X12232337Y-12202689D01*
X12234056Y-12209461D01*
X12231840Y-12216088D01*
X12230432Y-12217769D01*
X12218005Y-12230196D01*
X12208955Y-12244869D01*
X12208955Y-12244870D01*
X12208066Y-12247552D01*
X12204088Y-12253297D01*
X12197637Y-12255979D01*
X12190759Y-12254748D01*
X12186368Y-12251083D01*
X12178897Y-12241103D01*
X12167571Y-12232624D01*
X12167571Y-12232624D01*
X12167571Y-12232624D01*
X12158517Y-12229247D01*
X12156744Y-12227920D01*
X12154730Y-12227000D01*
X12154001Y-12225867D01*
X12152923Y-12225060D01*
X12152149Y-12222985D01*
X12150952Y-12221122D01*
X12150637Y-12218930D01*
X12150482Y-12218513D01*
X12150450Y-12217629D01*
X12150450Y-12214391D01*
X12152418Y-12207687D01*
X12154081Y-12205623D01*
X12163133Y-12196572D01*
X12168950Y-12185155D01*
X12168950Y-12185155D01*
X12168950Y-12185155D01*
X12170450Y-12175684D01*
X12170450Y-12051816D01*
X12168950Y-12042345D01*
X12168950Y-12042345D01*
X12168950Y-12042344D01*
X12168627Y-12041711D01*
X12167337Y-12034844D01*
X12169965Y-12028370D01*
X12175675Y-12024344D01*
X12181615Y-12023834D01*
X12182344Y-12023950D01*
X12182344Y-12023950D01*
X12184457Y-12024284D01*
X12191816Y-12025450D01*
X12214382Y-12025450D01*
X12221086Y-12027418D01*
X12225662Y-12032699D01*
X12226656Y-12039615D01*
X12226290Y-12041310D01*
X12225290Y-12044751D01*
X12225290Y-12044751D01*
X12225000Y-12048435D01*
X12225000Y-12088750D01*
X12280000Y-12088750D01*
X12280000Y-11990270D01*
X12279120Y-11990340D01*
X12279104Y-11990127D01*
X12278077Y-11990019D01*
X12276085Y-11990306D01*
X12274673Y-11989661D01*
X12273129Y-11989498D01*
X12271560Y-11988239D01*
X12269730Y-11987403D01*
X12268890Y-11986097D01*
X12267680Y-11985126D01*
X12267040Y-11983218D01*
X12265952Y-11981525D01*
X12265561Y-11978807D01*
X12265459Y-11978501D01*
X12265450Y-11978032D01*
X12265450Y-11974100D01*
X12267418Y-11967396D01*
X12272699Y-11962821D01*
X12277850Y-11961700D01*
X12296430Y-11961700D01*
X12303134Y-11963668D01*
X12305198Y-11965332D01*
X12326368Y-11986502D01*
X12329717Y-11992634D01*
X12330000Y-11995270D01*
X12330000Y-12088750D01*
X12385000Y-12088750D01*
X12385000Y-12078939D01*
X12386968Y-12072235D01*
X12392249Y-12067660D01*
X12399165Y-12066666D01*
X12405520Y-12069568D01*
X12409018Y-12074606D01*
X12410124Y-12077571D01*
X12418603Y-12088897D01*
X12429928Y-12097376D01*
X12443184Y-12102320D01*
X12449044Y-12102950D01*
X12508456Y-12102950D01*
X12514316Y-12102320D01*
X12527571Y-12097376D01*
X12538897Y-12088897D01*
X12547376Y-12077571D01*
X12552320Y-12064316D01*
X12552776Y-12060070D01*
X12552950Y-12058457D01*
X12552950Y-12058456D01*
X12552950Y-12058456D01*
X12552950Y-12001544D01*
X12552320Y-11995684D01*
X12550013Y-11989498D01*
X12547376Y-11982429D01*
X12547376Y-11982429D01*
X12547376Y-11982428D01*
X12538897Y-11971103D01*
X12527571Y-11962624D01*
X12521358Y-11960307D01*
X12514316Y-11957680D01*
X12508456Y-11957050D01*
X12449045Y-11957050D01*
X12449044Y-11957050D01*
X12443184Y-11957680D01*
X12429929Y-11962624D01*
X12429928Y-11962624D01*
X12422991Y-11967817D01*
X12416445Y-11970259D01*
X12409617Y-11968773D01*
X12406792Y-11966658D01*
X12338017Y-11897883D01*
X12338017Y-11897883D01*
X12329933Y-11893216D01*
X12329933Y-11893216D01*
X12326928Y-11892411D01*
X12320917Y-11890800D01*
X12320917Y-11890800D01*
X12277850Y-11890800D01*
X12271146Y-11888831D01*
X12266571Y-11883551D01*
X12265450Y-11878400D01*
X12265450Y-11864316D01*
X12263950Y-11854845D01*
X12263780Y-11854510D01*
X12258133Y-11843428D01*
X12258132Y-11843427D01*
X12258132Y-11843427D01*
X12248382Y-11833677D01*
X12248664Y-11833395D01*
X12245582Y-11829399D01*
X12244985Y-11822437D01*
X12248245Y-11816258D01*
X12254329Y-11812822D01*
X12257138Y-11812500D01*
X12264997Y-11812500D01*
X12264999Y-11812500D01*
X12275270Y-11811450D01*
X12291912Y-11805936D01*
X12291912Y-11805936D01*
X12306834Y-11796731D01*
X12319231Y-11784334D01*
X12328436Y-11769412D01*
X12328436Y-11769412D01*
X12333950Y-11752770D01*
X12333951Y-11752769D01*
X12335000Y-11742499D01*
X12335000Y-11742497D01*
X12335000Y-11721250D01*
X12175000Y-11721250D01*
X12175000Y-11812500D01*
X12176043Y-11813543D01*
X12179392Y-11819676D01*
X12178894Y-11826645D01*
X12174706Y-11832238D01*
X12172905Y-11833360D01*
X12170928Y-11834367D01*
X12170927Y-11834368D01*
X12161868Y-11843427D01*
X12161867Y-11843428D01*
X12156050Y-11854845D01*
X12154550Y-11864316D01*
X12154550Y-11906217D01*
X12152581Y-11912920D01*
X12147301Y-11917496D01*
X12140385Y-11918490D01*
X12134601Y-11916054D01*
X12134047Y-11915629D01*
X12121403Y-11908329D01*
X12121403Y-11908329D01*
X12121403Y-11908329D01*
X12107300Y-11904550D01*
X12092700Y-11904550D01*
X12078597Y-11908329D01*
X12078597Y-11908329D01*
X12065953Y-11915629D01*
X12065953Y-11915629D01*
X12055629Y-11925953D01*
X12055629Y-11925953D01*
X12048329Y-11938597D01*
X12048329Y-11938597D01*
X12044550Y-11952700D01*
X11548829Y-11952700D01*
X11550157Y-11951372D01*
X11550158Y-11951371D01*
X11554416Y-11944998D01*
X11554416Y-11944998D01*
X11555052Y-11944046D01*
X11560414Y-11939566D01*
X11565510Y-11938764D01*
X11565510Y-11938550D01*
X11582381Y-11938550D01*
X11593110Y-11936416D01*
X11598329Y-11935378D01*
X11610225Y-11930450D01*
X11613352Y-11929155D01*
X11613352Y-11929155D01*
X11622042Y-11923348D01*
X11626872Y-11920121D01*
X11638371Y-11908622D01*
X11645547Y-11897883D01*
X11647405Y-11895102D01*
X11647405Y-11895102D01*
X11650526Y-11887567D01*
X11653628Y-11880079D01*
X11655074Y-11872806D01*
X11656800Y-11864131D01*
X11656800Y-11833400D01*
X11658768Y-11826696D01*
X11664049Y-11822121D01*
X11669200Y-11821000D01*
X11680033Y-11821000D01*
X11680034Y-11821000D01*
X11685987Y-11820360D01*
X11685988Y-11820360D01*
X11699459Y-11815335D01*
X11699459Y-11815335D01*
X11710969Y-11806719D01*
X11710969Y-11806719D01*
X11719585Y-11795209D01*
X11719585Y-11795209D01*
X11724610Y-11781738D01*
X11724610Y-11781737D01*
X11725250Y-11775784D01*
X11725250Y-11775783D01*
X11725250Y-11771000D01*
X11680234Y-11771000D01*
X11673530Y-11769031D01*
X11668955Y-11763751D01*
X11667960Y-11756835D01*
X11670863Y-11750480D01*
X11676087Y-11746914D01*
X11677395Y-11746450D01*
X11677757Y-11746450D01*
X11685180Y-11744973D01*
X11689284Y-11742231D01*
X11690741Y-11741714D01*
X11692749Y-11741603D01*
X11694667Y-11741002D01*
X11694888Y-11741000D01*
X11725250Y-11741000D01*
X11725250Y-11736217D01*
X11725250Y-11736215D01*
X11724610Y-11730263D01*
X11724610Y-11730262D01*
X11719585Y-11716791D01*
X11719585Y-11716791D01*
X11711343Y-11705781D01*
X11708901Y-11699235D01*
X11710386Y-11692407D01*
X11715327Y-11687467D01*
X11721270Y-11685950D01*
X11734864Y-11685950D01*
X11735010Y-11685942D01*
X11737638Y-11685801D01*
X11740274Y-11685518D01*
X11749936Y-11682492D01*
X11756068Y-11679144D01*
X11756492Y-11678827D01*
X11761980Y-11674719D01*
X11761980Y-11674718D01*
X11761981Y-11674717D01*
X11767301Y-11669398D01*
X11773433Y-11666049D01*
X11780402Y-11666548D01*
X11785996Y-11670735D01*
X11787840Y-11674265D01*
X11788955Y-11677630D01*
X11788955Y-11677631D01*
X11798005Y-11692303D01*
X11798005Y-11692304D01*
X11810196Y-11704494D01*
X11810196Y-11704495D01*
X11824869Y-11713545D01*
X11824870Y-11713545D01*
X11841235Y-11718968D01*
X11851335Y-11720000D01*
X11855000Y-11720000D01*
X11855000Y-11633650D01*
X11856968Y-11626946D01*
X11862249Y-11622371D01*
X11867400Y-11621250D01*
X11892600Y-11621250D01*
X11899304Y-11623218D01*
X11903879Y-11628499D01*
X11905000Y-11633650D01*
X11905000Y-11720000D01*
X11908664Y-11720000D01*
X11908665Y-11720000D01*
X11918765Y-11718968D01*
X11935130Y-11713545D01*
X11935131Y-11713545D01*
X11946090Y-11706785D01*
X11952829Y-11704941D01*
X11959496Y-11707033D01*
X11963973Y-11712397D01*
X11965000Y-11717339D01*
X11965000Y-11742497D01*
X11965000Y-11742499D01*
X11966049Y-11752770D01*
X11971564Y-11769412D01*
X11971564Y-11769412D01*
X11980768Y-11784334D01*
X11993165Y-11796731D01*
X12008087Y-11805936D01*
X12008088Y-11805936D01*
X12024730Y-11811450D01*
X12024731Y-11811451D01*
X12035002Y-11812500D01*
X12125000Y-11812500D01*
X12125000Y-11812500D01*
X12125000Y-11708650D01*
X12126968Y-11701946D01*
X12132249Y-11697371D01*
X12137400Y-11696250D01*
X12150000Y-11696250D01*
X12150000Y-11683650D01*
X12151968Y-11676946D01*
X12157249Y-11672371D01*
X12162400Y-11671250D01*
X12335000Y-11671250D01*
X12336007Y-11670242D01*
X12342140Y-11666894D01*
X12349109Y-11667392D01*
X12353544Y-11670242D01*
X12437720Y-11754418D01*
X12441068Y-11760551D01*
X12440570Y-11767520D01*
X12436383Y-11773113D01*
X12433285Y-11774804D01*
X12432977Y-11774920D01*
X12432429Y-11775124D01*
X12432428Y-11775124D01*
X12421103Y-11783603D01*
X12412624Y-11794928D01*
X12412624Y-11794929D01*
X12407680Y-11808184D01*
X12407680Y-11808184D01*
X12407050Y-11814043D01*
X12407050Y-11880955D01*
X12407050Y-11880956D01*
X12407680Y-11886816D01*
X12412624Y-11900071D01*
X12412624Y-11900071D01*
X12412624Y-11900071D01*
X12421103Y-11911397D01*
X12432428Y-11919876D01*
X12445684Y-11924820D01*
X12451544Y-11925450D01*
X12508456Y-11925450D01*
X12514316Y-11924820D01*
X12527571Y-11919876D01*
X12538897Y-11911397D01*
X12547376Y-11900071D01*
X12550753Y-11891016D01*
X12554940Y-11885423D01*
X12561487Y-11882982D01*
X12562371Y-11882950D01*
X12587680Y-11882950D01*
X12594384Y-11884918D01*
X12596448Y-11886582D01*
X12622168Y-11912302D01*
X12625517Y-11918434D01*
X12625800Y-11921070D01*
X12625800Y-11949027D01*
X12623831Y-11955731D01*
X12618551Y-11960307D01*
X12617733Y-11960645D01*
X12614382Y-11961895D01*
X12612428Y-11962624D01*
X12612428Y-11962624D01*
X12612428Y-11962624D01*
X12601103Y-11971103D01*
X12592624Y-11982428D01*
X12592624Y-11982429D01*
X12587680Y-11995684D01*
X12587680Y-11995684D01*
X12587050Y-12001543D01*
X12587050Y-12058455D01*
X12587050Y-12058456D01*
X12587680Y-12064316D01*
X12592624Y-12077571D01*
X12592624Y-12077571D01*
X12592624Y-12077571D01*
X12601103Y-12088897D01*
X12612428Y-12097376D01*
X12625684Y-12102320D01*
X12631544Y-12102950D01*
X12690956Y-12102950D01*
X12696816Y-12102320D01*
X12710071Y-12097376D01*
X12721397Y-12088897D01*
X12729876Y-12077571D01*
X12734820Y-12064316D01*
X12735276Y-12060070D01*
X12735450Y-12058457D01*
X12735450Y-12058456D01*
X12735450Y-12058456D01*
X12735450Y-12001544D01*
X12734820Y-11995684D01*
X12732513Y-11989498D01*
X12729876Y-11982429D01*
X12729876Y-11982429D01*
X12729876Y-11982428D01*
X12721397Y-11971103D01*
X12710071Y-11962624D01*
X12706322Y-11961225D01*
X12704766Y-11960645D01*
X12699173Y-11956458D01*
X12696732Y-11949912D01*
X12696700Y-11949027D01*
X12696700Y-11896583D01*
X12696700Y-11896583D01*
X12694284Y-11887567D01*
X12689617Y-11879483D01*
X12683017Y-11872883D01*
X12629267Y-11819133D01*
X12621183Y-11814466D01*
X12621183Y-11814466D01*
X12617740Y-11813543D01*
X12612167Y-11812050D01*
X12612167Y-11812050D01*
X12562371Y-11812050D01*
X12560356Y-11811458D01*
X12558258Y-11811348D01*
X12557071Y-11810493D01*
X12555667Y-11810081D01*
X12554292Y-11808494D01*
X12552587Y-11807267D01*
X12551423Y-11805183D01*
X12551092Y-11804801D01*
X12550837Y-11804202D01*
X12550794Y-11804094D01*
X12547376Y-11794928D01*
X12546956Y-11794367D01*
X12546377Y-11792902D01*
X12546129Y-11790158D01*
X12545543Y-11787465D01*
X12545818Y-11786727D01*
X12545748Y-11785943D01*
X12547022Y-11783501D01*
X12547985Y-11780919D01*
X12548615Y-11780447D01*
X12548980Y-11779749D01*
X12551372Y-11778383D01*
X12553578Y-11776732D01*
X12554583Y-11776550D01*
X12555048Y-11776285D01*
X12555826Y-11776326D01*
X12557912Y-11775950D01*
X12742150Y-11775950D01*
X12748854Y-11777918D01*
X12753429Y-11783199D01*
X12754550Y-11788350D01*
X12754550Y-11885333D01*
X12754550Y-11894667D01*
X12756966Y-11903683D01*
X12758506Y-11906351D01*
X12761633Y-11911767D01*
X12761633Y-11911767D01*
X12801275Y-11951408D01*
X12804623Y-11957541D01*
X12804125Y-11964510D01*
X12799938Y-11970103D01*
X12799201Y-11970654D01*
X12798602Y-11971103D01*
X12790124Y-11982428D01*
X12790124Y-11982429D01*
X12785180Y-11995684D01*
X12785180Y-11995684D01*
X12784550Y-12001543D01*
X12784550Y-12058455D01*
X12784550Y-12058456D01*
X12785180Y-12064316D01*
X12790124Y-12077571D01*
X12790124Y-12077571D01*
X12790124Y-12077571D01*
X12798603Y-12088897D01*
X12809928Y-12097376D01*
X12823184Y-12102320D01*
X12825206Y-12102537D01*
X12826450Y-12102671D01*
X12832905Y-12105345D01*
X12836890Y-12111084D01*
X12837139Y-12118067D01*
X12833574Y-12124076D01*
X12827326Y-12127203D01*
X12826449Y-12127329D01*
X12823184Y-12127680D01*
X12809929Y-12132624D01*
X12809928Y-12132624D01*
X12798603Y-12141103D01*
X12790124Y-12152428D01*
X12790124Y-12152428D01*
X12790124Y-12152428D01*
X12788612Y-12156483D01*
X12787285Y-12158256D01*
X12786365Y-12160270D01*
X12785232Y-12160998D01*
X12784425Y-12162077D01*
X12782350Y-12162850D01*
X12780487Y-12164048D01*
X12778295Y-12164363D01*
X12777878Y-12164518D01*
X12776994Y-12164550D01*
X12768104Y-12164550D01*
X12761400Y-12162581D01*
X12759336Y-12160918D01*
X12754047Y-12155629D01*
X12754047Y-12155629D01*
X12741403Y-12148329D01*
X12741403Y-12148329D01*
X12741403Y-12148329D01*
X12727300Y-12144550D01*
X12712700Y-12144550D01*
X12698597Y-12148329D01*
X12698597Y-12148329D01*
X12685953Y-12155629D01*
X12685953Y-12155629D01*
X12675629Y-12165953D01*
X12675629Y-12165953D01*
X12668329Y-12178597D01*
X12668329Y-12178597D01*
X12664550Y-12192700D01*
X12664550Y-12207300D01*
X12667666Y-12218930D01*
X12668329Y-12221403D01*
X12668329Y-12221403D01*
X12675629Y-12234047D01*
X12675629Y-12234047D01*
X12675629Y-12234047D01*
X12685953Y-12244371D01*
X12685953Y-12244371D01*
X12685953Y-12244371D01*
X12691463Y-12247552D01*
X12698597Y-12251671D01*
X12712700Y-12255450D01*
X12712700Y-12255450D01*
X12727300Y-12255450D01*
X12727300Y-12255450D01*
X12741403Y-12251671D01*
X12754047Y-12244371D01*
X12759336Y-12239082D01*
X12762029Y-12237611D01*
X12764611Y-12235952D01*
X12765231Y-12235863D01*
X12765469Y-12235733D01*
X12768104Y-12235450D01*
X12776994Y-12235450D01*
X12783698Y-12237418D01*
X12788273Y-12242699D01*
X12788611Y-12243515D01*
X12790124Y-12247571D01*
X12798603Y-12258897D01*
X12809928Y-12267376D01*
X12823184Y-12272320D01*
X12829044Y-12272950D01*
X12888456Y-12272950D01*
X12894316Y-12272320D01*
X12907571Y-12267376D01*
X12918897Y-12258897D01*
X12927376Y-12247571D01*
X12932320Y-12234316D01*
X12932668Y-12231073D01*
X12932950Y-12228457D01*
X12932950Y-12228456D01*
X12932950Y-12228456D01*
X12932950Y-12171544D01*
X12932320Y-12165684D01*
X12931897Y-12164550D01*
X12927376Y-12152429D01*
X12927376Y-12152429D01*
X12927376Y-12152428D01*
X12918897Y-12141103D01*
X12907571Y-12132624D01*
X12903523Y-12131114D01*
X12894316Y-12127680D01*
X12891050Y-12127329D01*
X12884595Y-12124655D01*
X12880610Y-12118915D01*
X12880361Y-12111933D01*
X12883926Y-12105924D01*
X12890174Y-12102797D01*
X12891050Y-12102671D01*
X12893662Y-12102390D01*
X12894316Y-12102320D01*
X12902409Y-12099301D01*
X12907571Y-12097376D01*
X12918897Y-12088897D01*
X12927376Y-12077571D01*
X12932320Y-12064316D01*
X12932776Y-12060070D01*
X12932950Y-12058457D01*
X12932950Y-12058456D01*
X12932950Y-12058456D01*
X12932950Y-12053020D01*
X12933574Y-12050895D01*
X12933732Y-12048687D01*
X12934539Y-12047608D01*
X12934918Y-12046316D01*
X12936592Y-12044866D01*
X12937919Y-12043093D01*
X12939181Y-12042623D01*
X12940199Y-12041741D01*
X12942390Y-12041425D01*
X12944465Y-12040652D01*
X12945781Y-12040938D01*
X12947114Y-12040746D01*
X12949129Y-12041666D01*
X12951293Y-12042137D01*
X12953065Y-12043464D01*
X12953470Y-12043649D01*
X12954118Y-12044252D01*
X12963804Y-12053937D01*
X12967152Y-12060070D01*
X12967364Y-12061380D01*
X12967680Y-12064316D01*
X12972624Y-12077571D01*
X12972624Y-12077571D01*
X12972624Y-12077571D01*
X12981103Y-12088897D01*
X12992428Y-12097376D01*
X12997733Y-12099354D01*
X12999506Y-12100681D01*
X13001520Y-12101601D01*
X13002248Y-12102734D01*
X13003327Y-12103541D01*
X13004100Y-12105616D01*
X13005298Y-12107479D01*
X13005613Y-12109671D01*
X13005768Y-12110088D01*
X13005800Y-12110972D01*
X13005800Y-12119027D01*
X13003831Y-12125731D01*
X12998551Y-12130307D01*
X12997733Y-12130645D01*
X12994382Y-12131895D01*
X12992428Y-12132624D01*
X12992428Y-12132624D01*
X12992428Y-12132624D01*
X12981103Y-12141103D01*
X12972624Y-12152428D01*
X12972624Y-12152429D01*
X12967680Y-12165684D01*
X12967680Y-12165684D01*
X12967050Y-12171543D01*
X12967050Y-12228455D01*
X12967050Y-12228456D01*
X12967680Y-12234316D01*
X12972624Y-12247571D01*
X12972624Y-12247571D01*
X12972624Y-12247571D01*
X12981103Y-12258897D01*
X12992428Y-12267376D01*
X13005684Y-12272320D01*
X13011544Y-12272950D01*
X13070956Y-12272950D01*
X13076816Y-12272320D01*
X13090071Y-12267376D01*
X13101397Y-12258897D01*
X13109876Y-12247571D01*
X13114820Y-12234316D01*
X13115168Y-12231073D01*
X13115450Y-12228457D01*
X13115450Y-12228456D01*
X13115450Y-12228456D01*
X13115450Y-12171544D01*
X13114820Y-12165684D01*
X13114397Y-12164550D01*
X13109876Y-12152429D01*
X13109876Y-12152429D01*
X13109876Y-12152428D01*
X13101397Y-12141103D01*
X13090071Y-12132624D01*
X13086322Y-12131225D01*
X13084766Y-12130645D01*
X13082994Y-12129318D01*
X13080980Y-12128399D01*
X13080251Y-12127266D01*
X13079173Y-12126458D01*
X13078399Y-12124384D01*
X13077202Y-12122521D01*
X13076887Y-12120329D01*
X13076732Y-12119912D01*
X13076700Y-12119027D01*
X13076700Y-12110972D01*
X13078668Y-12104269D01*
X13083949Y-12099693D01*
X13084764Y-12099355D01*
X13090071Y-12097376D01*
X13101397Y-12088897D01*
X13109876Y-12077571D01*
X13114820Y-12064316D01*
X13115276Y-12060070D01*
X13115450Y-12058457D01*
X13115450Y-12058456D01*
X13115450Y-12058456D01*
X13115450Y-12001544D01*
X13114820Y-11995684D01*
X13112513Y-11989498D01*
X13109566Y-11981598D01*
X13109769Y-11981522D01*
X13108541Y-11975877D01*
X13110982Y-11969330D01*
X13112140Y-11967993D01*
X13141766Y-11938367D01*
X13141767Y-11938367D01*
X13146944Y-11933189D01*
X13152163Y-11930340D01*
X13153076Y-11929841D01*
X13153076Y-11929841D01*
X13153077Y-11929841D01*
X13153283Y-11929798D01*
X13157430Y-11928973D01*
X13165848Y-11923348D01*
X13171473Y-11914930D01*
X13172950Y-11907507D01*
X13172950Y-11812493D01*
X13171473Y-11805070D01*
X13169607Y-11802276D01*
X13165848Y-11796651D01*
X13160237Y-11792902D01*
X13157430Y-11791027D01*
X13157430Y-11791026D01*
X13157430Y-11791026D01*
X13150007Y-11789550D01*
X13089994Y-11789550D01*
X13082570Y-11791027D01*
X13082569Y-11791027D01*
X13079739Y-11792918D01*
X13073071Y-11795006D01*
X13066333Y-11793157D01*
X13061664Y-11787959D01*
X13060450Y-11782608D01*
X13060450Y-11770333D01*
X13060383Y-11770081D01*
X13058034Y-11761317D01*
X13053367Y-11753233D01*
X13046767Y-11746633D01*
X13037184Y-11737050D01*
X13033836Y-11730918D01*
X13034334Y-11723949D01*
X13037184Y-11719514D01*
X13066476Y-11690223D01*
X13072607Y-11686875D01*
X13079577Y-11687373D01*
X13082132Y-11688681D01*
X13082570Y-11688973D01*
X13082570Y-11688973D01*
X13082570Y-11688973D01*
X13085067Y-11689470D01*
X13089993Y-11690450D01*
X13150007Y-11690450D01*
X13157430Y-11688973D01*
X13165848Y-11683348D01*
X13171473Y-11674930D01*
X13172950Y-11667507D01*
X13172950Y-11667506D01*
X13173010Y-11666901D01*
X13173223Y-11666921D01*
X13174918Y-11661146D01*
X13180199Y-11656571D01*
X13185350Y-11655450D01*
X13434782Y-11655450D01*
X13441486Y-11657418D01*
X13446062Y-11662699D01*
X13447111Y-11666525D01*
X13447151Y-11666894D01*
X13447680Y-11671816D01*
X13452624Y-11685071D01*
X13452624Y-11685072D01*
X13453170Y-11685801D01*
X13461103Y-11696397D01*
X13472428Y-11704876D01*
X13478212Y-11707033D01*
X13481828Y-11708382D01*
X13487422Y-11712569D01*
X13489863Y-11719115D01*
X13488378Y-11725943D01*
X13483438Y-11730883D01*
X13481828Y-11731618D01*
X13477897Y-11733085D01*
X13472428Y-11735124D01*
X13472428Y-11735124D01*
X13472428Y-11735124D01*
X13461103Y-11743603D01*
X13452624Y-11754928D01*
X13452624Y-11754929D01*
X13447680Y-11768184D01*
X13447680Y-11768184D01*
X13447050Y-11774043D01*
X13447050Y-11840955D01*
X13447050Y-11840956D01*
X13447680Y-11846816D01*
X13452624Y-11860071D01*
X13452624Y-11860072D01*
X13452640Y-11860093D01*
X13461103Y-11871397D01*
X13472428Y-11879876D01*
X13485684Y-11884820D01*
X13491544Y-11885450D01*
X13548456Y-11885450D01*
X13554316Y-11884820D01*
X13567571Y-11879876D01*
X13578897Y-11871397D01*
X13587376Y-11860071D01*
X13590753Y-11851016D01*
X13594940Y-11845423D01*
X13601487Y-11842982D01*
X13602371Y-11842950D01*
X13657629Y-11842950D01*
X13664333Y-11844918D01*
X13668908Y-11850199D01*
X13669247Y-11851017D01*
X13672624Y-11860071D01*
X13672624Y-11860072D01*
X13672640Y-11860093D01*
X13681103Y-11871397D01*
X13692428Y-11879876D01*
X13705684Y-11884820D01*
X13711544Y-11885450D01*
X13768456Y-11885450D01*
X13774316Y-11884820D01*
X13787571Y-11879876D01*
X13790761Y-11877488D01*
X13797308Y-11875046D01*
X13804135Y-11876531D01*
X13809075Y-11881472D01*
X13810433Y-11885431D01*
X13810888Y-11888244D01*
X13810888Y-11888245D01*
X13814483Y-11897883D01*
X13815917Y-11901726D01*
X13818155Y-11905826D01*
X13819073Y-11907507D01*
X13819265Y-11907858D01*
X13827888Y-11919376D01*
X13827888Y-11919376D01*
X13827889Y-11919377D01*
X13870063Y-11961551D01*
X13910624Y-12002112D01*
X13910625Y-12002114D01*
X13910626Y-12002114D01*
X13914648Y-12005727D01*
X13914649Y-12005728D01*
X13914650Y-12005729D01*
X13915416Y-12006346D01*
X13916714Y-12007392D01*
X13918908Y-12008974D01*
X13921103Y-12010557D01*
X13934190Y-12016534D01*
X13940894Y-12018502D01*
X13940895Y-12018502D01*
X13955136Y-12020550D01*
X13955136Y-12020550D01*
X14454864Y-12020550D01*
X14455879Y-12020495D01*
X14460268Y-12020260D01*
X14460269Y-12020260D01*
X14460269Y-12020260D01*
X14460269Y-12020260D01*
X14460968Y-12020185D01*
X14462904Y-12019977D01*
X14462905Y-12019977D01*
X14462905Y-12019977D01*
X14463865Y-12019821D01*
X14468245Y-12019111D01*
X14481726Y-12014083D01*
X14487858Y-12010735D01*
X14499376Y-12002112D01*
X14512112Y-11989376D01*
X14515729Y-11985350D01*
X14517205Y-11983518D01*
X14517391Y-11983288D01*
X14517391Y-11983287D01*
X14517392Y-11983286D01*
X14520562Y-11978889D01*
X14521030Y-11977864D01*
X14522850Y-11975032D01*
X14525207Y-11968712D01*
X14526537Y-11965800D01*
X14526613Y-11965540D01*
X14526613Y-11965540D01*
X14527308Y-11963170D01*
X14527310Y-11963165D01*
X14527434Y-11962742D01*
X14527878Y-11961551D01*
X14528146Y-11960317D01*
X14528441Y-11959315D01*
X14528490Y-11959159D01*
X14528502Y-11959105D01*
X14528709Y-11957667D01*
X14530550Y-11944864D01*
X14530550Y-11565136D01*
X14530546Y-11565070D01*
X14530260Y-11559731D01*
X14530260Y-11559731D01*
X14530141Y-11558620D01*
X14529977Y-11557096D01*
X14529111Y-11551755D01*
X14524083Y-11538274D01*
X14520735Y-11532142D01*
X14512112Y-11520624D01*
X14512112Y-11520623D01*
X14512111Y-11520623D01*
X14479378Y-11487889D01*
X14479376Y-11487888D01*
X14479374Y-11487885D01*
X14475352Y-11484273D01*
X14475351Y-11484272D01*
X14473286Y-11482608D01*
X14468897Y-11479443D01*
X14455810Y-11473466D01*
X14449105Y-11471498D01*
X14444358Y-11470815D01*
X14434864Y-11469450D01*
X14434864Y-11469450D01*
X14146075Y-11469450D01*
X14139371Y-11467481D01*
X14137306Y-11465818D01*
X14028377Y-11356888D01*
X14028376Y-11356888D01*
X14026288Y-11354800D01*
X14022000Y-11350512D01*
X14021999Y-11350510D01*
X14021991Y-11350502D01*
X14021989Y-11350501D01*
X14018795Y-11347306D01*
X14018794Y-11347306D01*
X14014088Y-11343513D01*
X14010380Y-11340525D01*
X14010380Y-11340525D01*
X14010380Y-11340525D01*
X13997293Y-11334548D01*
X13991375Y-11332811D01*
X13991216Y-11332761D01*
X13991160Y-11332747D01*
X13976919Y-11330700D01*
X13942492Y-11330700D01*
X13940581Y-11330139D01*
X13938589Y-11330070D01*
X13936335Y-11328892D01*
X13935788Y-11328731D01*
X13935431Y-11328493D01*
X13935246Y-11328365D01*
X13924427Y-11320266D01*
X13922535Y-11319560D01*
X13921260Y-11318677D01*
X13920000Y-11317117D01*
X13918394Y-11315915D01*
X13917850Y-11314454D01*
X13916870Y-11313242D01*
X13916654Y-11311248D01*
X13915953Y-11309369D01*
X13916284Y-11307845D01*
X13916116Y-11306296D01*
X13917011Y-11304501D01*
X13917438Y-11302542D01*
X13919045Y-11299598D01*
X13922103Y-11285539D01*
X13922602Y-11278570D01*
X13921575Y-11264219D01*
X13916547Y-11250738D01*
X13913198Y-11244606D01*
X13904576Y-11233088D01*
X13904576Y-11233087D01*
X13904575Y-11233087D01*
X13902119Y-11230631D01*
X13898771Y-11224498D01*
X13899269Y-11217529D01*
X13901312Y-11214801D01*
X14081900Y-11214801D01*
X14081900Y-11239199D01*
X14085716Y-11263296D01*
X14093256Y-11286500D01*
X14104332Y-11308238D01*
X14111054Y-11317490D01*
X14111054Y-11317490D01*
X14172969Y-11255576D01*
X14174867Y-11260157D01*
X14182527Y-11271622D01*
X14192278Y-11281373D01*
X14203743Y-11289033D01*
X14208324Y-11290931D01*
X14146410Y-11352845D01*
X14146410Y-11352846D01*
X14155662Y-11359568D01*
X14177400Y-11370644D01*
X14200604Y-11378183D01*
X14224701Y-11382000D01*
X14249099Y-11382000D01*
X14273196Y-11378183D01*
X14296400Y-11370644D01*
X14318138Y-11359568D01*
X14327390Y-11352845D01*
X14327390Y-11352845D01*
X14265476Y-11290931D01*
X14270057Y-11289033D01*
X14281522Y-11281373D01*
X14291273Y-11271622D01*
X14298933Y-11260157D01*
X14300831Y-11255576D01*
X14362745Y-11317490D01*
X14362745Y-11317490D01*
X14369468Y-11308238D01*
X14380544Y-11286500D01*
X14388083Y-11263296D01*
X14391900Y-11239199D01*
X14391900Y-11214801D01*
X14388083Y-11190704D01*
X14380544Y-11167500D01*
X14369468Y-11145762D01*
X14362746Y-11136510D01*
X14362745Y-11136510D01*
X14300831Y-11198424D01*
X14298933Y-11193843D01*
X14291273Y-11182378D01*
X14281522Y-11172627D01*
X14270057Y-11164967D01*
X14265476Y-11163069D01*
X14327390Y-11101154D01*
X14327390Y-11101154D01*
X14318138Y-11094432D01*
X14296400Y-11083356D01*
X14273196Y-11075817D01*
X14249099Y-11072000D01*
X14224701Y-11072000D01*
X14200604Y-11075817D01*
X14177400Y-11083356D01*
X14155663Y-11094432D01*
X14146410Y-11101154D01*
X14208324Y-11163069D01*
X14203743Y-11164967D01*
X14192278Y-11172627D01*
X14182527Y-11182378D01*
X14174867Y-11193843D01*
X14172969Y-11198424D01*
X14111054Y-11136510D01*
X14104332Y-11145763D01*
X14093256Y-11167500D01*
X14085716Y-11190704D01*
X14081900Y-11214801D01*
X13901312Y-11214801D01*
X13903456Y-11211936D01*
X13909627Y-11209527D01*
X13915270Y-11208951D01*
X13931912Y-11203436D01*
X13931912Y-11203436D01*
X13946834Y-11194231D01*
X13959231Y-11181835D01*
X13968436Y-11166912D01*
X13968436Y-11166912D01*
X13973950Y-11150270D01*
X13973951Y-11150269D01*
X13975000Y-11139999D01*
X13975000Y-11139997D01*
X13975000Y-11118750D01*
X13605000Y-11118750D01*
X13605000Y-11134979D01*
X13603032Y-11141683D01*
X13597751Y-11146258D01*
X13590835Y-11147253D01*
X13584480Y-11144350D01*
X13582673Y-11142410D01*
X13582097Y-11141640D01*
X13573540Y-11130210D01*
X13573540Y-11130210D01*
X13573540Y-11130209D01*
X13562573Y-11122000D01*
X13561927Y-11121516D01*
X13548334Y-11116446D01*
X13548334Y-11116446D01*
X13542326Y-11115800D01*
X13437675Y-11115800D01*
X13437674Y-11115800D01*
X13431665Y-11116446D01*
X13418074Y-11121516D01*
X13418073Y-11121516D01*
X13406459Y-11130210D01*
X13397766Y-11141823D01*
X13397766Y-11141823D01*
X13392696Y-11155416D01*
X13392696Y-11155416D01*
X13392425Y-11156143D01*
X13392193Y-11156056D01*
X13389337Y-11161072D01*
X13383146Y-11164312D01*
X13380726Y-11164550D01*
X13145520Y-11164550D01*
X13138816Y-11162582D01*
X13134241Y-11157301D01*
X13133246Y-11150385D01*
X13136149Y-11144030D01*
X13136752Y-11143382D01*
X13161867Y-11118267D01*
X13161867Y-11118267D01*
X13163340Y-11115716D01*
X13166534Y-11110183D01*
X13168950Y-11101167D01*
X13168950Y-11047501D01*
X13605000Y-11047501D01*
X13605000Y-11068750D01*
X13765000Y-11068750D01*
X13815000Y-11068750D01*
X13975000Y-11068750D01*
X13975000Y-11047503D01*
X13975000Y-11047501D01*
X13973950Y-11037230D01*
X13968436Y-11020588D01*
X13968436Y-11020588D01*
X13959231Y-11005665D01*
X13946834Y-10993268D01*
X13931912Y-10984064D01*
X13931912Y-10984064D01*
X13915270Y-10978549D01*
X13915269Y-10978549D01*
X13904999Y-10977500D01*
X13815000Y-10977500D01*
X13815000Y-11068750D01*
X13765000Y-11068750D01*
X13765000Y-10977500D01*
X13675003Y-10977500D01*
X13675001Y-10977500D01*
X13664730Y-10978549D01*
X13648088Y-10984064D01*
X13648087Y-10984064D01*
X13633165Y-10993268D01*
X13620768Y-11005665D01*
X13611564Y-11020588D01*
X13611564Y-11020588D01*
X13606049Y-11037230D01*
X13606049Y-11037231D01*
X13605000Y-11047501D01*
X13168950Y-11047501D01*
X13168950Y-10971086D01*
X13170918Y-10964382D01*
X13174414Y-10960807D01*
X13176483Y-10959411D01*
X13178430Y-10959023D01*
X13186848Y-10953398D01*
X13188044Y-10951609D01*
X13190064Y-10950246D01*
X13191165Y-10949896D01*
X13192051Y-10949155D01*
X13194433Y-10948856D01*
X13196722Y-10948128D01*
X13197837Y-10948429D01*
X13198983Y-10948285D01*
X13201149Y-10949321D01*
X13203468Y-10949946D01*
X13204244Y-10950802D01*
X13205286Y-10951300D01*
X13206799Y-10953046D01*
X13207151Y-10953398D01*
X13208125Y-10954049D01*
X13215570Y-10959023D01*
X13215570Y-10959023D01*
X13215570Y-10959024D01*
X13217920Y-10959491D01*
X13222993Y-10960500D01*
X13298007Y-10960500D01*
X13305430Y-10959023D01*
X13313848Y-10953398D01*
X13319473Y-10944980D01*
X13320950Y-10937557D01*
X13320950Y-10780043D01*
X13319473Y-10772620D01*
X13317528Y-10769708D01*
X13313848Y-10764202D01*
X13308200Y-10760428D01*
X13305430Y-10758577D01*
X13305430Y-10758577D01*
X13304301Y-10758109D01*
X13304398Y-10757875D01*
X13299739Y-10755437D01*
X13296282Y-10749365D01*
X13295950Y-10746514D01*
X13295950Y-10655833D01*
X13295164Y-10652900D01*
X13293534Y-10646817D01*
X13288867Y-10638733D01*
X13282267Y-10632133D01*
X13221767Y-10571633D01*
X13213683Y-10566966D01*
X13213683Y-10566966D01*
X13210678Y-10566161D01*
X13204667Y-10564550D01*
X13204667Y-10564550D01*
X13163006Y-10564550D01*
X13156302Y-10562582D01*
X13151727Y-10557301D01*
X13151389Y-10556485D01*
X13149876Y-10552429D01*
X13141397Y-10541103D01*
X13130071Y-10532624D01*
X13125742Y-10531010D01*
X13124766Y-10530646D01*
X13119173Y-10526458D01*
X13116732Y-10519912D01*
X13116700Y-10519027D01*
X13116700Y-10488570D01*
X13118668Y-10481866D01*
X13120331Y-10479802D01*
X13141060Y-10459074D01*
X13147192Y-10455726D01*
X13154161Y-10456224D01*
X13159754Y-10460411D01*
X13159982Y-10460716D01*
X13159982Y-10460716D01*
X13168246Y-10471754D01*
X13178996Y-10479802D01*
X13179284Y-10480018D01*
X13179284Y-10480018D01*
X13184240Y-10481866D01*
X13190491Y-10484198D01*
X13192202Y-10484836D01*
X13192202Y-10484836D01*
X13192203Y-10484836D01*
X13197914Y-10485450D01*
X13197915Y-10485450D01*
X13252085Y-10485450D01*
X13252086Y-10485450D01*
X13257797Y-10484836D01*
X13270716Y-10480018D01*
X13281754Y-10471754D01*
X13290017Y-10460716D01*
X13294836Y-10447797D01*
X13295450Y-10442086D01*
X13295450Y-10357914D01*
X13294836Y-10352203D01*
X13293585Y-10348850D01*
X13290018Y-10339284D01*
X13290017Y-10339284D01*
X13288446Y-10337184D01*
X13281754Y-10328246D01*
X13270716Y-10319983D01*
X13270716Y-10319982D01*
X13270716Y-10319982D01*
X13257798Y-10315164D01*
X13257798Y-10315164D01*
X13257797Y-10315164D01*
X13257797Y-10315164D01*
X13252086Y-10314550D01*
X13197914Y-10314550D01*
X13192203Y-10315164D01*
X13192202Y-10315164D01*
X13192202Y-10315164D01*
X13179284Y-10319982D01*
X13179284Y-10319982D01*
X13168246Y-10328246D01*
X13159982Y-10339284D01*
X13159982Y-10339284D01*
X13155164Y-10352202D01*
X13155164Y-10352203D01*
X13154997Y-10353752D01*
X13154459Y-10355052D01*
X13154395Y-10356457D01*
X13153149Y-10358215D01*
X13152324Y-10360207D01*
X13151088Y-10361123D01*
X13150355Y-10362157D01*
X13148302Y-10363187D01*
X13147302Y-10363928D01*
X13145759Y-10364550D01*
X13145333Y-10364550D01*
X13136317Y-10366966D01*
X13129117Y-10371123D01*
X13128361Y-10371559D01*
X13128360Y-10371559D01*
X13128233Y-10371633D01*
X13059483Y-10440383D01*
X13052883Y-10446983D01*
X13052883Y-10446983D01*
X13048216Y-10455067D01*
X13048216Y-10455067D01*
X13046357Y-10462006D01*
X13045800Y-10464083D01*
X13045800Y-10519027D01*
X13043831Y-10525731D01*
X13038551Y-10530307D01*
X13037733Y-10530646D01*
X13034892Y-10531706D01*
X13032428Y-10532624D01*
X13032428Y-10532624D01*
X13032428Y-10532624D01*
X13021103Y-10541103D01*
X13012624Y-10552428D01*
X13012624Y-10552429D01*
X13007680Y-10565684D01*
X13007680Y-10565684D01*
X13007050Y-10571543D01*
X13007050Y-10628455D01*
X13007050Y-10628456D01*
X13007680Y-10634316D01*
X13012624Y-10647571D01*
X13012624Y-10647572D01*
X13021103Y-10658897D01*
X13021730Y-10659525D01*
X13021616Y-10659639D01*
X13025195Y-10664419D01*
X13025693Y-10671388D01*
X13022345Y-10677521D01*
X13022345Y-10677521D01*
X12984733Y-10715133D01*
X12978133Y-10721733D01*
X12978133Y-10721733D01*
X12973466Y-10729817D01*
X12972626Y-10732950D01*
X12971651Y-10736592D01*
X12971050Y-10738833D01*
X12971050Y-10746514D01*
X12969081Y-10753218D01*
X12965586Y-10756793D01*
X12963517Y-10758189D01*
X12961570Y-10758577D01*
X12953152Y-10764202D01*
X12951956Y-10765990D01*
X12949936Y-10767354D01*
X12948835Y-10767704D01*
X12947948Y-10768445D01*
X12945566Y-10768744D01*
X12943278Y-10769472D01*
X12942162Y-10769171D01*
X12941016Y-10769315D01*
X12938850Y-10768279D01*
X12936531Y-10767654D01*
X12935755Y-10766798D01*
X12934713Y-10766299D01*
X12933200Y-10764554D01*
X12932848Y-10764202D01*
X12927200Y-10760428D01*
X12924430Y-10758577D01*
X12924430Y-10758577D01*
X12923301Y-10758109D01*
X12923398Y-10757875D01*
X12922117Y-10757204D01*
X12919230Y-10755886D01*
X12919044Y-10755597D01*
X12918739Y-10755437D01*
X12917169Y-10752679D01*
X12915452Y-10750008D01*
X12915386Y-10749548D01*
X12915282Y-10749365D01*
X12914950Y-10746514D01*
X12914950Y-10740320D01*
X12916918Y-10733616D01*
X12918582Y-10731552D01*
X12922758Y-10727376D01*
X12927117Y-10723017D01*
X12931784Y-10714933D01*
X12934200Y-10705917D01*
X12934200Y-10696583D01*
X12934200Y-10680973D01*
X12936168Y-10674269D01*
X12941449Y-10669693D01*
X12942264Y-10669355D01*
X12947571Y-10667376D01*
X12958897Y-10658897D01*
X12967376Y-10647572D01*
X12972320Y-10634316D01*
X12972728Y-10630520D01*
X12972950Y-10628457D01*
X12972950Y-10628456D01*
X12972950Y-10628456D01*
X12972950Y-10571544D01*
X12972320Y-10565684D01*
X12972320Y-10565684D01*
X12967376Y-10552429D01*
X12967376Y-10552429D01*
X12967376Y-10552429D01*
X12958897Y-10541103D01*
X12947571Y-10532624D01*
X12947571Y-10532624D01*
X12947571Y-10532624D01*
X12938517Y-10529247D01*
X12932923Y-10525060D01*
X12930482Y-10518513D01*
X12930450Y-10517629D01*
X12930450Y-10492456D01*
X12932418Y-10485752D01*
X12937699Y-10481177D01*
X12938517Y-10480838D01*
X12940716Y-10480018D01*
X12940716Y-10480018D01*
X12940716Y-10480018D01*
X12951754Y-10471754D01*
X12960017Y-10460716D01*
X12964836Y-10447797D01*
X12964923Y-10446983D01*
X12964973Y-10446524D01*
X12967647Y-10440069D01*
X12973386Y-10436085D01*
X12977302Y-10435450D01*
X12994667Y-10435450D01*
X12994667Y-10435450D01*
X13003683Y-10433034D01*
X13011767Y-10428367D01*
X13109617Y-10330517D01*
X13110416Y-10329133D01*
X13114284Y-10322433D01*
X13116700Y-10313417D01*
X13116700Y-10260973D01*
X13118668Y-10254269D01*
X13123949Y-10249693D01*
X13124764Y-10249355D01*
X13130071Y-10247376D01*
X13141397Y-10238897D01*
X13149876Y-10227572D01*
X13154820Y-10214316D01*
X13155168Y-10211073D01*
X13155450Y-10208457D01*
X13155450Y-10208456D01*
X13155450Y-10208456D01*
X13155450Y-10151544D01*
X13154820Y-10145684D01*
X13154397Y-10144550D01*
X13149876Y-10132429D01*
X13149876Y-10132429D01*
X13149876Y-10132429D01*
X13141397Y-10121103D01*
X13130071Y-10112624D01*
X13124803Y-10110659D01*
X13116816Y-10107680D01*
X13110956Y-10107050D01*
X13051545Y-10107050D01*
X13051544Y-10107050D01*
X13045684Y-10107680D01*
X13032429Y-10112624D01*
X13032428Y-10112624D01*
X13021103Y-10121103D01*
X13012624Y-10132428D01*
X13012624Y-10132429D01*
X13007680Y-10145684D01*
X13007680Y-10145684D01*
X13007050Y-10151543D01*
X13007050Y-10208455D01*
X13007050Y-10208456D01*
X13007680Y-10214316D01*
X13012624Y-10227571D01*
X13012624Y-10227572D01*
X13012947Y-10228003D01*
X13021103Y-10238897D01*
X13032428Y-10247376D01*
X13037733Y-10249355D01*
X13043327Y-10253541D01*
X13045768Y-10260088D01*
X13045800Y-10260973D01*
X13045800Y-10288930D01*
X13043831Y-10295634D01*
X13042168Y-10297698D01*
X12984681Y-10355185D01*
X12978548Y-10358534D01*
X12971579Y-10358035D01*
X12965986Y-10353848D01*
X12964294Y-10350751D01*
X12960018Y-10339284D01*
X12960017Y-10339284D01*
X12958446Y-10337184D01*
X12951754Y-10328246D01*
X12940716Y-10319983D01*
X12940716Y-10319982D01*
X12940716Y-10319982D01*
X12927798Y-10315164D01*
X12927798Y-10315164D01*
X12927797Y-10315164D01*
X12927797Y-10315164D01*
X12922086Y-10314550D01*
X12867914Y-10314550D01*
X12862203Y-10315164D01*
X12862202Y-10315164D01*
X12862202Y-10315164D01*
X12849284Y-10319982D01*
X12849284Y-10319982D01*
X12838246Y-10328246D01*
X12829982Y-10339284D01*
X12829982Y-10339284D01*
X12825164Y-10352202D01*
X12825164Y-10352203D01*
X12825164Y-10352203D01*
X12824550Y-10357914D01*
X12824550Y-10442086D01*
X12825076Y-10446983D01*
X12825164Y-10447798D01*
X12829982Y-10460716D01*
X12829982Y-10460716D01*
X12829982Y-10460716D01*
X12838246Y-10471754D01*
X12848996Y-10479802D01*
X12849284Y-10480018D01*
X12849284Y-10480018D01*
X12851483Y-10480838D01*
X12857077Y-10485025D01*
X12859518Y-10491571D01*
X12859550Y-10492456D01*
X12859550Y-10520426D01*
X12857581Y-10527130D01*
X12852301Y-10531706D01*
X12851483Y-10532044D01*
X12849928Y-10532624D01*
X12849928Y-10532624D01*
X12838603Y-10541103D01*
X12830124Y-10552428D01*
X12830124Y-10552429D01*
X12825180Y-10565684D01*
X12825180Y-10565684D01*
X12824550Y-10571543D01*
X12824550Y-10628455D01*
X12824550Y-10628456D01*
X12825180Y-10634316D01*
X12830124Y-10647571D01*
X12830124Y-10647571D01*
X12830124Y-10647572D01*
X12838603Y-10658897D01*
X12849928Y-10667376D01*
X12855233Y-10669355D01*
X12857006Y-10670681D01*
X12859020Y-10671601D01*
X12859748Y-10672734D01*
X12860827Y-10673541D01*
X12861600Y-10675616D01*
X12862798Y-10677479D01*
X12863113Y-10679671D01*
X12863268Y-10680088D01*
X12863300Y-10680973D01*
X12863300Y-10681430D01*
X12861331Y-10688134D01*
X12859668Y-10690198D01*
X12851133Y-10698733D01*
X12851133Y-10698733D01*
X12846466Y-10706817D01*
X12844050Y-10715833D01*
X12844050Y-10746514D01*
X12842081Y-10753218D01*
X12836801Y-10757794D01*
X12835251Y-10758295D01*
X12834570Y-10758577D01*
X12826151Y-10764202D01*
X12820527Y-10772620D01*
X12820526Y-10772620D01*
X12819050Y-10780043D01*
X12819050Y-10937556D01*
X12820527Y-10944980D01*
X12826151Y-10953398D01*
X12827125Y-10954049D01*
X12834570Y-10959023D01*
X12834570Y-10959023D01*
X12835698Y-10959491D01*
X12835601Y-10959725D01*
X12840259Y-10962162D01*
X12843717Y-10968233D01*
X12844050Y-10971086D01*
X12844050Y-11060680D01*
X12842081Y-11067384D01*
X12840418Y-11069448D01*
X12800198Y-11109668D01*
X12794066Y-11113017D01*
X12791430Y-11113300D01*
X12740973Y-11113300D01*
X12734269Y-11111332D01*
X12729693Y-11106051D01*
X12729354Y-11105234D01*
X12729049Y-11104415D01*
X12727376Y-11099929D01*
X12718897Y-11088603D01*
X12709832Y-11081816D01*
X12707572Y-11080124D01*
X12707572Y-11080124D01*
X12707571Y-11080124D01*
X12702303Y-11078159D01*
X12694316Y-11075180D01*
X12688456Y-11074550D01*
X12631545Y-11074550D01*
X12631544Y-11074550D01*
X12625684Y-11075180D01*
X12612429Y-11080124D01*
X12612428Y-11080124D01*
X12601103Y-11088602D01*
X12601103Y-11088603D01*
X12600103Y-11089938D01*
X12594510Y-11094125D01*
X12587541Y-11094623D01*
X12582576Y-11091912D01*
X12582411Y-11092128D01*
X12581767Y-11091633D01*
X12581767Y-11091633D01*
X12573683Y-11086966D01*
X12573683Y-11086966D01*
X12570678Y-11086161D01*
X12564667Y-11084550D01*
X12564667Y-11084550D01*
X12549274Y-11084550D01*
X12542570Y-11082582D01*
X12537994Y-11077301D01*
X12537595Y-11076135D01*
X12537575Y-11076143D01*
X12532234Y-11061824D01*
X12532234Y-11061824D01*
X12532234Y-11061823D01*
X12525774Y-11053194D01*
X12523540Y-11050210D01*
X12513909Y-11043000D01*
X12511927Y-11041516D01*
X12498334Y-11036446D01*
X12498334Y-11036446D01*
X12492326Y-11035800D01*
X12387675Y-11035800D01*
X12387674Y-11035800D01*
X12381665Y-11036446D01*
X12368074Y-11041516D01*
X12368073Y-11041516D01*
X12356459Y-11050210D01*
X12347766Y-11061823D01*
X12347766Y-11061823D01*
X12342696Y-11075416D01*
X12342696Y-11075416D01*
X12342050Y-11081423D01*
X12342050Y-11158575D01*
X12342050Y-11158576D01*
X12342696Y-11164584D01*
X12347765Y-11178176D01*
X12347766Y-11178176D01*
X12347766Y-11178177D01*
X12349645Y-11180687D01*
X12352289Y-11184219D01*
X12354731Y-11190765D01*
X12353245Y-11197593D01*
X12348305Y-11202533D01*
X12342362Y-11204050D01*
X12267850Y-11204050D01*
X12261146Y-11202081D01*
X12256571Y-11196801D01*
X12255450Y-11191650D01*
X12255450Y-11143684D01*
X12257418Y-11136980D01*
X12260961Y-11133374D01*
X12268097Y-11128606D01*
X12278606Y-11118097D01*
X12286863Y-11105739D01*
X12292550Y-11092008D01*
X12295450Y-11077431D01*
X12295450Y-11062569D01*
X12292550Y-11047992D01*
X12286863Y-11034261D01*
X12286043Y-11033034D01*
X12278606Y-11021904D01*
X12278605Y-11021903D01*
X12268097Y-11011395D01*
X12268096Y-11011394D01*
X12255739Y-11003137D01*
X12242008Y-10997450D01*
X12242007Y-10997449D01*
X12227432Y-10994550D01*
X12227431Y-10994550D01*
X12212569Y-10994550D01*
X12212568Y-10994550D01*
X12204152Y-10996224D01*
X12197192Y-10995602D01*
X12192964Y-10992831D01*
X12171767Y-10971633D01*
X12171767Y-10971633D01*
X12163683Y-10966966D01*
X12163683Y-10966966D01*
X12160678Y-10966161D01*
X12154667Y-10964550D01*
X12154667Y-10964550D01*
X12099820Y-10964550D01*
X12093116Y-10962582D01*
X12091052Y-10960918D01*
X12066582Y-10936448D01*
X12063233Y-10930316D01*
X12062950Y-10927680D01*
X12062950Y-10882638D01*
X12064112Y-10877397D01*
X12064211Y-10877186D01*
X12064842Y-10875831D01*
X12065450Y-10871214D01*
X12065450Y-10836150D01*
X12067418Y-10829446D01*
X12072699Y-10824871D01*
X12077850Y-10823750D01*
X12087500Y-10823750D01*
X12087500Y-10773750D01*
X12084118Y-10770368D01*
X12080770Y-10764236D01*
X12081268Y-10757267D01*
X12085455Y-10751673D01*
X12092002Y-10749232D01*
X12092886Y-10749200D01*
X12100100Y-10749200D01*
X12106804Y-10751169D01*
X12111379Y-10756449D01*
X12112500Y-10761600D01*
X12112500Y-10823750D01*
X12137436Y-10823750D01*
X12137438Y-10823750D01*
X12148434Y-10822302D01*
X12148434Y-10822302D01*
X12162117Y-10816634D01*
X12173868Y-10807618D01*
X12182884Y-10795868D01*
X12188552Y-10782184D01*
X12188751Y-10780675D01*
X12191577Y-10774286D01*
X12197410Y-10770439D01*
X12204396Y-10770355D01*
X12210318Y-10774062D01*
X12213297Y-10780383D01*
X12213380Y-10781033D01*
X12213532Y-10782515D01*
X12218955Y-10798880D01*
X12218955Y-10798881D01*
X12228005Y-10813553D01*
X12228005Y-10813554D01*
X12240196Y-10825744D01*
X12240196Y-10825745D01*
X12254869Y-10834795D01*
X12254870Y-10834795D01*
X12271235Y-10840218D01*
X12281335Y-10841250D01*
X12285000Y-10841250D01*
X12335000Y-10841250D01*
X12338664Y-10841250D01*
X12338665Y-10841250D01*
X12348765Y-10840218D01*
X12365130Y-10834795D01*
X12365131Y-10834795D01*
X12379803Y-10825745D01*
X12379804Y-10825744D01*
X12386232Y-10819316D01*
X12392364Y-10815968D01*
X12399333Y-10816466D01*
X12403768Y-10819316D01*
X12410196Y-10825744D01*
X12410196Y-10825745D01*
X12424869Y-10834795D01*
X12424870Y-10834795D01*
X12441235Y-10840218D01*
X12451335Y-10841250D01*
X12455000Y-10841250D01*
X12455000Y-10762500D01*
X12335000Y-10762500D01*
X12335000Y-10841250D01*
X12285000Y-10841250D01*
X12285000Y-10762500D01*
X12212500Y-10762500D01*
X12211168Y-10763832D01*
X12205036Y-10767181D01*
X12198067Y-10766682D01*
X12192473Y-10762495D01*
X12190032Y-10755949D01*
X12190000Y-10755064D01*
X12190000Y-10751314D01*
X12190000Y-10751312D01*
X12188552Y-10740316D01*
X12188552Y-10740316D01*
X12182884Y-10726632D01*
X12173868Y-10714882D01*
X12170301Y-10712145D01*
X12166181Y-10706502D01*
X12165851Y-10705434D01*
X12165450Y-10703897D01*
X12165450Y-10701286D01*
X12164842Y-10696669D01*
X12161950Y-10690468D01*
X12161666Y-10689377D01*
X12161740Y-10686966D01*
X12161378Y-10684583D01*
X12161864Y-10682928D01*
X12161881Y-10682393D01*
X12162126Y-10682036D01*
X12162427Y-10681009D01*
X12162749Y-10680320D01*
X12163928Y-10677791D01*
X12164842Y-10675832D01*
X12164842Y-10675831D01*
X12164842Y-10675831D01*
X12165450Y-10671214D01*
X12165450Y-10670192D01*
X12167418Y-10663488D01*
X12170301Y-10660355D01*
X12173868Y-10657618D01*
X12182884Y-10645868D01*
X12188552Y-10632184D01*
X12188552Y-10632184D01*
X12189663Y-10623750D01*
X12141695Y-10623750D01*
X12140909Y-10623519D01*
X12140077Y-10623644D01*
X12139317Y-10623544D01*
X12136008Y-10622080D01*
X12134991Y-10621782D01*
X12134779Y-10621536D01*
X12132927Y-10620717D01*
X12129080Y-10614885D01*
X12128997Y-10607898D01*
X12132704Y-10601976D01*
X12135794Y-10600520D01*
X12136544Y-10599871D01*
X12137449Y-10599740D01*
X12139025Y-10598998D01*
X12139317Y-10598956D01*
X12140077Y-10598856D01*
X12141695Y-10598750D01*
X12194904Y-10598750D01*
X12200549Y-10600263D01*
X12200566Y-10600223D01*
X12200870Y-10600349D01*
X12201106Y-10600412D01*
X12201170Y-10600449D01*
X12201265Y-10600504D01*
X12201317Y-10600534D01*
X12210333Y-10602950D01*
X12219667Y-10602950D01*
X12228095Y-10602950D01*
X12234799Y-10604919D01*
X12238872Y-10609216D01*
X12239365Y-10610083D01*
X12242624Y-10618822D01*
X12249778Y-10628378D01*
X12250162Y-10629053D01*
X12250793Y-10631727D01*
X12251754Y-10634302D01*
X12251585Y-10635079D01*
X12251767Y-10635853D01*
X12250853Y-10638444D01*
X12250268Y-10641129D01*
X12249689Y-10641740D01*
X12249442Y-10642441D01*
X12247857Y-10643671D01*
X12245895Y-10645740D01*
X12240196Y-10649255D01*
X12240196Y-10649256D01*
X12228005Y-10661446D01*
X12228005Y-10661447D01*
X12218955Y-10676119D01*
X12218955Y-10676120D01*
X12213532Y-10692485D01*
X12212500Y-10702585D01*
X12212500Y-10712500D01*
X12467600Y-10712500D01*
X12474304Y-10714469D01*
X12478879Y-10719749D01*
X12480000Y-10724900D01*
X12480000Y-10737500D01*
X12492600Y-10737500D01*
X12499304Y-10739469D01*
X12503879Y-10744749D01*
X12505000Y-10749900D01*
X12505000Y-10841250D01*
X12508664Y-10841250D01*
X12508665Y-10841250D01*
X12518765Y-10840218D01*
X12535130Y-10834795D01*
X12535131Y-10834795D01*
X12535889Y-10834327D01*
X12542628Y-10832483D01*
X12549294Y-10834575D01*
X12553772Y-10839939D01*
X12553975Y-10840470D01*
X12554064Y-10840662D01*
X12563268Y-10855585D01*
X12575665Y-10867982D01*
X12590587Y-10877186D01*
X12590588Y-10877186D01*
X12607230Y-10882701D01*
X12607231Y-10882701D01*
X12617502Y-10883750D01*
X12645000Y-10883750D01*
X12695000Y-10883750D01*
X12722497Y-10883750D01*
X12722499Y-10883750D01*
X12732770Y-10882701D01*
X12749412Y-10877186D01*
X12749412Y-10877186D01*
X12764334Y-10867982D01*
X12776731Y-10855585D01*
X12785936Y-10840662D01*
X12785936Y-10840662D01*
X12791450Y-10824020D01*
X12791451Y-10824019D01*
X12792500Y-10813749D01*
X12792500Y-10813747D01*
X12792500Y-10800000D01*
X12695000Y-10800000D01*
X12695000Y-10883750D01*
X12645000Y-10883750D01*
X12645000Y-10883750D01*
X12645000Y-10787400D01*
X12646968Y-10780696D01*
X12652249Y-10776121D01*
X12657400Y-10775000D01*
X12670000Y-10775000D01*
X12670000Y-10762400D01*
X12671968Y-10755696D01*
X12677249Y-10751121D01*
X12682400Y-10750000D01*
X12792500Y-10750000D01*
X12792500Y-10736253D01*
X12792500Y-10736251D01*
X12791450Y-10725980D01*
X12785936Y-10709338D01*
X12785936Y-10709338D01*
X12776731Y-10694415D01*
X12764334Y-10682018D01*
X12749412Y-10672814D01*
X12749412Y-10672814D01*
X12740792Y-10669958D01*
X12735047Y-10665980D01*
X12732365Y-10659529D01*
X12733596Y-10652651D01*
X12738351Y-10647531D01*
X12740358Y-10646569D01*
X12741927Y-10645984D01*
X12753540Y-10637290D01*
X12762234Y-10625677D01*
X12767304Y-10612084D01*
X12767684Y-10608550D01*
X12767950Y-10606077D01*
X12767950Y-10606076D01*
X12767950Y-10606076D01*
X12767950Y-10528925D01*
X12767304Y-10522916D01*
X12766669Y-10521214D01*
X12762234Y-10509324D01*
X12762234Y-10509324D01*
X12762234Y-10509323D01*
X12756218Y-10501286D01*
X12753540Y-10497710D01*
X12745340Y-10491571D01*
X12741927Y-10489016D01*
X12728334Y-10483946D01*
X12728334Y-10483946D01*
X12722327Y-10483300D01*
X12722325Y-10483300D01*
X12720550Y-10483300D01*
X12713846Y-10481332D01*
X12709271Y-10476051D01*
X12708150Y-10470900D01*
X12708150Y-10236504D01*
X12710118Y-10229801D01*
X12715399Y-10225225D01*
X12722315Y-10224231D01*
X12728670Y-10227133D01*
X12729318Y-10227736D01*
X12735953Y-10234371D01*
X12735953Y-10234371D01*
X12735953Y-10234371D01*
X12738351Y-10235756D01*
X12748597Y-10241671D01*
X12762700Y-10245450D01*
X12762700Y-10245450D01*
X12777300Y-10245450D01*
X12777300Y-10245450D01*
X12791403Y-10241671D01*
X12804047Y-10234371D01*
X12811753Y-10226666D01*
X12817884Y-10223317D01*
X12824854Y-10223816D01*
X12830447Y-10228003D01*
X12830447Y-10228003D01*
X12838492Y-10238750D01*
X12838603Y-10238897D01*
X12849928Y-10247376D01*
X12863184Y-10252320D01*
X12869044Y-10252950D01*
X12928456Y-10252950D01*
X12934316Y-10252320D01*
X12947571Y-10247376D01*
X12958897Y-10238897D01*
X12967376Y-10227572D01*
X12972320Y-10214316D01*
X12972668Y-10211073D01*
X12972950Y-10208457D01*
X12972950Y-10208456D01*
X12972950Y-10208456D01*
X12972950Y-10151544D01*
X12972320Y-10145684D01*
X12971897Y-10144550D01*
X12967376Y-10132429D01*
X12967376Y-10132429D01*
X12967376Y-10132429D01*
X12958897Y-10121103D01*
X12947571Y-10112624D01*
X12942303Y-10110659D01*
X12934316Y-10107680D01*
X12928456Y-10107050D01*
X12869045Y-10107050D01*
X12869044Y-10107050D01*
X12863184Y-10107680D01*
X12849929Y-10112624D01*
X12849928Y-10112624D01*
X12838603Y-10121103D01*
X12830124Y-10132428D01*
X12830124Y-10132428D01*
X12830124Y-10132429D01*
X12828612Y-10136483D01*
X12827285Y-10138256D01*
X12826365Y-10140270D01*
X12825232Y-10140998D01*
X12824425Y-10142077D01*
X12822350Y-10142851D01*
X12820487Y-10144048D01*
X12818295Y-10144363D01*
X12817878Y-10144518D01*
X12816994Y-10144550D01*
X12805501Y-10144550D01*
X12799301Y-10142889D01*
X12799235Y-10142851D01*
X12791403Y-10138329D01*
X12777300Y-10134550D01*
X12762700Y-10134550D01*
X12748597Y-10138329D01*
X12748597Y-10138329D01*
X12735953Y-10145629D01*
X12735953Y-10145629D01*
X12729318Y-10152264D01*
X12723186Y-10155612D01*
X12716217Y-10155114D01*
X12710623Y-10150927D01*
X12708182Y-10144380D01*
X12708150Y-10143496D01*
X12708150Y-9896023D01*
X12708150Y-9896021D01*
X12708150Y-9884978D01*
X12708150Y-9884978D01*
X12705550Y-9875275D01*
X12702200Y-9869472D01*
X12700528Y-9866575D01*
X12693425Y-9859472D01*
X12693424Y-9859472D01*
X12593425Y-9759472D01*
X12584725Y-9754450D01*
X12584725Y-9754450D01*
X12582300Y-9753800D01*
X12575022Y-9751850D01*
X12575022Y-9751850D01*
X12195023Y-9751850D01*
X12195022Y-9751850D01*
X12184977Y-9751850D01*
X12184977Y-9751850D01*
X11735022Y-9751850D01*
X11425022Y-9751850D01*
X11095023Y-9751850D01*
X11084978Y-9751850D01*
X11075275Y-9754450D01*
X11075274Y-9754450D01*
X11066576Y-9759472D01*
X11066575Y-9759473D01*
X10949473Y-9876575D01*
X10949472Y-9876575D01*
X10944450Y-9885275D01*
X10944450Y-9885275D01*
X10941850Y-9894978D01*
X10910050Y-9894978D01*
X10910050Y-9622450D01*
X10912019Y-9615746D01*
X10917299Y-9611171D01*
X10922450Y-9610050D01*
X14597550Y-9610050D01*
X14604254Y-9612019D01*
G37*
%TD.AperFunction*%
%TD*%
M02*
