%TF.GenerationSoftware,KiCad,Pcbnew,9.0.6*%
%TF.CreationDate,2026-01-22T02:23:31+05:30*%
%TF.ProjectId,USB-PD-Trigger-Board,5553422d-5044-42d5-9472-69676765722d,rev?*%
%TF.SameCoordinates,Original*%
%TF.FileFunction,Paste,Top*%
%TF.FilePolarity,Positive*%
%FSLAX45Y45*%
G04 Gerber Fmt 4.5, Leading zero omitted, Abs format (unit mm)*
G04 Created by KiCad (PCBNEW 9.0.6) date 2026-01-22 02:23:31*
%MOMM*%
%LPD*%
G01*
G04 APERTURE LIST*
G04 Aperture macros list*
%AMRoundRect*
0 Rectangle with rounded corners*
0 $1 Rounding radius*
0 $2 $3 $4 $5 $6 $7 $8 $9 X,Y pos of 4 corners*
0 Add a 4 corners polygon primitive as box body*
4,1,4,$2,$3,$4,$5,$6,$7,$8,$9,$2,$3,0*
0 Add four circle primitives for the rounded corners*
1,1,$1+$1,$2,$3*
1,1,$1+$1,$4,$5*
1,1,$1+$1,$6,$7*
1,1,$1+$1,$8,$9*
0 Add four rect primitives between the rounded corners*
20,1,$1+$1,$2,$3,$4,$5,0*
20,1,$1+$1,$4,$5,$6,$7,0*
20,1,$1+$1,$6,$7,$8,$9,0*
20,1,$1+$1,$8,$9,$2,$3,0*%
G04 Aperture macros list end*
%ADD10RoundRect,0.237500X0.250000X0.237500X-0.250000X0.237500X-0.250000X-0.237500X0.250000X-0.237500X0*%
%ADD11R,0.700000X1.525000*%
%ADD12RoundRect,0.237500X-0.237500X0.250000X-0.237500X-0.250000X0.237500X-0.250000X0.237500X0.250000X0*%
%ADD13RoundRect,0.237500X0.237500X-0.287500X0.237500X0.287500X-0.237500X0.287500X-0.237500X-0.287500X0*%
%ADD14RoundRect,0.237500X0.237500X-0.250000X0.237500X0.250000X-0.237500X0.250000X-0.237500X-0.250000X0*%
%ADD15RoundRect,0.250000X1.100000X-0.412500X1.100000X0.412500X-1.100000X0.412500X-1.100000X-0.412500X0*%
%ADD16RoundRect,0.237500X-0.237500X0.300000X-0.237500X-0.300000X0.237500X-0.300000X0.237500X0.300000X0*%
%ADD17RoundRect,0.225000X0.225000X0.375000X-0.225000X0.375000X-0.225000X-0.375000X0.225000X-0.375000X0*%
%ADD18R,0.900000X0.300000*%
%ADD19RoundRect,0.250000X0.475000X-0.337500X0.475000X0.337500X-0.475000X0.337500X-0.475000X-0.337500X0*%
%ADD20R,0.550000X0.900000*%
%ADD21RoundRect,0.150000X0.150000X-0.587500X0.150000X0.587500X-0.150000X0.587500X-0.150000X-0.587500X0*%
%ADD22RoundRect,0.237500X-0.250000X-0.237500X0.250000X-0.237500X0.250000X0.237500X-0.250000X0.237500X0*%
%ADD23RoundRect,0.250000X-0.337500X-0.475000X0.337500X-0.475000X0.337500X0.475000X-0.337500X0.475000X0*%
%ADD24RoundRect,0.250000X-0.475000X0.337500X-0.475000X-0.337500X0.475000X-0.337500X0.475000X0.337500X0*%
%ADD25RoundRect,0.250000X-1.100000X0.412500X-1.100000X-0.412500X1.100000X-0.412500X1.100000X0.412500X0*%
%ADD26RoundRect,0.250000X-0.305000X0.305000X-0.305000X-0.305000X0.305000X-0.305000X0.305000X0.305000X0*%
%ADD27RoundRect,0.062500X-0.062500X0.337500X-0.062500X-0.337500X0.062500X-0.337500X0.062500X0.337500X0*%
%ADD28RoundRect,0.062500X-0.337500X0.062500X-0.337500X-0.062500X0.337500X-0.062500X0.337500X0.062500X0*%
G04 APERTURE END LIST*
D10*
%TO.C,R15*%
X13041250Y-12200000D03*
X12858750Y-12200000D03*
%TD*%
D11*
%TO.C,Q1*%
X13260500Y-10858800D03*
X13133500Y-10858800D03*
X13006500Y-10858800D03*
X12879500Y-10858800D03*
X12879500Y-11401200D03*
X13006500Y-11401200D03*
X13133500Y-11401200D03*
X13260500Y-11401200D03*
%TD*%
D10*
%TO.C,R3*%
X11461250Y-10660000D03*
X11278750Y-10660000D03*
%TD*%
D12*
%TO.C,R6*%
X11500000Y-9980000D03*
X11500000Y-10162500D03*
%TD*%
D13*
%TO.C,D3*%
X13520000Y-11807500D03*
X13520000Y-11632500D03*
%TD*%
D14*
%TO.C,R19*%
X13740000Y-11811250D03*
X13740000Y-11628750D03*
%TD*%
D15*
%TO.C,C8*%
X13790000Y-11406250D03*
X13790000Y-11093750D03*
%TD*%
D12*
%TO.C,R2*%
X11880000Y-11438750D03*
X11880000Y-11621250D03*
%TD*%
D14*
%TO.C,R14*%
X12300000Y-10162500D03*
X12300000Y-9980000D03*
%TD*%
%TO.C,R12*%
X11980000Y-10162500D03*
X11980000Y-9980000D03*
%TD*%
D16*
%TO.C,C4*%
X12310000Y-10565000D03*
X12310000Y-10737500D03*
%TD*%
D17*
%TO.C,D1*%
X13225000Y-10400000D03*
X12895000Y-10400000D03*
%TD*%
D18*
%TO.C,J1*%
X11630250Y-11206000D03*
X11630250Y-11256000D03*
X11630250Y-11306000D03*
X11630250Y-11356000D03*
X11630250Y-11406000D03*
X11630250Y-11456000D03*
X11630250Y-11506000D03*
X11630250Y-11556000D03*
X11630250Y-11606000D03*
X11630250Y-11656000D03*
X11630250Y-11706000D03*
X11630250Y-11756000D03*
%TD*%
D19*
%TO.C,C6*%
X13490000Y-11407500D03*
X13490000Y-11200000D03*
%TD*%
D20*
%TO.C,Q3*%
X12930000Y-11860000D03*
X13025000Y-11860000D03*
X13120000Y-11860000D03*
X13120000Y-11620000D03*
X13025000Y-11620000D03*
X12930000Y-11620000D03*
%TD*%
D14*
%TO.C,R4*%
X12660000Y-11331250D03*
X12660000Y-11148750D03*
%TD*%
D21*
%TO.C,Q2*%
X12115000Y-12113750D03*
X12305000Y-12113750D03*
X12210000Y-11926250D03*
%TD*%
D16*
%TO.C,C5*%
X12480000Y-10565000D03*
X12480000Y-10737500D03*
%TD*%
D12*
%TO.C,R5*%
X11660000Y-9980000D03*
X11660000Y-10162500D03*
%TD*%
D22*
%TO.C,R18*%
X12858750Y-12030000D03*
X13041250Y-12030000D03*
%TD*%
D10*
%TO.C,R10*%
X13081250Y-10600000D03*
X12898750Y-10600000D03*
%TD*%
D23*
%TO.C,C3*%
X12316250Y-10361250D03*
X12523750Y-10361250D03*
%TD*%
D12*
%TO.C,R8*%
X11170000Y-9980000D03*
X11170000Y-10162500D03*
%TD*%
D22*
%TO.C,R16*%
X12118750Y-12300000D03*
X12301250Y-12300000D03*
%TD*%
D10*
%TO.C,R9*%
X13081250Y-10180000D03*
X12898750Y-10180000D03*
%TD*%
D19*
%TO.C,C2*%
X12440000Y-11327500D03*
X12440000Y-11120000D03*
%TD*%
D14*
%TO.C,R13*%
X12140000Y-10162500D03*
X12140000Y-9980000D03*
%TD*%
D24*
%TO.C,C7*%
X12670000Y-10567500D03*
X12670000Y-10775000D03*
%TD*%
D25*
%TO.C,C1*%
X12150000Y-11383750D03*
X12150000Y-11696250D03*
%TD*%
D10*
%TO.C,R17*%
X12661250Y-12030000D03*
X12478750Y-12030000D03*
%TD*%
D12*
%TO.C,R7*%
X11330000Y-9980000D03*
X11330000Y-10162500D03*
%TD*%
D22*
%TO.C,R1*%
X11278750Y-10840000D03*
X11461250Y-10840000D03*
%TD*%
D14*
%TO.C,R11*%
X11820000Y-10162500D03*
X11820000Y-9980000D03*
%TD*%
D26*
%TO.C,U1*%
X11971500Y-10567250D03*
X11833500Y-10567250D03*
X11971500Y-10705250D03*
X11833500Y-10705250D03*
D27*
X12027500Y-10438750D03*
X11977500Y-10438750D03*
X11927500Y-10438750D03*
X11877500Y-10438750D03*
X11827500Y-10438750D03*
X11777500Y-10438750D03*
D28*
X11705000Y-10511250D03*
X11705000Y-10561250D03*
X11705000Y-10611250D03*
X11705000Y-10661250D03*
X11705000Y-10711250D03*
X11705000Y-10761250D03*
D27*
X11777500Y-10833750D03*
X11827500Y-10833750D03*
X11877500Y-10833750D03*
X11927500Y-10833750D03*
X11977500Y-10833750D03*
X12027500Y-10833750D03*
D28*
X12100000Y-10761250D03*
X12100000Y-10711250D03*
X12100000Y-10661250D03*
X12100000Y-10611250D03*
X12100000Y-10561250D03*
X12100000Y-10511250D03*
%TD*%
D13*
%TO.C,D2*%
X12480000Y-11847500D03*
X12480000Y-11672500D03*
%TD*%
M02*
