%TF.GenerationSoftware,KiCad,Pcbnew,9.0.6*%
%TF.CreationDate,2026-01-22T02:23:31+05:30*%
%TF.ProjectId,USB-PD-Trigger-Board,5553422d-5044-42d5-9472-69676765722d,rev?*%
%TF.SameCoordinates,Original*%
%TF.FileFunction,Legend,Top*%
%TF.FilePolarity,Positive*%
%FSLAX45Y45*%
G04 Gerber Fmt 4.5, Leading zero omitted, Abs format (unit mm)*
G04 Created by KiCad (PCBNEW 9.0.6) date 2026-01-22 02:23:31*
%MOMM*%
%LPD*%
G01*
G04 APERTURE LIST*
%ADD10C,0.150000*%
%ADD11C,0.254000*%
%ADD12C,0.120000*%
%ADD13C,0.200000*%
%ADD14C,0.127000*%
G04 APERTURE END LIST*
D10*
X13205714Y-12245482D02*
X13172381Y-12197863D01*
X13148571Y-12245482D02*
X13148571Y-12145482D01*
X13148571Y-12145482D02*
X13186667Y-12145482D01*
X13186667Y-12145482D02*
X13196190Y-12150244D01*
X13196190Y-12150244D02*
X13200952Y-12155006D01*
X13200952Y-12155006D02*
X13205714Y-12164529D01*
X13205714Y-12164529D02*
X13205714Y-12178815D01*
X13205714Y-12178815D02*
X13200952Y-12188339D01*
X13200952Y-12188339D02*
X13196190Y-12193101D01*
X13196190Y-12193101D02*
X13186667Y-12197863D01*
X13186667Y-12197863D02*
X13148571Y-12197863D01*
X13300952Y-12245482D02*
X13243809Y-12245482D01*
X13272381Y-12245482D02*
X13272381Y-12145482D01*
X13272381Y-12145482D02*
X13262857Y-12159768D01*
X13262857Y-12159768D02*
X13253333Y-12169291D01*
X13253333Y-12169291D02*
X13243809Y-12174053D01*
X13391428Y-12145482D02*
X13343809Y-12145482D01*
X13343809Y-12145482D02*
X13339048Y-12193101D01*
X13339048Y-12193101D02*
X13343809Y-12188339D01*
X13343809Y-12188339D02*
X13353333Y-12183577D01*
X13353333Y-12183577D02*
X13377143Y-12183577D01*
X13377143Y-12183577D02*
X13386667Y-12188339D01*
X13386667Y-12188339D02*
X13391428Y-12193101D01*
X13391428Y-12193101D02*
X13396190Y-12202625D01*
X13396190Y-12202625D02*
X13396190Y-12226434D01*
X13396190Y-12226434D02*
X13391428Y-12235958D01*
X13391428Y-12235958D02*
X13386667Y-12240720D01*
X13386667Y-12240720D02*
X13377143Y-12245482D01*
X13377143Y-12245482D02*
X13353333Y-12245482D01*
X13353333Y-12245482D02*
X13343809Y-12240720D01*
X13343809Y-12240720D02*
X13339048Y-12235958D01*
D11*
X13497905Y-10919527D02*
X13485809Y-10913479D01*
X13485809Y-10913479D02*
X13473714Y-10901384D01*
X13473714Y-10901384D02*
X13455571Y-10883241D01*
X13455571Y-10883241D02*
X13443476Y-10877194D01*
X13443476Y-10877194D02*
X13431381Y-10877194D01*
X13437428Y-10907432D02*
X13425333Y-10901384D01*
X13425333Y-10901384D02*
X13413238Y-10889289D01*
X13413238Y-10889289D02*
X13407190Y-10865098D01*
X13407190Y-10865098D02*
X13407190Y-10822765D01*
X13407190Y-10822765D02*
X13413238Y-10798575D01*
X13413238Y-10798575D02*
X13425333Y-10786479D01*
X13425333Y-10786479D02*
X13437428Y-10780432D01*
X13437428Y-10780432D02*
X13461619Y-10780432D01*
X13461619Y-10780432D02*
X13473714Y-10786479D01*
X13473714Y-10786479D02*
X13485809Y-10798575D01*
X13485809Y-10798575D02*
X13491857Y-10822765D01*
X13491857Y-10822765D02*
X13491857Y-10865098D01*
X13491857Y-10865098D02*
X13485809Y-10889289D01*
X13485809Y-10889289D02*
X13473714Y-10901384D01*
X13473714Y-10901384D02*
X13461619Y-10907432D01*
X13461619Y-10907432D02*
X13437428Y-10907432D01*
X13612809Y-10907432D02*
X13540238Y-10907432D01*
X13576524Y-10907432D02*
X13576524Y-10780432D01*
X13576524Y-10780432D02*
X13564428Y-10798575D01*
X13564428Y-10798575D02*
X13552333Y-10810670D01*
X13552333Y-10810670D02*
X13540238Y-10816718D01*
D10*
X11063333Y-10694232D02*
X11030000Y-10646613D01*
X11006191Y-10694232D02*
X11006191Y-10594232D01*
X11006191Y-10594232D02*
X11044286Y-10594232D01*
X11044286Y-10594232D02*
X11053810Y-10598994D01*
X11053810Y-10598994D02*
X11058571Y-10603756D01*
X11058571Y-10603756D02*
X11063333Y-10613280D01*
X11063333Y-10613280D02*
X11063333Y-10627565D01*
X11063333Y-10627565D02*
X11058571Y-10637089D01*
X11058571Y-10637089D02*
X11053810Y-10641851D01*
X11053810Y-10641851D02*
X11044286Y-10646613D01*
X11044286Y-10646613D02*
X11006191Y-10646613D01*
X11096667Y-10594232D02*
X11158571Y-10594232D01*
X11158571Y-10594232D02*
X11125238Y-10632327D01*
X11125238Y-10632327D02*
X11139524Y-10632327D01*
X11139524Y-10632327D02*
X11149048Y-10637089D01*
X11149048Y-10637089D02*
X11153810Y-10641851D01*
X11153810Y-10641851D02*
X11158571Y-10651375D01*
X11158571Y-10651375D02*
X11158571Y-10675184D01*
X11158571Y-10675184D02*
X11153810Y-10684708D01*
X11153810Y-10684708D02*
X11149048Y-10689470D01*
X11149048Y-10689470D02*
X11139524Y-10694232D01*
X11139524Y-10694232D02*
X11110952Y-10694232D01*
X11110952Y-10694232D02*
X11101429Y-10689470D01*
X11101429Y-10689470D02*
X11096667Y-10684708D01*
X11483333Y-9865482D02*
X11450000Y-9817863D01*
X11426190Y-9865482D02*
X11426190Y-9765482D01*
X11426190Y-9765482D02*
X11464286Y-9765482D01*
X11464286Y-9765482D02*
X11473809Y-9770244D01*
X11473809Y-9770244D02*
X11478571Y-9775006D01*
X11478571Y-9775006D02*
X11483333Y-9784530D01*
X11483333Y-9784530D02*
X11483333Y-9798815D01*
X11483333Y-9798815D02*
X11478571Y-9808339D01*
X11478571Y-9808339D02*
X11473809Y-9813101D01*
X11473809Y-9813101D02*
X11464286Y-9817863D01*
X11464286Y-9817863D02*
X11426190Y-9817863D01*
X11569048Y-9765482D02*
X11550000Y-9765482D01*
X11550000Y-9765482D02*
X11540476Y-9770244D01*
X11540476Y-9770244D02*
X11535714Y-9775006D01*
X11535714Y-9775006D02*
X11526190Y-9789291D01*
X11526190Y-9789291D02*
X11521429Y-9808339D01*
X11521429Y-9808339D02*
X11521429Y-9846434D01*
X11521429Y-9846434D02*
X11526190Y-9855958D01*
X11526190Y-9855958D02*
X11530952Y-9860720D01*
X11530952Y-9860720D02*
X11540476Y-9865482D01*
X11540476Y-9865482D02*
X11559524Y-9865482D01*
X11559524Y-9865482D02*
X11569048Y-9860720D01*
X11569048Y-9860720D02*
X11573809Y-9855958D01*
X11573809Y-9855958D02*
X11578571Y-9846434D01*
X11578571Y-9846434D02*
X11578571Y-9822625D01*
X11578571Y-9822625D02*
X11573809Y-9813101D01*
X11573809Y-9813101D02*
X11569048Y-9808339D01*
X11569048Y-9808339D02*
X11559524Y-9803577D01*
X11559524Y-9803577D02*
X11540476Y-9803577D01*
X11540476Y-9803577D02*
X11530952Y-9808339D01*
X11530952Y-9808339D02*
X11526190Y-9813101D01*
X11526190Y-9813101D02*
X11521429Y-9822625D01*
X13256190Y-11755482D02*
X13256190Y-11655482D01*
X13256190Y-11655482D02*
X13280000Y-11655482D01*
X13280000Y-11655482D02*
X13294286Y-11660244D01*
X13294286Y-11660244D02*
X13303809Y-11669768D01*
X13303809Y-11669768D02*
X13308571Y-11679291D01*
X13308571Y-11679291D02*
X13313333Y-11698339D01*
X13313333Y-11698339D02*
X13313333Y-11712625D01*
X13313333Y-11712625D02*
X13308571Y-11731672D01*
X13308571Y-11731672D02*
X13303809Y-11741196D01*
X13303809Y-11741196D02*
X13294286Y-11750720D01*
X13294286Y-11750720D02*
X13280000Y-11755482D01*
X13280000Y-11755482D02*
X13256190Y-11755482D01*
X13346667Y-11655482D02*
X13408571Y-11655482D01*
X13408571Y-11655482D02*
X13375238Y-11693577D01*
X13375238Y-11693577D02*
X13389524Y-11693577D01*
X13389524Y-11693577D02*
X13399048Y-11698339D01*
X13399048Y-11698339D02*
X13403809Y-11703101D01*
X13403809Y-11703101D02*
X13408571Y-11712625D01*
X13408571Y-11712625D02*
X13408571Y-11736434D01*
X13408571Y-11736434D02*
X13403809Y-11745958D01*
X13403809Y-11745958D02*
X13399048Y-11750720D01*
X13399048Y-11750720D02*
X13389524Y-11755482D01*
X13389524Y-11755482D02*
X13360952Y-11755482D01*
X13360952Y-11755482D02*
X13351429Y-11750720D01*
X13351429Y-11750720D02*
X13346667Y-11745958D01*
X13675714Y-12015482D02*
X13642381Y-11967863D01*
X13618571Y-12015482D02*
X13618571Y-11915482D01*
X13618571Y-11915482D02*
X13656667Y-11915482D01*
X13656667Y-11915482D02*
X13666190Y-11920244D01*
X13666190Y-11920244D02*
X13670952Y-11925006D01*
X13670952Y-11925006D02*
X13675714Y-11934529D01*
X13675714Y-11934529D02*
X13675714Y-11948815D01*
X13675714Y-11948815D02*
X13670952Y-11958339D01*
X13670952Y-11958339D02*
X13666190Y-11963101D01*
X13666190Y-11963101D02*
X13656667Y-11967863D01*
X13656667Y-11967863D02*
X13618571Y-11967863D01*
X13770952Y-12015482D02*
X13713809Y-12015482D01*
X13742381Y-12015482D02*
X13742381Y-11915482D01*
X13742381Y-11915482D02*
X13732857Y-11929768D01*
X13732857Y-11929768D02*
X13723333Y-11939291D01*
X13723333Y-11939291D02*
X13713809Y-11944053D01*
X13818571Y-12015482D02*
X13837619Y-12015482D01*
X13837619Y-12015482D02*
X13847143Y-12010720D01*
X13847143Y-12010720D02*
X13851905Y-12005958D01*
X13851905Y-12005958D02*
X13861428Y-11991672D01*
X13861428Y-11991672D02*
X13866190Y-11972625D01*
X13866190Y-11972625D02*
X13866190Y-11934529D01*
X13866190Y-11934529D02*
X13861428Y-11925006D01*
X13861428Y-11925006D02*
X13856667Y-11920244D01*
X13856667Y-11920244D02*
X13847143Y-11915482D01*
X13847143Y-11915482D02*
X13828095Y-11915482D01*
X13828095Y-11915482D02*
X13818571Y-11920244D01*
X13818571Y-11920244D02*
X13813809Y-11925006D01*
X13813809Y-11925006D02*
X13809048Y-11934529D01*
X13809048Y-11934529D02*
X13809048Y-11958339D01*
X13809048Y-11958339D02*
X13813809Y-11967863D01*
X13813809Y-11967863D02*
X13818571Y-11972625D01*
X13818571Y-11972625D02*
X13828095Y-11977387D01*
X13828095Y-11977387D02*
X13847143Y-11977387D01*
X13847143Y-11977387D02*
X13856667Y-11972625D01*
X13856667Y-11972625D02*
X13861428Y-11967863D01*
X13861428Y-11967863D02*
X13866190Y-11958339D01*
X13773333Y-10955958D02*
X13768571Y-10960720D01*
X13768571Y-10960720D02*
X13754286Y-10965482D01*
X13754286Y-10965482D02*
X13744762Y-10965482D01*
X13744762Y-10965482D02*
X13730476Y-10960720D01*
X13730476Y-10960720D02*
X13720952Y-10951196D01*
X13720952Y-10951196D02*
X13716190Y-10941672D01*
X13716190Y-10941672D02*
X13711429Y-10922625D01*
X13711429Y-10922625D02*
X13711429Y-10908339D01*
X13711429Y-10908339D02*
X13716190Y-10889291D01*
X13716190Y-10889291D02*
X13720952Y-10879768D01*
X13720952Y-10879768D02*
X13730476Y-10870244D01*
X13730476Y-10870244D02*
X13744762Y-10865482D01*
X13744762Y-10865482D02*
X13754286Y-10865482D01*
X13754286Y-10865482D02*
X13768571Y-10870244D01*
X13768571Y-10870244D02*
X13773333Y-10875006D01*
X13830476Y-10908339D02*
X13820952Y-10903577D01*
X13820952Y-10903577D02*
X13816190Y-10898815D01*
X13816190Y-10898815D02*
X13811429Y-10889291D01*
X13811429Y-10889291D02*
X13811429Y-10884530D01*
X13811429Y-10884530D02*
X13816190Y-10875006D01*
X13816190Y-10875006D02*
X13820952Y-10870244D01*
X13820952Y-10870244D02*
X13830476Y-10865482D01*
X13830476Y-10865482D02*
X13849524Y-10865482D01*
X13849524Y-10865482D02*
X13859048Y-10870244D01*
X13859048Y-10870244D02*
X13863809Y-10875006D01*
X13863809Y-10875006D02*
X13868571Y-10884530D01*
X13868571Y-10884530D02*
X13868571Y-10889291D01*
X13868571Y-10889291D02*
X13863809Y-10898815D01*
X13863809Y-10898815D02*
X13859048Y-10903577D01*
X13859048Y-10903577D02*
X13849524Y-10908339D01*
X13849524Y-10908339D02*
X13830476Y-10908339D01*
X13830476Y-10908339D02*
X13820952Y-10913101D01*
X13820952Y-10913101D02*
X13816190Y-10917863D01*
X13816190Y-10917863D02*
X13811429Y-10927387D01*
X13811429Y-10927387D02*
X13811429Y-10946434D01*
X13811429Y-10946434D02*
X13816190Y-10955958D01*
X13816190Y-10955958D02*
X13820952Y-10960720D01*
X13820952Y-10960720D02*
X13830476Y-10965482D01*
X13830476Y-10965482D02*
X13849524Y-10965482D01*
X13849524Y-10965482D02*
X13859048Y-10960720D01*
X13859048Y-10960720D02*
X13863809Y-10955958D01*
X13863809Y-10955958D02*
X13868571Y-10946434D01*
X13868571Y-10946434D02*
X13868571Y-10927387D01*
X13868571Y-10927387D02*
X13863809Y-10917863D01*
X13863809Y-10917863D02*
X13859048Y-10913101D01*
X13859048Y-10913101D02*
X13849524Y-10908339D01*
X11863333Y-11825482D02*
X11830000Y-11777863D01*
X11806190Y-11825482D02*
X11806190Y-11725482D01*
X11806190Y-11725482D02*
X11844286Y-11725482D01*
X11844286Y-11725482D02*
X11853809Y-11730244D01*
X11853809Y-11730244D02*
X11858571Y-11735006D01*
X11858571Y-11735006D02*
X11863333Y-11744529D01*
X11863333Y-11744529D02*
X11863333Y-11758815D01*
X11863333Y-11758815D02*
X11858571Y-11768339D01*
X11858571Y-11768339D02*
X11853809Y-11773101D01*
X11853809Y-11773101D02*
X11844286Y-11777863D01*
X11844286Y-11777863D02*
X11806190Y-11777863D01*
X11901429Y-11735006D02*
X11906190Y-11730244D01*
X11906190Y-11730244D02*
X11915714Y-11725482D01*
X11915714Y-11725482D02*
X11939524Y-11725482D01*
X11939524Y-11725482D02*
X11949048Y-11730244D01*
X11949048Y-11730244D02*
X11953809Y-11735006D01*
X11953809Y-11735006D02*
X11958571Y-11744529D01*
X11958571Y-11744529D02*
X11958571Y-11754053D01*
X11958571Y-11754053D02*
X11953809Y-11768339D01*
X11953809Y-11768339D02*
X11896667Y-11825482D01*
X11896667Y-11825482D02*
X11958571Y-11825482D01*
X12455714Y-10115482D02*
X12422381Y-10067863D01*
X12398571Y-10115482D02*
X12398571Y-10015482D01*
X12398571Y-10015482D02*
X12436667Y-10015482D01*
X12436667Y-10015482D02*
X12446190Y-10020244D01*
X12446190Y-10020244D02*
X12450952Y-10025006D01*
X12450952Y-10025006D02*
X12455714Y-10034530D01*
X12455714Y-10034530D02*
X12455714Y-10048815D01*
X12455714Y-10048815D02*
X12450952Y-10058339D01*
X12450952Y-10058339D02*
X12446190Y-10063101D01*
X12446190Y-10063101D02*
X12436667Y-10067863D01*
X12436667Y-10067863D02*
X12398571Y-10067863D01*
X12550952Y-10115482D02*
X12493809Y-10115482D01*
X12522381Y-10115482D02*
X12522381Y-10015482D01*
X12522381Y-10015482D02*
X12512857Y-10029768D01*
X12512857Y-10029768D02*
X12503333Y-10039291D01*
X12503333Y-10039291D02*
X12493809Y-10044053D01*
X12636667Y-10048815D02*
X12636667Y-10115482D01*
X12612857Y-10010720D02*
X12589048Y-10082149D01*
X12589048Y-10082149D02*
X12650952Y-10082149D01*
X14063119Y-12154641D02*
X14063119Y-12255101D01*
X14063119Y-12255101D02*
X14056421Y-12275193D01*
X14056421Y-12275193D02*
X14043027Y-12288587D01*
X14043027Y-12288587D02*
X14022934Y-12295285D01*
X14022934Y-12295285D02*
X14009540Y-12295285D01*
X14123395Y-12168035D02*
X14130092Y-12161338D01*
X14130092Y-12161338D02*
X14143487Y-12154641D01*
X14143487Y-12154641D02*
X14176973Y-12154641D01*
X14176973Y-12154641D02*
X14190368Y-12161338D01*
X14190368Y-12161338D02*
X14197065Y-12168035D01*
X14197065Y-12168035D02*
X14203763Y-12181430D01*
X14203763Y-12181430D02*
X14203763Y-12194825D01*
X14203763Y-12194825D02*
X14197065Y-12214917D01*
X14197065Y-12214917D02*
X14116697Y-12295285D01*
X14116697Y-12295285D02*
X14203763Y-12295285D01*
X12025482Y-9795536D02*
X11977863Y-9828869D01*
X12025482Y-9852679D02*
X11925482Y-9852679D01*
X11925482Y-9852679D02*
X11925482Y-9814583D01*
X11925482Y-9814583D02*
X11930244Y-9805060D01*
X11930244Y-9805060D02*
X11935006Y-9800298D01*
X11935006Y-9800298D02*
X11944529Y-9795536D01*
X11944529Y-9795536D02*
X11958815Y-9795536D01*
X11958815Y-9795536D02*
X11968339Y-9800298D01*
X11968339Y-9800298D02*
X11973101Y-9805060D01*
X11973101Y-9805060D02*
X11977863Y-9814583D01*
X11977863Y-9814583D02*
X11977863Y-9852679D01*
X12025482Y-9700298D02*
X12025482Y-9757440D01*
X12025482Y-9728869D02*
X11925482Y-9728869D01*
X11925482Y-9728869D02*
X11939768Y-9738393D01*
X11939768Y-9738393D02*
X11949291Y-9747917D01*
X11949291Y-9747917D02*
X11954053Y-9757440D01*
X11935006Y-9662202D02*
X11930244Y-9657440D01*
X11930244Y-9657440D02*
X11925482Y-9647917D01*
X11925482Y-9647917D02*
X11925482Y-9624107D01*
X11925482Y-9624107D02*
X11930244Y-9614583D01*
X11930244Y-9614583D02*
X11935006Y-9609821D01*
X11935006Y-9609821D02*
X11944529Y-9605060D01*
X11944529Y-9605060D02*
X11954053Y-9605060D01*
X11954053Y-9605060D02*
X11968339Y-9609821D01*
X11968339Y-9609821D02*
X12025482Y-9666964D01*
X12025482Y-9666964D02*
X12025482Y-9605060D01*
X12253333Y-10935958D02*
X12248571Y-10940720D01*
X12248571Y-10940720D02*
X12234286Y-10945482D01*
X12234286Y-10945482D02*
X12224762Y-10945482D01*
X12224762Y-10945482D02*
X12210476Y-10940720D01*
X12210476Y-10940720D02*
X12200952Y-10931196D01*
X12200952Y-10931196D02*
X12196190Y-10921672D01*
X12196190Y-10921672D02*
X12191429Y-10902625D01*
X12191429Y-10902625D02*
X12191429Y-10888339D01*
X12191429Y-10888339D02*
X12196190Y-10869291D01*
X12196190Y-10869291D02*
X12200952Y-10859768D01*
X12200952Y-10859768D02*
X12210476Y-10850244D01*
X12210476Y-10850244D02*
X12224762Y-10845482D01*
X12224762Y-10845482D02*
X12234286Y-10845482D01*
X12234286Y-10845482D02*
X12248571Y-10850244D01*
X12248571Y-10850244D02*
X12253333Y-10855006D01*
X12339048Y-10878815D02*
X12339048Y-10945482D01*
X12315238Y-10840720D02*
X12291429Y-10912149D01*
X12291429Y-10912149D02*
X12353333Y-10912149D01*
X13326190Y-10445482D02*
X13326190Y-10345482D01*
X13326190Y-10345482D02*
X13350000Y-10345482D01*
X13350000Y-10345482D02*
X13364286Y-10350244D01*
X13364286Y-10350244D02*
X13373809Y-10359768D01*
X13373809Y-10359768D02*
X13378571Y-10369291D01*
X13378571Y-10369291D02*
X13383333Y-10388339D01*
X13383333Y-10388339D02*
X13383333Y-10402625D01*
X13383333Y-10402625D02*
X13378571Y-10421672D01*
X13378571Y-10421672D02*
X13373809Y-10431196D01*
X13373809Y-10431196D02*
X13364286Y-10440720D01*
X13364286Y-10440720D02*
X13350000Y-10445482D01*
X13350000Y-10445482D02*
X13326190Y-10445482D01*
X13478571Y-10445482D02*
X13421429Y-10445482D01*
X13450000Y-10445482D02*
X13450000Y-10345482D01*
X13450000Y-10345482D02*
X13440476Y-10359768D01*
X13440476Y-10359768D02*
X13430952Y-10369291D01*
X13430952Y-10369291D02*
X13421429Y-10374053D01*
X11106667Y-12075482D02*
X11106667Y-12146910D01*
X11106667Y-12146910D02*
X11101905Y-12161196D01*
X11101905Y-12161196D02*
X11092381Y-12170720D01*
X11092381Y-12170720D02*
X11078095Y-12175482D01*
X11078095Y-12175482D02*
X11068571Y-12175482D01*
X11206667Y-12175482D02*
X11149524Y-12175482D01*
X11178095Y-12175482D02*
X11178095Y-12075482D01*
X11178095Y-12075482D02*
X11168571Y-12089768D01*
X11168571Y-12089768D02*
X11159048Y-12099291D01*
X11159048Y-12099291D02*
X11149524Y-12104053D01*
X13473333Y-11075958D02*
X13468571Y-11080720D01*
X13468571Y-11080720D02*
X13454286Y-11085482D01*
X13454286Y-11085482D02*
X13444762Y-11085482D01*
X13444762Y-11085482D02*
X13430476Y-11080720D01*
X13430476Y-11080720D02*
X13420952Y-11071196D01*
X13420952Y-11071196D02*
X13416190Y-11061672D01*
X13416190Y-11061672D02*
X13411429Y-11042625D01*
X13411429Y-11042625D02*
X13411429Y-11028339D01*
X13411429Y-11028339D02*
X13416190Y-11009291D01*
X13416190Y-11009291D02*
X13420952Y-10999768D01*
X13420952Y-10999768D02*
X13430476Y-10990244D01*
X13430476Y-10990244D02*
X13444762Y-10985482D01*
X13444762Y-10985482D02*
X13454286Y-10985482D01*
X13454286Y-10985482D02*
X13468571Y-10990244D01*
X13468571Y-10990244D02*
X13473333Y-10995006D01*
X13559048Y-10985482D02*
X13540000Y-10985482D01*
X13540000Y-10985482D02*
X13530476Y-10990244D01*
X13530476Y-10990244D02*
X13525714Y-10995006D01*
X13525714Y-10995006D02*
X13516190Y-11009291D01*
X13516190Y-11009291D02*
X13511429Y-11028339D01*
X13511429Y-11028339D02*
X13511429Y-11066434D01*
X13511429Y-11066434D02*
X13516190Y-11075958D01*
X13516190Y-11075958D02*
X13520952Y-11080720D01*
X13520952Y-11080720D02*
X13530476Y-11085482D01*
X13530476Y-11085482D02*
X13549524Y-11085482D01*
X13549524Y-11085482D02*
X13559048Y-11080720D01*
X13559048Y-11080720D02*
X13563809Y-11075958D01*
X13563809Y-11075958D02*
X13568571Y-11066434D01*
X13568571Y-11066434D02*
X13568571Y-11042625D01*
X13568571Y-11042625D02*
X13563809Y-11033101D01*
X13563809Y-11033101D02*
X13559048Y-11028339D01*
X13559048Y-11028339D02*
X13549524Y-11023577D01*
X13549524Y-11023577D02*
X13530476Y-11023577D01*
X13530476Y-11023577D02*
X13520952Y-11028339D01*
X13520952Y-11028339D02*
X13516190Y-11033101D01*
X13516190Y-11033101D02*
X13511429Y-11042625D01*
D11*
X12697905Y-11719527D02*
X12685809Y-11713479D01*
X12685809Y-11713479D02*
X12673714Y-11701384D01*
X12673714Y-11701384D02*
X12655571Y-11683241D01*
X12655571Y-11683241D02*
X12643476Y-11677194D01*
X12643476Y-11677194D02*
X12631381Y-11677194D01*
X12637428Y-11707432D02*
X12625333Y-11701384D01*
X12625333Y-11701384D02*
X12613238Y-11689289D01*
X12613238Y-11689289D02*
X12607190Y-11665098D01*
X12607190Y-11665098D02*
X12607190Y-11622765D01*
X12607190Y-11622765D02*
X12613238Y-11598575D01*
X12613238Y-11598575D02*
X12625333Y-11586479D01*
X12625333Y-11586479D02*
X12637428Y-11580432D01*
X12637428Y-11580432D02*
X12661619Y-11580432D01*
X12661619Y-11580432D02*
X12673714Y-11586479D01*
X12673714Y-11586479D02*
X12685809Y-11598575D01*
X12685809Y-11598575D02*
X12691857Y-11622765D01*
X12691857Y-11622765D02*
X12691857Y-11665098D01*
X12691857Y-11665098D02*
X12685809Y-11689289D01*
X12685809Y-11689289D02*
X12673714Y-11701384D01*
X12673714Y-11701384D02*
X12661619Y-11707432D01*
X12661619Y-11707432D02*
X12637428Y-11707432D01*
X12734190Y-11580432D02*
X12812809Y-11580432D01*
X12812809Y-11580432D02*
X12770476Y-11628813D01*
X12770476Y-11628813D02*
X12788619Y-11628813D01*
X12788619Y-11628813D02*
X12800714Y-11634860D01*
X12800714Y-11634860D02*
X12806762Y-11640908D01*
X12806762Y-11640908D02*
X12812809Y-11653003D01*
X12812809Y-11653003D02*
X12812809Y-11683241D01*
X12812809Y-11683241D02*
X12806762Y-11695336D01*
X12806762Y-11695336D02*
X12800714Y-11701384D01*
X12800714Y-11701384D02*
X12788619Y-11707432D01*
X12788619Y-11707432D02*
X12752333Y-11707432D01*
X12752333Y-11707432D02*
X12740238Y-11701384D01*
X12740238Y-11701384D02*
X12734190Y-11695336D01*
D10*
X12643333Y-11545482D02*
X12610000Y-11497863D01*
X12586190Y-11545482D02*
X12586190Y-11445482D01*
X12586190Y-11445482D02*
X12624286Y-11445482D01*
X12624286Y-11445482D02*
X12633809Y-11450244D01*
X12633809Y-11450244D02*
X12638571Y-11455006D01*
X12638571Y-11455006D02*
X12643333Y-11464529D01*
X12643333Y-11464529D02*
X12643333Y-11478815D01*
X12643333Y-11478815D02*
X12638571Y-11488339D01*
X12638571Y-11488339D02*
X12633809Y-11493101D01*
X12633809Y-11493101D02*
X12624286Y-11497863D01*
X12624286Y-11497863D02*
X12586190Y-11497863D01*
X12729048Y-11478815D02*
X12729048Y-11545482D01*
X12705238Y-11440720D02*
X12681429Y-11512148D01*
X12681429Y-11512148D02*
X12743333Y-11512148D01*
X11890476Y-12075006D02*
X11880952Y-12070244D01*
X11880952Y-12070244D02*
X11871428Y-12060720D01*
X11871428Y-12060720D02*
X11857143Y-12046434D01*
X11857143Y-12046434D02*
X11847619Y-12041672D01*
X11847619Y-12041672D02*
X11838095Y-12041672D01*
X11842857Y-12065482D02*
X11833333Y-12060720D01*
X11833333Y-12060720D02*
X11823809Y-12051196D01*
X11823809Y-12051196D02*
X11819048Y-12032148D01*
X11819048Y-12032148D02*
X11819048Y-11998815D01*
X11819048Y-11998815D02*
X11823809Y-11979768D01*
X11823809Y-11979768D02*
X11833333Y-11970244D01*
X11833333Y-11970244D02*
X11842857Y-11965482D01*
X11842857Y-11965482D02*
X11861905Y-11965482D01*
X11861905Y-11965482D02*
X11871428Y-11970244D01*
X11871428Y-11970244D02*
X11880952Y-11979768D01*
X11880952Y-11979768D02*
X11885714Y-11998815D01*
X11885714Y-11998815D02*
X11885714Y-12032148D01*
X11885714Y-12032148D02*
X11880952Y-12051196D01*
X11880952Y-12051196D02*
X11871428Y-12060720D01*
X11871428Y-12060720D02*
X11861905Y-12065482D01*
X11861905Y-12065482D02*
X11842857Y-12065482D01*
X11923809Y-11975006D02*
X11928571Y-11970244D01*
X11928571Y-11970244D02*
X11938095Y-11965482D01*
X11938095Y-11965482D02*
X11961905Y-11965482D01*
X11961905Y-11965482D02*
X11971428Y-11970244D01*
X11971428Y-11970244D02*
X11976190Y-11975006D01*
X11976190Y-11975006D02*
X11980952Y-11984529D01*
X11980952Y-11984529D02*
X11980952Y-11994053D01*
X11980952Y-11994053D02*
X11976190Y-12008339D01*
X11976190Y-12008339D02*
X11919048Y-12065482D01*
X11919048Y-12065482D02*
X11980952Y-12065482D01*
X12463333Y-10935958D02*
X12458571Y-10940720D01*
X12458571Y-10940720D02*
X12444286Y-10945482D01*
X12444286Y-10945482D02*
X12434762Y-10945482D01*
X12434762Y-10945482D02*
X12420476Y-10940720D01*
X12420476Y-10940720D02*
X12410952Y-10931196D01*
X12410952Y-10931196D02*
X12406190Y-10921672D01*
X12406190Y-10921672D02*
X12401429Y-10902625D01*
X12401429Y-10902625D02*
X12401429Y-10888339D01*
X12401429Y-10888339D02*
X12406190Y-10869291D01*
X12406190Y-10869291D02*
X12410952Y-10859768D01*
X12410952Y-10859768D02*
X12420476Y-10850244D01*
X12420476Y-10850244D02*
X12434762Y-10845482D01*
X12434762Y-10845482D02*
X12444286Y-10845482D01*
X12444286Y-10845482D02*
X12458571Y-10850244D01*
X12458571Y-10850244D02*
X12463333Y-10855006D01*
X12553809Y-10845482D02*
X12506190Y-10845482D01*
X12506190Y-10845482D02*
X12501429Y-10893101D01*
X12501429Y-10893101D02*
X12506190Y-10888339D01*
X12506190Y-10888339D02*
X12515714Y-10883577D01*
X12515714Y-10883577D02*
X12539524Y-10883577D01*
X12539524Y-10883577D02*
X12549048Y-10888339D01*
X12549048Y-10888339D02*
X12553809Y-10893101D01*
X12553809Y-10893101D02*
X12558571Y-10902625D01*
X12558571Y-10902625D02*
X12558571Y-10926434D01*
X12558571Y-10926434D02*
X12553809Y-10935958D01*
X12553809Y-10935958D02*
X12549048Y-10940720D01*
X12549048Y-10940720D02*
X12539524Y-10945482D01*
X12539524Y-10945482D02*
X12515714Y-10945482D01*
X12515714Y-10945482D02*
X12506190Y-10940720D01*
X12506190Y-10940720D02*
X12501429Y-10935958D01*
X11643333Y-10365482D02*
X11610000Y-10317863D01*
X11586190Y-10365482D02*
X11586190Y-10265482D01*
X11586190Y-10265482D02*
X11624286Y-10265482D01*
X11624286Y-10265482D02*
X11633809Y-10270244D01*
X11633809Y-10270244D02*
X11638571Y-10275006D01*
X11638571Y-10275006D02*
X11643333Y-10284530D01*
X11643333Y-10284530D02*
X11643333Y-10298815D01*
X11643333Y-10298815D02*
X11638571Y-10308339D01*
X11638571Y-10308339D02*
X11633809Y-10313101D01*
X11633809Y-10313101D02*
X11624286Y-10317863D01*
X11624286Y-10317863D02*
X11586190Y-10317863D01*
X11733809Y-10265482D02*
X11686190Y-10265482D01*
X11686190Y-10265482D02*
X11681429Y-10313101D01*
X11681429Y-10313101D02*
X11686190Y-10308339D01*
X11686190Y-10308339D02*
X11695714Y-10303577D01*
X11695714Y-10303577D02*
X11719524Y-10303577D01*
X11719524Y-10303577D02*
X11729048Y-10308339D01*
X11729048Y-10308339D02*
X11733809Y-10313101D01*
X11733809Y-10313101D02*
X11738571Y-10322625D01*
X11738571Y-10322625D02*
X11738571Y-10346434D01*
X11738571Y-10346434D02*
X11733809Y-10355958D01*
X11733809Y-10355958D02*
X11729048Y-10360720D01*
X11729048Y-10360720D02*
X11719524Y-10365482D01*
X11719524Y-10365482D02*
X11695714Y-10365482D01*
X11695714Y-10365482D02*
X11686190Y-10360720D01*
X11686190Y-10360720D02*
X11681429Y-10355958D01*
X13205714Y-12075482D02*
X13172381Y-12027863D01*
X13148571Y-12075482D02*
X13148571Y-11975482D01*
X13148571Y-11975482D02*
X13186667Y-11975482D01*
X13186667Y-11975482D02*
X13196190Y-11980244D01*
X13196190Y-11980244D02*
X13200952Y-11985006D01*
X13200952Y-11985006D02*
X13205714Y-11994529D01*
X13205714Y-11994529D02*
X13205714Y-12008815D01*
X13205714Y-12008815D02*
X13200952Y-12018339D01*
X13200952Y-12018339D02*
X13196190Y-12023101D01*
X13196190Y-12023101D02*
X13186667Y-12027863D01*
X13186667Y-12027863D02*
X13148571Y-12027863D01*
X13300952Y-12075482D02*
X13243809Y-12075482D01*
X13272381Y-12075482D02*
X13272381Y-11975482D01*
X13272381Y-11975482D02*
X13262857Y-11989768D01*
X13262857Y-11989768D02*
X13253333Y-11999291D01*
X13253333Y-11999291D02*
X13243809Y-12004053D01*
X13358095Y-12018339D02*
X13348571Y-12013577D01*
X13348571Y-12013577D02*
X13343809Y-12008815D01*
X13343809Y-12008815D02*
X13339048Y-11999291D01*
X13339048Y-11999291D02*
X13339048Y-11994529D01*
X13339048Y-11994529D02*
X13343809Y-11985006D01*
X13343809Y-11985006D02*
X13348571Y-11980244D01*
X13348571Y-11980244D02*
X13358095Y-11975482D01*
X13358095Y-11975482D02*
X13377143Y-11975482D01*
X13377143Y-11975482D02*
X13386667Y-11980244D01*
X13386667Y-11980244D02*
X13391428Y-11985006D01*
X13391428Y-11985006D02*
X13396190Y-11994529D01*
X13396190Y-11994529D02*
X13396190Y-11999291D01*
X13396190Y-11999291D02*
X13391428Y-12008815D01*
X13391428Y-12008815D02*
X13386667Y-12013577D01*
X13386667Y-12013577D02*
X13377143Y-12018339D01*
X13377143Y-12018339D02*
X13358095Y-12018339D01*
X13358095Y-12018339D02*
X13348571Y-12023101D01*
X13348571Y-12023101D02*
X13343809Y-12027863D01*
X13343809Y-12027863D02*
X13339048Y-12037387D01*
X13339048Y-12037387D02*
X13339048Y-12056434D01*
X13339048Y-12056434D02*
X13343809Y-12065958D01*
X13343809Y-12065958D02*
X13348571Y-12070720D01*
X13348571Y-12070720D02*
X13358095Y-12075482D01*
X13358095Y-12075482D02*
X13377143Y-12075482D01*
X13377143Y-12075482D02*
X13386667Y-12070720D01*
X13386667Y-12070720D02*
X13391428Y-12065958D01*
X13391428Y-12065958D02*
X13396190Y-12056434D01*
X13396190Y-12056434D02*
X13396190Y-12037387D01*
X13396190Y-12037387D02*
X13391428Y-12027863D01*
X13391428Y-12027863D02*
X13386667Y-12023101D01*
X13386667Y-12023101D02*
X13377143Y-12018339D01*
X13255714Y-10645482D02*
X13222381Y-10597863D01*
X13198571Y-10645482D02*
X13198571Y-10545482D01*
X13198571Y-10545482D02*
X13236667Y-10545482D01*
X13236667Y-10545482D02*
X13246190Y-10550244D01*
X13246190Y-10550244D02*
X13250952Y-10555006D01*
X13250952Y-10555006D02*
X13255714Y-10564530D01*
X13255714Y-10564530D02*
X13255714Y-10578815D01*
X13255714Y-10578815D02*
X13250952Y-10588339D01*
X13250952Y-10588339D02*
X13246190Y-10593101D01*
X13246190Y-10593101D02*
X13236667Y-10597863D01*
X13236667Y-10597863D02*
X13198571Y-10597863D01*
X13350952Y-10645482D02*
X13293809Y-10645482D01*
X13322381Y-10645482D02*
X13322381Y-10545482D01*
X13322381Y-10545482D02*
X13312857Y-10559768D01*
X13312857Y-10559768D02*
X13303333Y-10569291D01*
X13303333Y-10569291D02*
X13293809Y-10574053D01*
X13412857Y-10545482D02*
X13422381Y-10545482D01*
X13422381Y-10545482D02*
X13431905Y-10550244D01*
X13431905Y-10550244D02*
X13436667Y-10555006D01*
X13436667Y-10555006D02*
X13441428Y-10564530D01*
X13441428Y-10564530D02*
X13446190Y-10583577D01*
X13446190Y-10583577D02*
X13446190Y-10607387D01*
X13446190Y-10607387D02*
X13441428Y-10626434D01*
X13441428Y-10626434D02*
X13436667Y-10635958D01*
X13436667Y-10635958D02*
X13431905Y-10640720D01*
X13431905Y-10640720D02*
X13422381Y-10645482D01*
X13422381Y-10645482D02*
X13412857Y-10645482D01*
X13412857Y-10645482D02*
X13403333Y-10640720D01*
X13403333Y-10640720D02*
X13398571Y-10635958D01*
X13398571Y-10635958D02*
X13393809Y-10626434D01*
X13393809Y-10626434D02*
X13389048Y-10607387D01*
X13389048Y-10607387D02*
X13389048Y-10583577D01*
X13389048Y-10583577D02*
X13393809Y-10564530D01*
X13393809Y-10564530D02*
X13398571Y-10555006D01*
X13398571Y-10555006D02*
X13403333Y-10550244D01*
X13403333Y-10550244D02*
X13412857Y-10545482D01*
X12693333Y-10397208D02*
X12688571Y-10401970D01*
X12688571Y-10401970D02*
X12674286Y-10406732D01*
X12674286Y-10406732D02*
X12664762Y-10406732D01*
X12664762Y-10406732D02*
X12650476Y-10401970D01*
X12650476Y-10401970D02*
X12640952Y-10392446D01*
X12640952Y-10392446D02*
X12636190Y-10382922D01*
X12636190Y-10382922D02*
X12631429Y-10363875D01*
X12631429Y-10363875D02*
X12631429Y-10349589D01*
X12631429Y-10349589D02*
X12636190Y-10330541D01*
X12636190Y-10330541D02*
X12640952Y-10321018D01*
X12640952Y-10321018D02*
X12650476Y-10311494D01*
X12650476Y-10311494D02*
X12664762Y-10306732D01*
X12664762Y-10306732D02*
X12674286Y-10306732D01*
X12674286Y-10306732D02*
X12688571Y-10311494D01*
X12688571Y-10311494D02*
X12693333Y-10316256D01*
X12726667Y-10306732D02*
X12788571Y-10306732D01*
X12788571Y-10306732D02*
X12755238Y-10344827D01*
X12755238Y-10344827D02*
X12769524Y-10344827D01*
X12769524Y-10344827D02*
X12779048Y-10349589D01*
X12779048Y-10349589D02*
X12783809Y-10354351D01*
X12783809Y-10354351D02*
X12788571Y-10363875D01*
X12788571Y-10363875D02*
X12788571Y-10387684D01*
X12788571Y-10387684D02*
X12783809Y-10397208D01*
X12783809Y-10397208D02*
X12779048Y-10401970D01*
X12779048Y-10401970D02*
X12769524Y-10406732D01*
X12769524Y-10406732D02*
X12740952Y-10406732D01*
X12740952Y-10406732D02*
X12731429Y-10401970D01*
X12731429Y-10401970D02*
X12726667Y-10397208D01*
X11143333Y-9865482D02*
X11110000Y-9817863D01*
X11086191Y-9865482D02*
X11086191Y-9765482D01*
X11086191Y-9765482D02*
X11124286Y-9765482D01*
X11124286Y-9765482D02*
X11133810Y-9770244D01*
X11133810Y-9770244D02*
X11138571Y-9775006D01*
X11138571Y-9775006D02*
X11143333Y-9784530D01*
X11143333Y-9784530D02*
X11143333Y-9798815D01*
X11143333Y-9798815D02*
X11138571Y-9808339D01*
X11138571Y-9808339D02*
X11133810Y-9813101D01*
X11133810Y-9813101D02*
X11124286Y-9817863D01*
X11124286Y-9817863D02*
X11086191Y-9817863D01*
X11200476Y-9808339D02*
X11190952Y-9803577D01*
X11190952Y-9803577D02*
X11186190Y-9798815D01*
X11186190Y-9798815D02*
X11181429Y-9789291D01*
X11181429Y-9789291D02*
X11181429Y-9784530D01*
X11181429Y-9784530D02*
X11186190Y-9775006D01*
X11186190Y-9775006D02*
X11190952Y-9770244D01*
X11190952Y-9770244D02*
X11200476Y-9765482D01*
X11200476Y-9765482D02*
X11219524Y-9765482D01*
X11219524Y-9765482D02*
X11229048Y-9770244D01*
X11229048Y-9770244D02*
X11233809Y-9775006D01*
X11233809Y-9775006D02*
X11238571Y-9784530D01*
X11238571Y-9784530D02*
X11238571Y-9789291D01*
X11238571Y-9789291D02*
X11233809Y-9798815D01*
X11233809Y-9798815D02*
X11229048Y-9803577D01*
X11229048Y-9803577D02*
X11219524Y-9808339D01*
X11219524Y-9808339D02*
X11200476Y-9808339D01*
X11200476Y-9808339D02*
X11190952Y-9813101D01*
X11190952Y-9813101D02*
X11186190Y-9817863D01*
X11186190Y-9817863D02*
X11181429Y-9827387D01*
X11181429Y-9827387D02*
X11181429Y-9846434D01*
X11181429Y-9846434D02*
X11186190Y-9855958D01*
X11186190Y-9855958D02*
X11190952Y-9860720D01*
X11190952Y-9860720D02*
X11200476Y-9865482D01*
X11200476Y-9865482D02*
X11219524Y-9865482D01*
X11219524Y-9865482D02*
X11229048Y-9860720D01*
X11229048Y-9860720D02*
X11233809Y-9855958D01*
X11233809Y-9855958D02*
X11238571Y-9846434D01*
X11238571Y-9846434D02*
X11238571Y-9827387D01*
X11238571Y-9827387D02*
X11233809Y-9817863D01*
X11233809Y-9817863D02*
X11229048Y-9813101D01*
X11229048Y-9813101D02*
X11219524Y-9808339D01*
X11815714Y-12375482D02*
X11782381Y-12327863D01*
X11758571Y-12375482D02*
X11758571Y-12275482D01*
X11758571Y-12275482D02*
X11796667Y-12275482D01*
X11796667Y-12275482D02*
X11806190Y-12280244D01*
X11806190Y-12280244D02*
X11810952Y-12285006D01*
X11810952Y-12285006D02*
X11815714Y-12294529D01*
X11815714Y-12294529D02*
X11815714Y-12308815D01*
X11815714Y-12308815D02*
X11810952Y-12318339D01*
X11810952Y-12318339D02*
X11806190Y-12323101D01*
X11806190Y-12323101D02*
X11796667Y-12327863D01*
X11796667Y-12327863D02*
X11758571Y-12327863D01*
X11910952Y-12375482D02*
X11853809Y-12375482D01*
X11882381Y-12375482D02*
X11882381Y-12275482D01*
X11882381Y-12275482D02*
X11872857Y-12289768D01*
X11872857Y-12289768D02*
X11863333Y-12299291D01*
X11863333Y-12299291D02*
X11853809Y-12304053D01*
X11996667Y-12275482D02*
X11977619Y-12275482D01*
X11977619Y-12275482D02*
X11968095Y-12280244D01*
X11968095Y-12280244D02*
X11963333Y-12285006D01*
X11963333Y-12285006D02*
X11953809Y-12299291D01*
X11953809Y-12299291D02*
X11949048Y-12318339D01*
X11949048Y-12318339D02*
X11949048Y-12356434D01*
X11949048Y-12356434D02*
X11953809Y-12365958D01*
X11953809Y-12365958D02*
X11958571Y-12370720D01*
X11958571Y-12370720D02*
X11968095Y-12375482D01*
X11968095Y-12375482D02*
X11987143Y-12375482D01*
X11987143Y-12375482D02*
X11996667Y-12370720D01*
X11996667Y-12370720D02*
X12001428Y-12365958D01*
X12001428Y-12365958D02*
X12006190Y-12356434D01*
X12006190Y-12356434D02*
X12006190Y-12332625D01*
X12006190Y-12332625D02*
X12001428Y-12323101D01*
X12001428Y-12323101D02*
X11996667Y-12318339D01*
X11996667Y-12318339D02*
X11987143Y-12313577D01*
X11987143Y-12313577D02*
X11968095Y-12313577D01*
X11968095Y-12313577D02*
X11958571Y-12318339D01*
X11958571Y-12318339D02*
X11953809Y-12323101D01*
X11953809Y-12323101D02*
X11949048Y-12332625D01*
X13263333Y-10225482D02*
X13230000Y-10177863D01*
X13206190Y-10225482D02*
X13206190Y-10125482D01*
X13206190Y-10125482D02*
X13244286Y-10125482D01*
X13244286Y-10125482D02*
X13253809Y-10130244D01*
X13253809Y-10130244D02*
X13258571Y-10135006D01*
X13258571Y-10135006D02*
X13263333Y-10144530D01*
X13263333Y-10144530D02*
X13263333Y-10158815D01*
X13263333Y-10158815D02*
X13258571Y-10168339D01*
X13258571Y-10168339D02*
X13253809Y-10173101D01*
X13253809Y-10173101D02*
X13244286Y-10177863D01*
X13244286Y-10177863D02*
X13206190Y-10177863D01*
X13310952Y-10225482D02*
X13330000Y-10225482D01*
X13330000Y-10225482D02*
X13339524Y-10220720D01*
X13339524Y-10220720D02*
X13344286Y-10215958D01*
X13344286Y-10215958D02*
X13353809Y-10201672D01*
X13353809Y-10201672D02*
X13358571Y-10182625D01*
X13358571Y-10182625D02*
X13358571Y-10144530D01*
X13358571Y-10144530D02*
X13353809Y-10135006D01*
X13353809Y-10135006D02*
X13349048Y-10130244D01*
X13349048Y-10130244D02*
X13339524Y-10125482D01*
X13339524Y-10125482D02*
X13320476Y-10125482D01*
X13320476Y-10125482D02*
X13310952Y-10130244D01*
X13310952Y-10130244D02*
X13306190Y-10135006D01*
X13306190Y-10135006D02*
X13301429Y-10144530D01*
X13301429Y-10144530D02*
X13301429Y-10168339D01*
X13301429Y-10168339D02*
X13306190Y-10177863D01*
X13306190Y-10177863D02*
X13310952Y-10182625D01*
X13310952Y-10182625D02*
X13320476Y-10187387D01*
X13320476Y-10187387D02*
X13339524Y-10187387D01*
X13339524Y-10187387D02*
X13349048Y-10182625D01*
X13349048Y-10182625D02*
X13353809Y-10177863D01*
X13353809Y-10177863D02*
X13358571Y-10168339D01*
X11853809Y-11005482D02*
X11910952Y-11005482D01*
X11882381Y-11105482D02*
X11882381Y-11005482D01*
X11944286Y-11105482D02*
X11944286Y-11005482D01*
X11944286Y-11005482D02*
X11982381Y-11005482D01*
X11982381Y-11005482D02*
X11991905Y-11010244D01*
X11991905Y-11010244D02*
X11996667Y-11015006D01*
X11996667Y-11015006D02*
X12001428Y-11024530D01*
X12001428Y-11024530D02*
X12001428Y-11038815D01*
X12001428Y-11038815D02*
X11996667Y-11048339D01*
X11996667Y-11048339D02*
X11991905Y-11053101D01*
X11991905Y-11053101D02*
X11982381Y-11057863D01*
X11982381Y-11057863D02*
X11944286Y-11057863D01*
X12096667Y-11105482D02*
X12039524Y-11105482D01*
X12068095Y-11105482D02*
X12068095Y-11005482D01*
X12068095Y-11005482D02*
X12058571Y-11019768D01*
X12058571Y-11019768D02*
X12049048Y-11029291D01*
X12049048Y-11029291D02*
X12039524Y-11034053D01*
X12423333Y-11545958D02*
X12418571Y-11550720D01*
X12418571Y-11550720D02*
X12404286Y-11555482D01*
X12404286Y-11555482D02*
X12394762Y-11555482D01*
X12394762Y-11555482D02*
X12380476Y-11550720D01*
X12380476Y-11550720D02*
X12370952Y-11541196D01*
X12370952Y-11541196D02*
X12366190Y-11531672D01*
X12366190Y-11531672D02*
X12361429Y-11512625D01*
X12361429Y-11512625D02*
X12361429Y-11498339D01*
X12361429Y-11498339D02*
X12366190Y-11479291D01*
X12366190Y-11479291D02*
X12370952Y-11469768D01*
X12370952Y-11469768D02*
X12380476Y-11460244D01*
X12380476Y-11460244D02*
X12394762Y-11455482D01*
X12394762Y-11455482D02*
X12404286Y-11455482D01*
X12404286Y-11455482D02*
X12418571Y-11460244D01*
X12418571Y-11460244D02*
X12423333Y-11465006D01*
X12461429Y-11465006D02*
X12466190Y-11460244D01*
X12466190Y-11460244D02*
X12475714Y-11455482D01*
X12475714Y-11455482D02*
X12499524Y-11455482D01*
X12499524Y-11455482D02*
X12509048Y-11460244D01*
X12509048Y-11460244D02*
X12513809Y-11465006D01*
X12513809Y-11465006D02*
X12518571Y-11474529D01*
X12518571Y-11474529D02*
X12518571Y-11484053D01*
X12518571Y-11484053D02*
X12513809Y-11498339D01*
X12513809Y-11498339D02*
X12456667Y-11555482D01*
X12456667Y-11555482D02*
X12518571Y-11555482D01*
X12175714Y-9875482D02*
X12142381Y-9827863D01*
X12118571Y-9875482D02*
X12118571Y-9775482D01*
X12118571Y-9775482D02*
X12156667Y-9775482D01*
X12156667Y-9775482D02*
X12166190Y-9780244D01*
X12166190Y-9780244D02*
X12170952Y-9785006D01*
X12170952Y-9785006D02*
X12175714Y-9794530D01*
X12175714Y-9794530D02*
X12175714Y-9808815D01*
X12175714Y-9808815D02*
X12170952Y-9818339D01*
X12170952Y-9818339D02*
X12166190Y-9823101D01*
X12166190Y-9823101D02*
X12156667Y-9827863D01*
X12156667Y-9827863D02*
X12118571Y-9827863D01*
X12270952Y-9875482D02*
X12213809Y-9875482D01*
X12242381Y-9875482D02*
X12242381Y-9775482D01*
X12242381Y-9775482D02*
X12232857Y-9789768D01*
X12232857Y-9789768D02*
X12223333Y-9799291D01*
X12223333Y-9799291D02*
X12213809Y-9804053D01*
X12304286Y-9775482D02*
X12366190Y-9775482D01*
X12366190Y-9775482D02*
X12332857Y-9813577D01*
X12332857Y-9813577D02*
X12347143Y-9813577D01*
X12347143Y-9813577D02*
X12356667Y-9818339D01*
X12356667Y-9818339D02*
X12361428Y-9823101D01*
X12361428Y-9823101D02*
X12366190Y-9832625D01*
X12366190Y-9832625D02*
X12366190Y-9856434D01*
X12366190Y-9856434D02*
X12361428Y-9865958D01*
X12361428Y-9865958D02*
X12356667Y-9870720D01*
X12356667Y-9870720D02*
X12347143Y-9875482D01*
X12347143Y-9875482D02*
X12318571Y-9875482D01*
X12318571Y-9875482D02*
X12309048Y-9870720D01*
X12309048Y-9870720D02*
X12304286Y-9865958D01*
X12653333Y-10975958D02*
X12648571Y-10980720D01*
X12648571Y-10980720D02*
X12634286Y-10985482D01*
X12634286Y-10985482D02*
X12624762Y-10985482D01*
X12624762Y-10985482D02*
X12610476Y-10980720D01*
X12610476Y-10980720D02*
X12600952Y-10971196D01*
X12600952Y-10971196D02*
X12596190Y-10961672D01*
X12596190Y-10961672D02*
X12591429Y-10942625D01*
X12591429Y-10942625D02*
X12591429Y-10928339D01*
X12591429Y-10928339D02*
X12596190Y-10909291D01*
X12596190Y-10909291D02*
X12600952Y-10899768D01*
X12600952Y-10899768D02*
X12610476Y-10890244D01*
X12610476Y-10890244D02*
X12624762Y-10885482D01*
X12624762Y-10885482D02*
X12634286Y-10885482D01*
X12634286Y-10885482D02*
X12648571Y-10890244D01*
X12648571Y-10890244D02*
X12653333Y-10895006D01*
X12686667Y-10885482D02*
X12753333Y-10885482D01*
X12753333Y-10885482D02*
X12710476Y-10985482D01*
X12093333Y-11255958D02*
X12088571Y-11260720D01*
X12088571Y-11260720D02*
X12074286Y-11265482D01*
X12074286Y-11265482D02*
X12064762Y-11265482D01*
X12064762Y-11265482D02*
X12050476Y-11260720D01*
X12050476Y-11260720D02*
X12040952Y-11251196D01*
X12040952Y-11251196D02*
X12036190Y-11241672D01*
X12036190Y-11241672D02*
X12031429Y-11222625D01*
X12031429Y-11222625D02*
X12031429Y-11208339D01*
X12031429Y-11208339D02*
X12036190Y-11189291D01*
X12036190Y-11189291D02*
X12040952Y-11179768D01*
X12040952Y-11179768D02*
X12050476Y-11170244D01*
X12050476Y-11170244D02*
X12064762Y-11165482D01*
X12064762Y-11165482D02*
X12074286Y-11165482D01*
X12074286Y-11165482D02*
X12088571Y-11170244D01*
X12088571Y-11170244D02*
X12093333Y-11175006D01*
X12188571Y-11265482D02*
X12131429Y-11265482D01*
X12160000Y-11265482D02*
X12160000Y-11165482D01*
X12160000Y-11165482D02*
X12150476Y-11179768D01*
X12150476Y-11179768D02*
X12140952Y-11189291D01*
X12140952Y-11189291D02*
X12131429Y-11194053D01*
X12505714Y-12235482D02*
X12472381Y-12187863D01*
X12448571Y-12235482D02*
X12448571Y-12135482D01*
X12448571Y-12135482D02*
X12486667Y-12135482D01*
X12486667Y-12135482D02*
X12496190Y-12140244D01*
X12496190Y-12140244D02*
X12500952Y-12145006D01*
X12500952Y-12145006D02*
X12505714Y-12154529D01*
X12505714Y-12154529D02*
X12505714Y-12168815D01*
X12505714Y-12168815D02*
X12500952Y-12178339D01*
X12500952Y-12178339D02*
X12496190Y-12183101D01*
X12496190Y-12183101D02*
X12486667Y-12187863D01*
X12486667Y-12187863D02*
X12448571Y-12187863D01*
X12600952Y-12235482D02*
X12543809Y-12235482D01*
X12572381Y-12235482D02*
X12572381Y-12135482D01*
X12572381Y-12135482D02*
X12562857Y-12149768D01*
X12562857Y-12149768D02*
X12553333Y-12159291D01*
X12553333Y-12159291D02*
X12543809Y-12164053D01*
X12634286Y-12135482D02*
X12700952Y-12135482D01*
X12700952Y-12135482D02*
X12658095Y-12235482D01*
X11313333Y-10365482D02*
X11280000Y-10317863D01*
X11256190Y-10365482D02*
X11256190Y-10265482D01*
X11256190Y-10265482D02*
X11294286Y-10265482D01*
X11294286Y-10265482D02*
X11303809Y-10270244D01*
X11303809Y-10270244D02*
X11308571Y-10275006D01*
X11308571Y-10275006D02*
X11313333Y-10284530D01*
X11313333Y-10284530D02*
X11313333Y-10298815D01*
X11313333Y-10298815D02*
X11308571Y-10308339D01*
X11308571Y-10308339D02*
X11303809Y-10313101D01*
X11303809Y-10313101D02*
X11294286Y-10317863D01*
X11294286Y-10317863D02*
X11256190Y-10317863D01*
X11346667Y-10265482D02*
X11413333Y-10265482D01*
X11413333Y-10265482D02*
X11370476Y-10365482D01*
X11083333Y-10885482D02*
X11050000Y-10837863D01*
X11026191Y-10885482D02*
X11026191Y-10785482D01*
X11026191Y-10785482D02*
X11064286Y-10785482D01*
X11064286Y-10785482D02*
X11073810Y-10790244D01*
X11073810Y-10790244D02*
X11078571Y-10795006D01*
X11078571Y-10795006D02*
X11083333Y-10804530D01*
X11083333Y-10804530D02*
X11083333Y-10818815D01*
X11083333Y-10818815D02*
X11078571Y-10828339D01*
X11078571Y-10828339D02*
X11073810Y-10833101D01*
X11073810Y-10833101D02*
X11064286Y-10837863D01*
X11064286Y-10837863D02*
X11026191Y-10837863D01*
X11178571Y-10885482D02*
X11121429Y-10885482D01*
X11150000Y-10885482D02*
X11150000Y-10785482D01*
X11150000Y-10785482D02*
X11140476Y-10799768D01*
X11140476Y-10799768D02*
X11130952Y-10809291D01*
X11130952Y-10809291D02*
X11121429Y-10814053D01*
X11685714Y-9855482D02*
X11652381Y-9807863D01*
X11628571Y-9855482D02*
X11628571Y-9755482D01*
X11628571Y-9755482D02*
X11666667Y-9755482D01*
X11666667Y-9755482D02*
X11676190Y-9760244D01*
X11676190Y-9760244D02*
X11680952Y-9765006D01*
X11680952Y-9765006D02*
X11685714Y-9774530D01*
X11685714Y-9774530D02*
X11685714Y-9788815D01*
X11685714Y-9788815D02*
X11680952Y-9798339D01*
X11680952Y-9798339D02*
X11676190Y-9803101D01*
X11676190Y-9803101D02*
X11666667Y-9807863D01*
X11666667Y-9807863D02*
X11628571Y-9807863D01*
X11780952Y-9855482D02*
X11723809Y-9855482D01*
X11752381Y-9855482D02*
X11752381Y-9755482D01*
X11752381Y-9755482D02*
X11742857Y-9769768D01*
X11742857Y-9769768D02*
X11733333Y-9779291D01*
X11733333Y-9779291D02*
X11723809Y-9784053D01*
X11876190Y-9855482D02*
X11819048Y-9855482D01*
X11847619Y-9855482D02*
X11847619Y-9755482D01*
X11847619Y-9755482D02*
X11838095Y-9769768D01*
X11838095Y-9769768D02*
X11828571Y-9779291D01*
X11828571Y-9779291D02*
X11819048Y-9784053D01*
X11443809Y-10445482D02*
X11443809Y-10526434D01*
X11443809Y-10526434D02*
X11448571Y-10535958D01*
X11448571Y-10535958D02*
X11453333Y-10540720D01*
X11453333Y-10540720D02*
X11462857Y-10545482D01*
X11462857Y-10545482D02*
X11481905Y-10545482D01*
X11481905Y-10545482D02*
X11491428Y-10540720D01*
X11491428Y-10540720D02*
X11496190Y-10535958D01*
X11496190Y-10535958D02*
X11500952Y-10526434D01*
X11500952Y-10526434D02*
X11500952Y-10445482D01*
X11600952Y-10545482D02*
X11543809Y-10545482D01*
X11572381Y-10545482D02*
X11572381Y-10445482D01*
X11572381Y-10445482D02*
X11562857Y-10459768D01*
X11562857Y-10459768D02*
X11553333Y-10469291D01*
X11553333Y-10469291D02*
X11543809Y-10474053D01*
X12586190Y-11915482D02*
X12586190Y-11815482D01*
X12586190Y-11815482D02*
X12610000Y-11815482D01*
X12610000Y-11815482D02*
X12624286Y-11820244D01*
X12624286Y-11820244D02*
X12633809Y-11829768D01*
X12633809Y-11829768D02*
X12638571Y-11839291D01*
X12638571Y-11839291D02*
X12643333Y-11858339D01*
X12643333Y-11858339D02*
X12643333Y-11872625D01*
X12643333Y-11872625D02*
X12638571Y-11891672D01*
X12638571Y-11891672D02*
X12633809Y-11901196D01*
X12633809Y-11901196D02*
X12624286Y-11910720D01*
X12624286Y-11910720D02*
X12610000Y-11915482D01*
X12610000Y-11915482D02*
X12586190Y-11915482D01*
X12681429Y-11825006D02*
X12686190Y-11820244D01*
X12686190Y-11820244D02*
X12695714Y-11815482D01*
X12695714Y-11815482D02*
X12719524Y-11815482D01*
X12719524Y-11815482D02*
X12729048Y-11820244D01*
X12729048Y-11820244D02*
X12733809Y-11825006D01*
X12733809Y-11825006D02*
X12738571Y-11834529D01*
X12738571Y-11834529D02*
X12738571Y-11844053D01*
X12738571Y-11844053D02*
X12733809Y-11858339D01*
X12733809Y-11858339D02*
X12676667Y-11915482D01*
X12676667Y-11915482D02*
X12738571Y-11915482D01*
D12*
%TO.C,R15*%
X12975472Y-12147750D02*
X12924528Y-12147750D01*
X12975472Y-12252250D02*
X12924528Y-12252250D01*
D13*
%TO.C,Q1*%
X12825000Y-10970000D02*
X13315000Y-10970000D01*
X12825000Y-11290000D02*
X12825000Y-10970000D01*
X13315000Y-10970000D02*
X13315000Y-11290000D01*
X13315000Y-11290000D02*
X12825000Y-11290000D01*
X13330500Y-10782500D02*
X13330500Y-10935000D01*
D12*
%TO.C,R3*%
X11395472Y-10607750D02*
X11344528Y-10607750D01*
X11395472Y-10712250D02*
X11344528Y-10712250D01*
%TO.C,R6*%
X11447750Y-10045778D02*
X11447750Y-10096722D01*
X11552250Y-10045778D02*
X11552250Y-10096722D01*
%TO.C,D3*%
X13446500Y-11640000D02*
X13446500Y-11886000D01*
X13446500Y-11886000D02*
X13593500Y-11886000D01*
X13593500Y-11886000D02*
X13593500Y-11640000D01*
%TO.C,R19*%
X13687750Y-11745472D02*
X13687750Y-11694528D01*
X13792250Y-11745472D02*
X13792250Y-11694528D01*
%TO.C,C8*%
X13654000Y-11321125D02*
X13654000Y-11178875D01*
X13926000Y-11321125D02*
X13926000Y-11178875D01*
%TO.C,R2*%
X11827750Y-11504528D02*
X11827750Y-11555472D01*
X11932250Y-11504528D02*
X11932250Y-11555472D01*
%TO.C,R14*%
X12247750Y-10096722D02*
X12247750Y-10045778D01*
X12352250Y-10096722D02*
X12352250Y-10045778D01*
D14*
%TO.C,J2*%
X14036900Y-10882000D02*
X14036900Y-12080000D01*
X14036900Y-12080000D02*
X15236900Y-12080000D01*
X15236900Y-10882000D02*
X14036900Y-10882000D01*
X15236900Y-12080000D02*
X15236900Y-10882000D01*
D13*
X14005600Y-11735000D02*
G75*
G02*
X13985600Y-11735000I-10000J0D01*
G01*
X13985600Y-11735000D02*
G75*
G02*
X14005600Y-11735000I10000J0D01*
G01*
D12*
%TO.C,R12*%
X11927750Y-10096722D02*
X11927750Y-10045778D01*
X12032250Y-10096722D02*
X12032250Y-10045778D01*
%TO.C,C4*%
X12259000Y-10636623D02*
X12259000Y-10665877D01*
X12361000Y-10636623D02*
X12361000Y-10665877D01*
%TO.C,D1*%
X13296000Y-10300000D02*
X12895000Y-10300000D01*
X13296000Y-10500000D02*
X12895000Y-10500000D01*
X13296000Y-10500000D02*
X13296000Y-10300000D01*
D13*
%TO.C,J1*%
X10855250Y-10988500D02*
X10855250Y-11973500D01*
X10855250Y-10988500D02*
X10895250Y-10988500D01*
X10855250Y-11973500D02*
X10895250Y-11973500D01*
X11125250Y-11973500D02*
X11744250Y-11973500D01*
X11744250Y-10988500D02*
X11125250Y-10988500D01*
X11744250Y-10988500D02*
X11744250Y-11973500D01*
X11820250Y-11201000D02*
G75*
G02*
X11800250Y-11201000I-10000J0D01*
G01*
X11800250Y-11201000D02*
G75*
G02*
X11820250Y-11201000I10000J0D01*
G01*
D12*
%TO.C,C6*%
X13416500Y-11329875D02*
X13416500Y-11277625D01*
X13563500Y-11329875D02*
X13563500Y-11277625D01*
D13*
%TO.C,Q3*%
X12867500Y-11905000D02*
X12867500Y-11815000D01*
X12880000Y-11700000D02*
X13170000Y-11700000D01*
X12880000Y-11780000D02*
X12880000Y-11700000D01*
X13170000Y-11700000D02*
X13170000Y-11780000D01*
X13170000Y-11780000D02*
X12880000Y-11780000D01*
D12*
%TO.C,R4*%
X12607750Y-11265472D02*
X12607750Y-11214528D01*
X12712250Y-11265472D02*
X12712250Y-11214528D01*
%TO.C,Q2*%
X12054000Y-11944000D02*
X12154000Y-11944000D01*
X12054000Y-12096000D02*
X12054000Y-11944000D01*
X12059000Y-12096000D02*
X12054000Y-12096000D01*
X12249000Y-12096000D02*
X12171000Y-12096000D01*
X12266000Y-11944000D02*
X12366000Y-11944000D01*
X12366000Y-11944000D02*
X12366000Y-12096000D01*
X12366000Y-12096000D02*
X12361000Y-12096000D01*
X12205000Y-12174000D02*
X12172000Y-12150000D01*
X12205000Y-12126000D01*
X12205000Y-12174000D01*
G36*
X12205000Y-12174000D02*
G01*
X12172000Y-12150000D01*
X12205000Y-12126000D01*
X12205000Y-12174000D01*
G37*
%TO.C,C5*%
X12429000Y-10636623D02*
X12429000Y-10665877D01*
X12531000Y-10636623D02*
X12531000Y-10665877D01*
%TO.C,R5*%
X11607750Y-10045778D02*
X11607750Y-10096722D01*
X11712250Y-10045778D02*
X11712250Y-10096722D01*
%TO.C,R18*%
X12924528Y-11977750D02*
X12975472Y-11977750D01*
X12924528Y-12082250D02*
X12975472Y-12082250D01*
%TO.C,R10*%
X13015472Y-10547750D02*
X12964528Y-10547750D01*
X13015472Y-10652250D02*
X12964528Y-10652250D01*
%TO.C,C3*%
X12393875Y-10287750D02*
X12446125Y-10287750D01*
X12393875Y-10434750D02*
X12446125Y-10434750D01*
%TO.C,R8*%
X11117750Y-10045778D02*
X11117750Y-10096722D01*
X11222250Y-10045778D02*
X11222250Y-10096722D01*
%TO.C,R16*%
X12184528Y-12247750D02*
X12235472Y-12247750D01*
X12184528Y-12352250D02*
X12235472Y-12352250D01*
%TO.C,R9*%
X13015472Y-10127750D02*
X12964528Y-10127750D01*
X13015472Y-10232250D02*
X12964528Y-10232250D01*
%TO.C,TP1*%
X12290000Y-11070000D02*
G75*
G02*
X12150000Y-11070000I-70000J0D01*
G01*
X12150000Y-11070000D02*
G75*
G02*
X12290000Y-11070000I70000J0D01*
G01*
%TO.C,C2*%
X12366500Y-11249875D02*
X12366500Y-11197625D01*
X12513500Y-11249875D02*
X12513500Y-11197625D01*
%TO.C,R13*%
X12087750Y-10096722D02*
X12087750Y-10045778D01*
X12192250Y-10096722D02*
X12192250Y-10045778D01*
%TO.C,C7*%
X12596500Y-10645125D02*
X12596500Y-10697375D01*
X12743500Y-10645125D02*
X12743500Y-10697375D01*
%TO.C,C1*%
X12014000Y-11468875D02*
X12014000Y-11611125D01*
X12286000Y-11468875D02*
X12286000Y-11611125D01*
%TO.C,R17*%
X12595472Y-11977750D02*
X12544528Y-11977750D01*
X12595472Y-12082250D02*
X12544528Y-12082250D01*
%TO.C,R7*%
X11277750Y-10045778D02*
X11277750Y-10096722D01*
X11382250Y-10045778D02*
X11382250Y-10096722D01*
%TO.C,R1*%
X11344528Y-10787750D02*
X11395472Y-10787750D01*
X11344528Y-10892250D02*
X11395472Y-10892250D01*
%TO.C,R11*%
X11767750Y-10096722D02*
X11767750Y-10045778D01*
X11872250Y-10096722D02*
X11872250Y-10045778D01*
%TO.C,U1*%
X11691500Y-10425250D02*
X11739000Y-10425250D01*
X11691500Y-10472750D02*
X11691500Y-10425250D01*
X11691500Y-10847250D02*
X11691500Y-10799750D01*
X11739000Y-10847250D02*
X11691500Y-10847250D01*
X12066000Y-10425250D02*
X12113500Y-10425250D01*
X12113500Y-10425250D02*
X12113500Y-10472750D01*
X12113500Y-10799750D02*
X12113500Y-10847250D01*
X12113500Y-10847250D02*
X12066000Y-10847250D01*
X12027500Y-10372250D02*
X12003500Y-10339250D01*
X12051500Y-10339250D01*
X12027500Y-10372250D01*
G36*
X12027500Y-10372250D02*
G01*
X12003500Y-10339250D01*
X12051500Y-10339250D01*
X12027500Y-10372250D01*
G37*
%TO.C,D2*%
X12406500Y-11680000D02*
X12406500Y-11926000D01*
X12406500Y-11926000D02*
X12553500Y-11926000D01*
X12553500Y-11926000D02*
X12553500Y-11680000D01*
%TD*%
M02*
