%TF.GenerationSoftware,KiCad,Pcbnew,9.0.6*%
%TF.CreationDate,2026-01-22T02:23:31+05:30*%
%TF.ProjectId,USB-PD-Trigger-Board,5553422d-5044-42d5-9472-69676765722d,rev?*%
%TF.SameCoordinates,Original*%
%TF.FileFunction,Soldermask,Top*%
%TF.FilePolarity,Negative*%
%FSLAX45Y45*%
G04 Gerber Fmt 4.5, Leading zero omitted, Abs format (unit mm)*
G04 Created by KiCad (PCBNEW 9.0.6) date 2026-01-22 02:23:31*
%MOMM*%
%LPD*%
G01*
G04 APERTURE LIST*
G04 Aperture macros list*
%AMRoundRect*
0 Rectangle with rounded corners*
0 $1 Rounding radius*
0 $2 $3 $4 $5 $6 $7 $8 $9 X,Y pos of 4 corners*
0 Add a 4 corners polygon primitive as box body*
4,1,4,$2,$3,$4,$5,$6,$7,$8,$9,$2,$3,0*
0 Add four circle primitives for the rounded corners*
1,1,$1+$1,$2,$3*
1,1,$1+$1,$4,$5*
1,1,$1+$1,$6,$7*
1,1,$1+$1,$8,$9*
0 Add four rect primitives between the rounded corners*
20,1,$1+$1,$2,$3,$4,$5,0*
20,1,$1+$1,$4,$5,$6,$7,0*
20,1,$1+$1,$6,$7,$8,$9,0*
20,1,$1+$1,$8,$9,$2,$3,0*%
G04 Aperture macros list end*
%ADD10C,0.010000*%
%ADD11RoundRect,0.237500X0.250000X0.237500X-0.250000X0.237500X-0.250000X-0.237500X0.250000X-0.237500X0*%
%ADD12R,0.700000X1.525000*%
%ADD13RoundRect,0.237500X-0.237500X0.250000X-0.237500X-0.250000X0.237500X-0.250000X0.237500X0.250000X0*%
%ADD14RoundRect,0.237500X0.237500X-0.287500X0.237500X0.287500X-0.237500X0.287500X-0.237500X-0.287500X0*%
%ADD15RoundRect,0.237500X0.237500X-0.250000X0.237500X0.250000X-0.237500X0.250000X-0.237500X-0.250000X0*%
%ADD16RoundRect,0.250000X1.100000X-0.412500X1.100000X0.412500X-1.100000X0.412500X-1.100000X-0.412500X0*%
%ADD17RoundRect,0.102000X1.050000X-1.050000X1.050000X1.050000X-1.050000X1.050000X-1.050000X-1.050000X0*%
%ADD18C,2.304000*%
%ADD19RoundRect,0.237500X-0.237500X0.300000X-0.237500X-0.300000X0.237500X-0.300000X0.237500X0.300000X0*%
%ADD20RoundRect,0.225000X0.225000X0.375000X-0.225000X0.375000X-0.225000X-0.375000X0.225000X-0.375000X0*%
%ADD21C,0.650000*%
%ADD22O,0.650000X0.950000*%
%ADD23RoundRect,0.102000X-0.450000X0.150000X-0.450000X-0.150000X0.450000X-0.150000X0.450000X0.150000X0*%
%ADD24C,0.804000*%
%ADD25O,1.604000X1.004000*%
%ADD26RoundRect,0.250000X0.475000X-0.337500X0.475000X0.337500X-0.475000X0.337500X-0.475000X-0.337500X0*%
%ADD27R,0.550000X0.900000*%
%ADD28RoundRect,0.150000X0.150000X-0.587500X0.150000X0.587500X-0.150000X0.587500X-0.150000X-0.587500X0*%
%ADD29RoundRect,0.237500X-0.250000X-0.237500X0.250000X-0.237500X0.250000X0.237500X-0.250000X0.237500X0*%
%ADD30RoundRect,0.250000X-0.337500X-0.475000X0.337500X-0.475000X0.337500X0.475000X-0.337500X0.475000X0*%
%ADD31C,1.000000*%
%ADD32RoundRect,0.250000X-0.475000X0.337500X-0.475000X-0.337500X0.475000X-0.337500X0.475000X0.337500X0*%
%ADD33RoundRect,0.250000X-1.100000X0.412500X-1.100000X-0.412500X1.100000X-0.412500X1.100000X0.412500X0*%
%ADD34RoundRect,0.062500X-0.062500X0.337500X-0.062500X-0.337500X0.062500X-0.337500X0.062500X0.337500X0*%
%ADD35RoundRect,0.062500X-0.337500X0.062500X-0.337500X-0.062500X0.337500X-0.062500X0.337500X0.062500X0*%
%ADD36R,2.750000X2.750000*%
G04 APERTURE END LIST*
D10*
%TO.C,J1*%
X11576450Y-11783600D02*
X11578650Y-11783700D01*
X11580850Y-11784000D01*
X11583050Y-11784400D01*
X11585250Y-11784900D01*
X11587350Y-11785600D01*
X11589450Y-11786300D01*
X11591550Y-11787200D01*
X11593550Y-11788100D01*
X11595550Y-11789200D01*
X11597350Y-11790400D01*
X11599250Y-11791600D01*
X11600950Y-11793000D01*
X11602650Y-11794400D01*
X11604350Y-11795900D01*
X11605850Y-11797600D01*
X11607250Y-11799300D01*
X11608650Y-11801000D01*
X11609850Y-11802900D01*
X11611050Y-11804700D01*
X11612150Y-11806700D01*
X11613050Y-11808700D01*
X11613950Y-11810800D01*
X11614650Y-11812900D01*
X11615350Y-11815000D01*
X11615850Y-11817200D01*
X11616250Y-11819400D01*
X11616550Y-11821600D01*
X11616650Y-11823800D01*
X11616750Y-11826000D01*
X11616750Y-11856000D01*
X11616650Y-11858200D01*
X11616550Y-11860400D01*
X11616250Y-11862600D01*
X11615850Y-11864800D01*
X11615350Y-11867000D01*
X11614650Y-11869100D01*
X11613950Y-11871200D01*
X11613050Y-11873300D01*
X11612150Y-11875300D01*
X11611050Y-11877200D01*
X11609850Y-11879100D01*
X11608650Y-11881000D01*
X11607250Y-11882700D01*
X11605850Y-11884400D01*
X11604350Y-11886100D01*
X11602650Y-11887600D01*
X11600950Y-11889000D01*
X11599250Y-11890400D01*
X11597350Y-11891600D01*
X11595550Y-11892800D01*
X11593550Y-11893900D01*
X11591550Y-11894800D01*
X11589450Y-11895700D01*
X11587350Y-11896400D01*
X11585250Y-11897100D01*
X11583050Y-11897600D01*
X11580850Y-11898000D01*
X11578650Y-11898300D01*
X11576450Y-11898400D01*
X11574250Y-11898500D01*
X11572050Y-11898400D01*
X11569850Y-11898300D01*
X11567650Y-11898000D01*
X11565450Y-11897600D01*
X11563250Y-11897100D01*
X11561150Y-11896400D01*
X11559050Y-11895700D01*
X11556950Y-11894800D01*
X11554950Y-11893900D01*
X11553050Y-11892800D01*
X11551150Y-11891600D01*
X11549250Y-11890400D01*
X11547550Y-11889000D01*
X11545850Y-11887600D01*
X11544150Y-11886100D01*
X11542650Y-11884400D01*
X11541250Y-11882700D01*
X11539850Y-11881000D01*
X11538650Y-11879100D01*
X11537450Y-11877200D01*
X11536350Y-11875300D01*
X11535450Y-11873300D01*
X11534550Y-11871200D01*
X11533850Y-11869100D01*
X11533150Y-11867000D01*
X11532650Y-11864800D01*
X11532250Y-11862600D01*
X11531950Y-11860400D01*
X11531850Y-11858200D01*
X11531750Y-11856000D01*
X11531750Y-11826000D01*
X11531850Y-11823800D01*
X11531950Y-11821600D01*
X11532250Y-11819400D01*
X11532650Y-11817200D01*
X11533150Y-11815000D01*
X11533850Y-11812900D01*
X11534550Y-11810800D01*
X11535450Y-11808700D01*
X11536350Y-11806700D01*
X11537450Y-11804700D01*
X11538650Y-11802900D01*
X11539850Y-11801000D01*
X11541250Y-11799300D01*
X11542650Y-11797600D01*
X11544150Y-11795900D01*
X11545850Y-11794400D01*
X11547550Y-11793000D01*
X11549250Y-11791600D01*
X11551150Y-11790400D01*
X11553050Y-11789200D01*
X11554950Y-11788100D01*
X11556950Y-11787200D01*
X11559050Y-11786300D01*
X11561150Y-11785600D01*
X11563250Y-11784900D01*
X11565450Y-11784400D01*
X11567650Y-11784000D01*
X11569850Y-11783700D01*
X11572050Y-11783600D01*
X11574250Y-11783500D01*
X11576450Y-11783600D01*
G36*
X11576450Y-11783600D02*
G01*
X11578650Y-11783700D01*
X11580850Y-11784000D01*
X11583050Y-11784400D01*
X11585250Y-11784900D01*
X11587350Y-11785600D01*
X11589450Y-11786300D01*
X11591550Y-11787200D01*
X11593550Y-11788100D01*
X11595550Y-11789200D01*
X11597350Y-11790400D01*
X11599250Y-11791600D01*
X11600950Y-11793000D01*
X11602650Y-11794400D01*
X11604350Y-11795900D01*
X11605850Y-11797600D01*
X11607250Y-11799300D01*
X11608650Y-11801000D01*
X11609850Y-11802900D01*
X11611050Y-11804700D01*
X11612150Y-11806700D01*
X11613050Y-11808700D01*
X11613950Y-11810800D01*
X11614650Y-11812900D01*
X11615350Y-11815000D01*
X11615850Y-11817200D01*
X11616250Y-11819400D01*
X11616550Y-11821600D01*
X11616650Y-11823800D01*
X11616750Y-11826000D01*
X11616750Y-11856000D01*
X11616650Y-11858200D01*
X11616550Y-11860400D01*
X11616250Y-11862600D01*
X11615850Y-11864800D01*
X11615350Y-11867000D01*
X11614650Y-11869100D01*
X11613950Y-11871200D01*
X11613050Y-11873300D01*
X11612150Y-11875300D01*
X11611050Y-11877200D01*
X11609850Y-11879100D01*
X11608650Y-11881000D01*
X11607250Y-11882700D01*
X11605850Y-11884400D01*
X11604350Y-11886100D01*
X11602650Y-11887600D01*
X11600950Y-11889000D01*
X11599250Y-11890400D01*
X11597350Y-11891600D01*
X11595550Y-11892800D01*
X11593550Y-11893900D01*
X11591550Y-11894800D01*
X11589450Y-11895700D01*
X11587350Y-11896400D01*
X11585250Y-11897100D01*
X11583050Y-11897600D01*
X11580850Y-11898000D01*
X11578650Y-11898300D01*
X11576450Y-11898400D01*
X11574250Y-11898500D01*
X11572050Y-11898400D01*
X11569850Y-11898300D01*
X11567650Y-11898000D01*
X11565450Y-11897600D01*
X11563250Y-11897100D01*
X11561150Y-11896400D01*
X11559050Y-11895700D01*
X11556950Y-11894800D01*
X11554950Y-11893900D01*
X11553050Y-11892800D01*
X11551150Y-11891600D01*
X11549250Y-11890400D01*
X11547550Y-11889000D01*
X11545850Y-11887600D01*
X11544150Y-11886100D01*
X11542650Y-11884400D01*
X11541250Y-11882700D01*
X11539850Y-11881000D01*
X11538650Y-11879100D01*
X11537450Y-11877200D01*
X11536350Y-11875300D01*
X11535450Y-11873300D01*
X11534550Y-11871200D01*
X11533850Y-11869100D01*
X11533150Y-11867000D01*
X11532650Y-11864800D01*
X11532250Y-11862600D01*
X11531950Y-11860400D01*
X11531850Y-11858200D01*
X11531750Y-11856000D01*
X11531750Y-11826000D01*
X11531850Y-11823800D01*
X11531950Y-11821600D01*
X11532250Y-11819400D01*
X11532650Y-11817200D01*
X11533150Y-11815000D01*
X11533850Y-11812900D01*
X11534550Y-11810800D01*
X11535450Y-11808700D01*
X11536350Y-11806700D01*
X11537450Y-11804700D01*
X11538650Y-11802900D01*
X11539850Y-11801000D01*
X11541250Y-11799300D01*
X11542650Y-11797600D01*
X11544150Y-11795900D01*
X11545850Y-11794400D01*
X11547550Y-11793000D01*
X11549250Y-11791600D01*
X11551150Y-11790400D01*
X11553050Y-11789200D01*
X11554950Y-11788100D01*
X11556950Y-11787200D01*
X11559050Y-11786300D01*
X11561150Y-11785600D01*
X11563250Y-11784900D01*
X11565450Y-11784400D01*
X11567650Y-11784000D01*
X11569850Y-11783700D01*
X11572050Y-11783600D01*
X11574250Y-11783500D01*
X11576450Y-11783600D01*
G37*
%TD*%
D11*
%TO.C,R15*%
X13041250Y-12200000D03*
X12858750Y-12200000D03*
%TD*%
D12*
%TO.C,Q1*%
X13260500Y-10858800D03*
X13133500Y-10858800D03*
X13006500Y-10858800D03*
X12879500Y-10858800D03*
X12879500Y-11401200D03*
X13006500Y-11401200D03*
X13133500Y-11401200D03*
X13260500Y-11401200D03*
%TD*%
D11*
%TO.C,R3*%
X11461250Y-10660000D03*
X11278750Y-10660000D03*
%TD*%
D13*
%TO.C,R6*%
X11500000Y-9980000D03*
X11500000Y-10162500D03*
%TD*%
D14*
%TO.C,D3*%
X13520000Y-11807500D03*
X13520000Y-11632500D03*
%TD*%
D15*
%TO.C,R19*%
X13740000Y-11811250D03*
X13740000Y-11628750D03*
%TD*%
D16*
%TO.C,C8*%
X13790000Y-11406250D03*
X13790000Y-11093750D03*
%TD*%
D13*
%TO.C,R2*%
X11880000Y-11438750D03*
X11880000Y-11621250D03*
%TD*%
D15*
%TO.C,R14*%
X12300000Y-10162500D03*
X12300000Y-9980000D03*
%TD*%
D17*
%TO.C,J2*%
X14236900Y-11735000D03*
D18*
X14236900Y-11227000D03*
%TD*%
D15*
%TO.C,R12*%
X11980000Y-10162500D03*
X11980000Y-9980000D03*
%TD*%
D19*
%TO.C,C4*%
X12310000Y-10565000D03*
X12310000Y-10737500D03*
%TD*%
D20*
%TO.C,D1*%
X13225000Y-10400000D03*
X12895000Y-10400000D03*
%TD*%
D21*
%TO.C,J1*%
X11574250Y-11121000D03*
D22*
X11574250Y-11841000D03*
D23*
X11630250Y-11206000D03*
X11630250Y-11256000D03*
X11630250Y-11306000D03*
X11630250Y-11356000D03*
X11630250Y-11406000D03*
X11630250Y-11456000D03*
X11630250Y-11506000D03*
X11630250Y-11556000D03*
X11630250Y-11606000D03*
X11630250Y-11656000D03*
X11630250Y-11706000D03*
X11630250Y-11756000D03*
D24*
X11509250Y-11761000D03*
X11439250Y-11721000D03*
X11439250Y-11641000D03*
X11509250Y-11601000D03*
X11439250Y-11561000D03*
X11509250Y-11521000D03*
X11509250Y-11441000D03*
X11439250Y-11401000D03*
X11509250Y-11361000D03*
X11439250Y-11321000D03*
X11439250Y-11241000D03*
X11509250Y-11201000D03*
D25*
X11450250Y-11068000D03*
X11450250Y-11894000D03*
X11010250Y-11032000D03*
X11010250Y-11930000D03*
%TD*%
D26*
%TO.C,C6*%
X13490000Y-11407500D03*
X13490000Y-11200000D03*
%TD*%
D27*
%TO.C,Q3*%
X12930000Y-11860000D03*
X13025000Y-11860000D03*
X13120000Y-11860000D03*
X13120000Y-11620000D03*
X13025000Y-11620000D03*
X12930000Y-11620000D03*
%TD*%
D15*
%TO.C,R4*%
X12660000Y-11331250D03*
X12660000Y-11148750D03*
%TD*%
D28*
%TO.C,Q2*%
X12115000Y-12113750D03*
X12305000Y-12113750D03*
X12210000Y-11926250D03*
%TD*%
D19*
%TO.C,C5*%
X12480000Y-10565000D03*
X12480000Y-10737500D03*
%TD*%
D13*
%TO.C,R5*%
X11660000Y-9980000D03*
X11660000Y-10162500D03*
%TD*%
D29*
%TO.C,R18*%
X12858750Y-12030000D03*
X13041250Y-12030000D03*
%TD*%
D11*
%TO.C,R10*%
X13081250Y-10600000D03*
X12898750Y-10600000D03*
%TD*%
D30*
%TO.C,C3*%
X12316250Y-10361250D03*
X12523750Y-10361250D03*
%TD*%
D13*
%TO.C,R8*%
X11170000Y-9980000D03*
X11170000Y-10162500D03*
%TD*%
D29*
%TO.C,R16*%
X12118750Y-12300000D03*
X12301250Y-12300000D03*
%TD*%
D11*
%TO.C,R9*%
X13081250Y-10180000D03*
X12898750Y-10180000D03*
%TD*%
D31*
%TO.C,TP1*%
X12220000Y-11070000D03*
%TD*%
D26*
%TO.C,C2*%
X12440000Y-11327500D03*
X12440000Y-11120000D03*
%TD*%
D15*
%TO.C,R13*%
X12140000Y-10162500D03*
X12140000Y-9980000D03*
%TD*%
D32*
%TO.C,C7*%
X12670000Y-10567500D03*
X12670000Y-10775000D03*
%TD*%
D33*
%TO.C,C1*%
X12150000Y-11383750D03*
X12150000Y-11696250D03*
%TD*%
D11*
%TO.C,R17*%
X12661250Y-12030000D03*
X12478750Y-12030000D03*
%TD*%
D13*
%TO.C,R7*%
X11330000Y-9980000D03*
X11330000Y-10162500D03*
%TD*%
D29*
%TO.C,R1*%
X11278750Y-10840000D03*
X11461250Y-10840000D03*
%TD*%
D15*
%TO.C,R11*%
X11820000Y-10162500D03*
X11820000Y-9980000D03*
%TD*%
D34*
%TO.C,U1*%
X12027500Y-10438750D03*
X11977500Y-10438750D03*
X11927500Y-10438750D03*
X11877500Y-10438750D03*
X11827500Y-10438750D03*
X11777500Y-10438750D03*
D35*
X11705000Y-10511250D03*
X11705000Y-10561250D03*
X11705000Y-10611250D03*
X11705000Y-10661250D03*
X11705000Y-10711250D03*
X11705000Y-10761250D03*
D34*
X11777500Y-10833750D03*
X11827500Y-10833750D03*
X11877500Y-10833750D03*
X11927500Y-10833750D03*
X11977500Y-10833750D03*
X12027500Y-10833750D03*
D35*
X12100000Y-10761250D03*
X12100000Y-10711250D03*
X12100000Y-10661250D03*
X12100000Y-10611250D03*
X12100000Y-10561250D03*
X12100000Y-10511250D03*
D36*
X11902500Y-10636250D03*
%TD*%
D14*
%TO.C,D2*%
X12480000Y-11847500D03*
X12480000Y-11672500D03*
%TD*%
M02*
